<svg xmlns="http://www.w3.org/2000/svg" viewBox="0 0 1370 323" xmlns:v="https://vecta.io/nano"><style><![CDATA[.D{fill:#fff}.E{fill:#f34dc3}]]></style><g fill="#040b29"><path d="M313.9 297.8H299l-1-.3c-3.8-.6-7.3-1.9-10.3-4.3-5.4-4.3-8.1-9.9-8.1-16.7v-95.6c0-.7 0-1.5-.3-2.1l-16-50.7c-.1-.3-.2-.6-.3-.8-.2.5-.2.9-.2 1.3 0 8.6-.1 17.1-.7 25.6-.2 3-.6 6-1.4 8.9-3.9 13.7-15.3 20.1-26.2 19.8-4.2-.1-8.4 0-12.6 0h-1.3c-.3 1.4-.2 36.8.1 37.8h1.4 25.7a37.08 37.08 0 0 1 4.7.3c10 1.6 17.4 10.4 17.4 20.5l-.3 22.9c-.1 4.3-.4 8.6-1.4 12.7-2.8 11-9.6 17.8-20.8 20l-3.6.6h-85l-.9-.3c-2.1-.3-4.1-.8-6-1.7-.7-.3-1.3-.3-2-.1-2.8.8-5.7 1.2-8.6 1.3l-15.4.5c-1.2 0-2.4.1-3.6.2h-15.1c-.6-.1-1.2-.3-1.8-.4-6-1.1-10.6-4.1-14.1-9.1-.2-.3-.4-.6-.7-.9-.3.3-.5.6-.8.8-2.5 2.9-5.5 5-9 6.4-3.8 1.6-7.8 2.3-11.9 2.5-5.3.3-10.5.4-15.8.6-1.2 0-2.4.1-3.6.2H34.4c-.7-.2-1.3-.3-2-.4-9-1.5-15.9-8.6-17.3-17.6-.1-.5-.3-1.1-.4-1.6V36.8c.1-.6.3-1.2.4-1.9.3-1.5.4-2.9.8-4.4 1.9-7 5.8-12.4 12.3-15.8 3.6-1.9 7.5-2.8 11.5-3.2 4-.3 8.1-.6 12.1-.7l22.6-.2c1.2 0 2.4 0 3.6.2 6.3 1 11.3 4.1 14.8 9.4.2.3.3.5.5.7h.2c.2-.3.5-.5.7-.8 2.9-3.3 6.4-5.6 10.6-7 3.3-1.1 6.7-1.7 10.1-1.9 4.9-.3 9.7-.4 14.6-.5l16.8-.1c3.5 0 6.9.3 10.1 1.8.4.2.8.2 1.3 0 3.4-1.3 6.9-1.8 10.5-1.8h82.3c1.5 0 3.1 0 4.5.4 2.2.6 4.3.3 6.5.1.7-.1 1.4-.1 2.2-.1l17.3-.3 17.9-.1c1.9 0 3.9-.1 5.7.2 8.8 1.5 14.6 6.5 17.4 15.1.1.3.2.6.4 1 .3-.5.5-.8.7-1.1 3.9-6.8 9.6-11.3 17.2-13.2 3.9-1 8-1.5 12-1.5l29.6-.4c4.2-.1 8.1.9 11.6 3.2 4.8 3.1 7.9 7.4 9.2 12.9.2.6.3 1.3.4 1.9v5.8c-.1.2-.2.4-.2.7-.2.9-.3 1.7-.5 2.6l-5.2 17.3-35.9 120.4c-.2.8-.4 1.7-.4 2.6V269c0 2.6-.1 5.2-.8 7.7-2.2 9-7.5 15.2-16.3 18.3-3.4 1.2-7 1.8-10.6 1.9-5.1.3-10.3.4-15.5.6l-3.8.3zM75.1 31.7h-1.5-12.4l-17 .5c-1.8.1-3.6.4-5.3.8-1.5.3-2.4 1.3-2.7 2.7-.2 1.2-.4 2.5-.4 3.7v235.4.8c0 .3.1.6.1.9.3 0 .5.1.7.1l26.6-.3c2.8 0 5.6-.3 8.3-.8 2-.4 3-1.6 3.3-3.6.1-1.1.2-2.1.2-3.2V166.6v-1.1c0-.3.1-.5.1-.8 2.7-.3 32.5-.1 33.5.2v111.7c.4 0 .8.1 1.2.1l18.8-.1c3.5 0 7-.1 10.4-.4 1.9-.1 3.7-.4 5.6-.8 1.6-.3 2.6-1.4 2.9-3a17.33 17.33 0 0 0 .3-3.2V33.4v-.7c0-.3-.1-.6-.1-.9h-.9l-15.7.1-13.7.4c-1.8.1-3.6.4-5.3.7-1.8.3-2.9 1.5-3.2 3.3-.2.9-.2 1.9-.2 2.9v87.2 1.6H75.2l-.1-96.3zm173.6 209.9h-12.3H224h-12.2-12.3v-79.7h1.6 33.1 1.2c2-.1 3.5-1 4.3-2.8.5-1 .9-2 1-3.1.3-2.4.6-4.8.7-7.3l.4-21.3c0-.4 0-.8-.1-1.3h-42.2V66.7h1.5 42.5 1.2c2.8-.1 4.5-1.3 5.2-4.1.5-2 .9-4 .9-6l.5-24c0-.3-.1-.6-.1-1h-1.6-81-1.2c-2.1 0-3.7.8-4.9 2.5-1.4 1.9-2.2 3.9-2.2 6.3v234.1 1.1c0 .3.1.6.1 1h1.4 79.7 1.4c2.7-.3 4.2-1.4 4.8-4.1.4-2 .8-4 .8-6l.4-23.7c-.1-.4-.2-.7-.2-1.2zm73-98.7h-.2c0-.2-.1-.3-.1-.5l-2.3-20.7-3-20.9c-1.2-7.2-2.5-14.5-4-21.7l-9-41-1.5-6.5h-1.5l-28.9.2c-3 0-5.9.2-8.9.4-1.3.1-2.5.3-3.8.6-1.7.4-2.4 1.6-2.2 3.3.1.7.3 1.3.5 2l43 136.3c.4 1.2.6 2.5.6 3.8V275v1.6c.5 0 .8.1 1.2.1l18.8-.1c3.5 0 7-.2 10.4-.4 1.7-.1 3.5-.4 5.2-.7 2.1-.4 3.1-1.8 3.4-3.8.1-1 .2-2 .2-3V175c0-.8.1-1.6.3-2.4l31.3-104.9L381.5 33c.1-.4.2-.8.3-1.3h-1.6-11.9l-17.7.5c-2 .1-4 .5-5.9.9-1.6.3-2.7 1.3-3.6 2.6-.8 1.2-1.2 2.6-1.5 4l-6.3 29.2c-1.5 6.8-3 13.7-4.2 20.5-1.5 8.2-2.7 16.5-3.9 24.7l-3.1 24.1c0 1.6-.2 3.2-.4 4.7zm-71.4-55.8l-9.8.6-20.1.1c-.3 5.7-.5 11.4-.5 17.1v.1l22.2.2c6.2.1 11.4 2.6 15.6 7.4.2.2.3.5.5.8l-7.9-26.3z"/><path d="M463.8 301.2c-7.7-1.6-13.2-5.1-15.8-6.9-1.7-1.2-10.3-7.3-14.6-19-1.7-4.7-2.6-9.5-3-14.5-.5-5.6-.2-11.2 1.1-16.6 3.1-12.3 9.7-22.1 20.6-28.9.5-.3.9-.6 1.5-1.1a51.23 51.23 0 0 0-2.3-.7c-9.8-2.8-14.8-11.4-15.1-18.7l-.7-14.1-1.2-25.4-.5-10.8-1.3-26.3-.6-12.9-1.2-23.9-1.2-24.9c-.1-1-.4-4.7-.5-9.6s-.2-7.4.1-9.4c.3-2.1 1.2-8.5 6-14.5 4-4.9 8.6-7.2 10.6-8.2 2.7-1.3 5.5-2 8.4-2.7 5.4-1.2 10.9-1.6 16.4-1.8 11.5-.5 23-.6 34.5-.6 3.8 0 7.3 1 10.5 2.8.6.3 1.1.6 1.6.9a12.59 12.59 0 0 0 1-.3c9.4-2.5 18.9-4 28.6-4.5.6 0 1.2-.3 1.8-.4h12c.7.1 1.4.4 2.1.4 2.8.1 5.6.5 8.3 1 9.6 1.6 18.5 5.1 26.5 10.5.5.3 1.1.7 1.6 1 .4-.3.7-.6.9-.9 5.5-5.8 12.3-8.5 20.2-8.5h82.8c2.5 0 5 .3 7.3 1.1.9.3 1.8.4 2.8.1 3.7-1 7.6-1.3 11.4-1.3h32.4c9 0 17.9.8 26.7 2.7 11 2.4 21.1 6.9 29.9 13.9.5.4 1 .8 1.5 1.1.8-.6 1-1.5 1.4-2.3 3.8-7.1 9.3-12.1 17.1-14.4 2.8-.8 5.6-1.1 8.5-1.1h23.8 57.8c3.1 0 6.1.3 8.9 1.5.9.4 1.7.4 2.6.2.6-.1 1.2-.3 1.9-.4 4.3-.7 8.6-.9 12.9-1l8.9-.1 16.3-.1c1.6 0 3.2.2 4.8.6 6.2 1.5 10.8 5 13.8 10.6.3.6.7 1.2 1 1.8.2-.1.3-.1.4-.1l.5-.5c3.4-5.2 8.1-8.2 14.1-9.5 8.6-2 17.3-2.9 26.2-3 5.4-.1 10.9 0 16.2 1.1 4.8 1 9.5 2.5 13.5 5.4 8.6 6.2 12.4 14.6 11.1 25.1-.3 2.9-1.2 5.6-2.4 8.3l-33.1 78.9c-.4.9-.8 1.9-1.1 2.8.4.6.7 1 1.1 1.5 5.1 6.6 9.3 13.8 12.9 21.3 2.8 5.8 5.1 11.7 7.1 17.8.1.4.1 1 .8.9.1-.2.1-.4.2-.7l7.4-30 13.2-53.7 13.8-55.8c2.1-8.6 7.3-14.8 15.1-18.9 5.4-2.8 11.1-4 17.1-4.2 8.4-.3 16.8 0 25.1 1.4 9.3 1.6 15.4 6.9 17.8 16.2l5.6 22.5 20.3 82.6c.1.6.2 1.2.8 1.9.3-1.2.2-2.1.2-3V55.7 41.1c0-3 .2-6.1 1-9 2.2-8.3 7-14.2 15.1-17.3 1.9-.7 4-1.2 6-1.6 4.3-.8 8.6-1 12.9-1l8.9-.1 16.3-.1c7.3.1 13.1 3.1 17.4 9.1.3.4.6.7.9 1.2.4-.4.8-.7 1.1-1 3.7-4 8.3-6.4 13.6-7.6 3.8-.8 7.7-1.2 11.7-1.3l21.8-.4c3.1 0 6.2-.2 9.3.3 8.3 1.1 15.1 7.1 17.2 15.3.1.2.2.4.4.6V277c-.1.3-.4.6-.4.9-.5 3.6-2 6.7-4.1 9.6-3.7 5.3-9 8.3-15.2 9.7-4.2 1-8.6 1.2-12.9 1.3l-26.4.3c-1.7 0-3.4-.1-5-.4-5.3-1.1-9.6-3.9-12.8-8.2l-1.2-1.5c-.3.3-.5.4-.7.6-3.8 4.4-8.7 6.9-14.4 8.1-4.3.9-8.7 1.2-13.1 1.3l-25.4.3c-2.6 0-5.1-.2-7.6-1-.7-.2-1.4-.2-2.1-.1-5 1.4-10.1 1.7-15.2 1.8-9.5.2-19-.3-28.5-.8-3.3-.2-6.2-1.3-9-3.1-5.3-3.4-8.3-8.2-9.5-14.3l-7.3-35.7c-.2-.8-.2-1.6-.8-2.2-2.6-.3-10.2-.2-12.1.1l-.6 2.5-6.2 29.8c-2 9.7-9.5 20.9-24.9 22.9-5.6.7-11.2 1-16.8.8-8.4-.3-16.8-.6-25.1-1.7-.6-.1-1.3.1-1.9.2-2.1.3-4.2.8-6.4 1-4.9.5-9.7.6-14.6.4l-23.5-1a34.69 34.69 0 0 1-4.5-.6c-4.9-1.1-8.9-3.8-12-7.8l-1.4-1.7a6.53 6.53 0 0 0-.8.7c-4 4.5-9 7-14.8 8.2-4.3.9-8.7 1.1-13.1 1.2l-23.8.3c-3.8 0-7.5-.1-11.1-1.6-.6-.2-1.1-.2-1.6 0-4.1 1.5-8.3 1.6-12.5 1.6h-76.6c-1.3 0-2.6 0-3.8-.1-3.2-.1-6.1-1-8.9-2.6-5.3-3-8.6-7.5-10.1-13.4-.1-.5 0-1.2-.9-1.4-.6.4-1.2.9-1.8 1.4-9.9 7.5-21 12.3-33.3 14.6-6.1 1.1-12.2 1.5-18.4 1.5h-44.6c-2.9 0-5.8-.3-8.5-1.4-.8-.3-1.5-.4-2.3-.1-3.4 1.2-6.9 1.5-10.4 1.5h-79.7c-1.6 0-3.2 0-4.8-.3-10.8-2-17.2-11.3-17.2-20.2 0-.5.2-1.1-.2-1.5h-.2c-.3.5-.7 1.1-1 1.6-6.6 11.7-16.4 19.3-29.7 21.9-8.9 1.7-17.8 1.3-26.6-.9-8.5-2.2-15.6-6.6-20.8-13.7-.2-.3-.5-.6-.9-.9-.6.6-1 1.1-1.5 1.7-2.6 3-5.4 5.6-8.6 7.7-5.1 3.4-9.7 4.9-12.1 5.6-3.4 1-6.1 1.4-8.5 1.7-5.2.2-10.8.9-17.6-.4zm323-157.3c.2-.3.2-.4.2-.4.3-.1.6-.3.9-.4 3-.8 5.8-2.3 8.4-4 4-2.8 7.3-6.2 10-10.2 3.8-5.7 6.5-11.9 8.2-18.5 1.9-7.4 2.5-14.9 2.5-22.6 0-6.5-.5-12.9-2-19.2-2.1-8.3-6-15.6-12.2-21.6-5-4.9-11-8.1-17.7-10.3-7.9-2.6-16.1-3.5-24.3-3.7-7-.2-14.1-.1-21.1-.1h-15.8c-1.7 0-3.5.2-5.2.5-3 .6-4.7 2.6-4.9 5.7-.1.9 0 1.8 0 2.6v232.5 1.9c0 .5.1.9.2 1.5.9 0 1.7.1 2.5.1H759c5.1 0 10.2-.4 15.3-1.3 7.8-1.4 15-4.3 21.6-8.8 6.8-4.6 12.1-10.6 16.4-17.6 5.4-8.8 8.7-18.5 10.6-28.6 1.1-5.7 1.7-11.4 2.1-17.1.5-8 .5-16-.7-23.9-1-6.6-3.1-12.7-6.5-18.4-4.5-7.3-10.8-12.3-18.9-15.2-3.9-1.3-7.9-2.2-12.1-2.9zm148.6 133.7c1.1 0 1.9.1 2.7.1l16.3-.2c3.3 0 6.6-.1 9.8-.2 2.6-.1 5.1-.3 7.6-.9 1.7-.4 2.8-1.4 3.2-3.2.1-.7.3-1.4.3-2.1.1-.8 0-1.6 0-2.4V166.1v-3c.6.2 1.1.3 1.5.5 3.2 1.6 5.9 3.8 8.3 6.4 2.8 3.2 5.3 6.6 7.5 10.2 4.8 8.1 7.8 16.8 10 25.8 2.6 10.7 3.9 21.7 4.8 32.7.6 7.5.8 15 1.1 22.5.2 4.7.2 9.4.3 14.1 0 .6.1 1.2.2 1.9.8.1 1.4.1 2 .1l14.1.7 16.8.1c2.1 0 4.3-.4 6.4-.9 3-.7 4.4-2.4 4.8-5.5.1-.8.1-1.6.1-2.4 0-2.1-.1-4.2-.1-6.2-.1-11.3-.8-22.7-2-34-1.1-10.3-2.7-20.4-4.9-30.5-2.3-10.3-5.3-20.4-9.5-30.1-5-11.4-11.4-21.8-20.4-30.4-.3-.3-.5-.6-.8-.9.3-.7.5-1.3.8-1.8l38.4-91.5c.3-.7.6-1.5.9-2.2 1-3.1.1-5.3-2.7-6.9-1.4-.8-2.9-1.2-4.5-1.6-2.6-.6-5.2-.7-7.9-.8-6.9-.1-13.8.3-20.6 1.4-2.3.4-4.6.6-6.7 1.6l-.9 2.3-25.6 65.6-10.5 26.8c-.2.5-.2 1.1-.9 1.2 0-.1-.1-.2-.1-.3V34.4c0-.3 0-.6-.1-1v-.2c0-.1-.1-.1-.4-.3-.3 0-.9-.1-1.4-.1-9.5 0-19 0-28.5.5-2 .1-4 .5-5.9.8-2.2.4-3.3 1.9-3.5 4-.1 1.2-.1 2.4-.1 3.6v100.7 131.8c0 1.1 0 2.1.1 3.4zm357.3-.1c.7.1 1.3.2 1.9.2 2.2 0 4.3 0 6.5-.1l20.1-.4c2.3-.1 4.6-.5 6.9-.8 2.1-.3 3.2-1.7 3.4-3.7.1-1.2.1-2.4.1-3.6v-233-1.9c0-.4-.2-.9-.2-1.3-.5 0-.8-.1-1.1-.1-9.8 0-19.5 0-29.3.5-1.7.1-3.5.5-5.2.8-2 .4-3 1.7-3.2 3.7-.2 1.2-.2 2.4-.2 3.6v83.9 2.2c0 .5-.2.9-.3 1.5-1 0-1.8.1-2.7.1h-23-5.8c-.5 0-1-.2-1.7-.3v-3-88.9-2.4c0-.5-.1-.9-.2-1.5-.9 0-1.7-.1-2.5-.1h-11.8l-16.3.5c-1.9.1-3.8.5-5.7.9-1.3.2-2.1 1.1-2.4 2.4-.2.8-.4 1.6-.4 2.3-.1 1.1-.1 2.2-.1 3.4v232 1.9c0 .4.2.9.3 1.4.9 0 1.7.1 2.5.1l7.2-.1 18.9-.4c2.3-.1 4.6-.5 6.9-.8 1.9-.3 3-1.5 3.2-3.3a26.93 26.93 0 0 0 .3-4v-89.4-11.3c0-.8.1-1.6.1-2.4.6-.1 1.1-.2 1.5-.2h30.2c.5 0 .9.1 1.4.2.4 1.1.2 2.2.2 3.2V274v2.4c.3.3.4.7.5 1.1zm-123.3 0c.7.1 1.2.2 1.8.3l17.3.5c4.7.1 9.4.2 14.1-.5 1.5-.2 3-.5 4.4-1.1 2.4-1 3.3-2.9 2.8-5.4-.1-.5-.2-1.1-.4-1.6l-11.8-48.1-22.2-90.5-22.5-91.6-1.5-5.8c-.6-.1-1-.3-1.5-.4-1.8-.2-3.6-.5-5.5-.6-5.3-.5-10.5-.6-15.8-.3-2.2.1-4.4.6-6.5 1.5-2.8 1.1-4.5 3.1-5.2 6.1l-22 89.5-24.3 98.6-11.5 46.7c-.2.7-.4 1.4-.2 2.2 1.1.1 2.2.3 3.3.4l10.5.7c5.4.4 10.7.4 16.1.2 2.1-.1 4.3-.4 6.4-.8 3.2-.5 5-2.6 5.9-5.6.2-.5.3-1.1.4-1.6l3.5-16.9 6.2-29.8c.1-.4.3-.9.4-1.4h2.5 41.3c.9 0 1.8-.2 2.7.3l11.3 55zm-295.8-34.9c-.2-.5-.3-.8-.3-1v-77.7c0-.2.1-.4.2-.7.8-.4 1.7-.2 2.6-.2h26.2 6.5c3.2 0 4.6-1.8 5.4-3.9.3-1 .6-2 .7-3 .2-1.6.4-3.2.4-4.8l.5-22.3c0-.5-.1-1.1-.2-1.7h-41.7c-.7-1-.4-1.9-.4-2.7V70.7v-1.2c.1-.5.2-.9.3-1.5h2.7 39.1 2.6c3.5-.1 5.1-1.4 5.9-4.8.1-.2.1-.5.1-.7.3-2.5.7-5.1.8-7.6.2-6.6.2-13.3.3-19.9 0-.6-.1-1.2-.2-1.9-1-.3-2-.2-2.9-.2h-78.7-1.7c-2.8-.1-4.7 1.2-6.1 3.5-1.1 1.8-1.5 3.8-1.5 5.9v232.2 1.7c0 .5.1.9.2 1.4.4.1.8.1 1.1.1h1.9 76.3c1.3 0 2.6-.1 3.8-.2 2.1-.3 3.5-1.5 4-3.6.3-1.5.6-3 .7-4.5.7-8.4.4-16.8.5-25.1 0-.5-.1-.9-.2-1.6l-48.9-.1zM652.2 67.9h2.8 39.4 2.4c3.5-.1 5.1-1.4 5.9-4.8.1-.2.1-.5.1-.7.3-2.5.7-5.1.8-7.6.2-6.8.2-13.6.2-20.4 0-.5-.1-.9-.2-1.5-1.1 0-2-.1-3-.1h-78.9-1.4c-2.7-.1-4.6 1.2-5.9 3.4-1.2 1.9-1.6 3.9-1.6 6.2v232 1.9c0 .4.2.9.3 1.4.9 0 1.7.1 2.5.1h16.6 60.2c1.3 0 2.6-.1 3.8-.3 2-.3 3.4-1.4 3.8-3.4.4-1.5.7-3.1.8-4.7.7-8.4.4-16.8.6-25.1 0-.5-.1-.9-.2-1.5-1 0-2-.1-2.9-.1h-42.5-2.2c-.5 0-.9-.1-1.4-.2-.3-1-.2-2-.2-2.9v-73.1-1.7c0-.5.1-.9.2-1.4 1-.4 1.8-.3 2.7-.3h31 1.9c2.5 0 4.1-1.3 4.9-3.5.5-1.3.8-2.8.9-4.2.3-3.3.4-6.7.5-10 .2-5.3.2-10.5.3-15.8 0-.7.2-1.4-.5-2.2h-8.2-8.4-8.2-8.4-8.3c-.2-.4-.3-.6-.3-.8V69.3c-.1-.5 0-.8.1-1.4zm-136.9 8.2c.8-.4 1.5-.8 2.2-1.1 8.5-4.8 17.6-6.9 27.4-5.7 3 .4 5.8 1 8.5 2.5 3.2 1.8 5.5 4.4 6.6 7.9.3 1 .5 2 .7 3 1 6.8.2 13.4-2.2 19.8-1.7 4.7-4 9-6.7 13.2l-10.1 16c-4.3 6.7-8.1 13.8-11.7 20.9-2 4-3.4 8.3-3.8 12.8-.5 5.6-.3 11.2.7 16.7 1.1 5.8 3.1 11.4 5.4 16.8.2.4.4.7.6 1 .4.1.8.1 1.2.2 4.8.6 9.6.5 14.4.5 3.6 0 7.2-.5 10.7-1.1 2.1-.4 4.2-.9 6.2-1.8 3.2-1.5 4.6-3.9 4.2-7.3-.1-1.3-.5-2.7-.8-4l-2.9-11.9c-1.2-5.2-.4-10.1 2.3-14.7 3.4-5.8 7-11.4 11-16.8 4.1-5.4 7.9-11 11.5-16.8 5.1-8 8.7-16.7 10.8-26 1.9-8.4 2.5-16.9 2.3-25.5-.1-5.2-.9-10.3-2.4-15.3-3.7-12.4-11.5-21.2-23.5-26.1-5.9-2.4-12.1-3.6-18.4-3.9-10-.4-19.8.5-29.6 2.5-4.6.9-9.2 2.2-13.5 4.2-1.5.7-3 1.6-4.3 2.6-2.2 1.7-3.4 4-3.2 6.8.2 2.7.2 5.4.5 8.1.8 7.2 2.7 14.1 5.2 20.9.1.6.4 1 .7 1.6zM505 30.8h-2.7l-8.2.1c-8.4 0-16.8.1-25.2.6-3 .2-6.1.5-9.1 1-1.8.3-3.6.8-5.3 1.4-2.3.9-3.8 2.6-4.4 5-.3 1.1-.4 2.2-.5 3.3s0 2.2.1 3.4l1.2 23.5 1.4 29.7 1.4 29.4 1.4 29.7 1.6 33.5c0 .6.1 1.2.2 2 .6.1 1 .2 1.5.2h4.6c6.1-.1 12.2-.3 18.2-.9 2.5-.3 4.9-.8 7.2-1.9 3-1.3 5.1-3.6 6.2-6.6.8-2.2 1.3-4.5 1.4-6.8l1.4-23.2 1.2-19.9 1.7-27 1.6-28 .5-8.9 1.3-20.3.8-12.9c.4-2.2.6-4.1.5-6.4zm46 198.8c-1.6.1-3.2.1-4.8.3-5.9.7-10.9 3.1-14.6 7.7-2.8 3.5-4.8 7.3-5.7 11.7-.9 4.2-.7 8.4-.1 12.6.3 2.3.9 4.5 1.8 6.7 2.2 5.3 6 8.7 11.6 10.2 5.5 1.4 11 1.7 16.6.8 4.4-.7 8.4-2.5 11.7-5.7 3.7-3.6 6.1-8 7.1-13.1 1.1-5.8.7-11.6-1.1-17.3-.7-2.1-1.7-4.1-2.9-6-1.5-2.3-3.5-4.1-6.1-5.3-1.4-.6-2.8-1.1-4.3-1.5-3-.8-6.1-1-9.2-1.1zm-75.1 50.8c.9 0 2.5-.1 4.2-.2 4.9-.6 9.3-2.3 12.9-5.7s5.9-7.5 7.1-12.3c1.1-4.5.9-9 .2-13.5-.4-2.8-1.3-5.4-2.5-8-2.3-4.9-6.1-8.1-11.4-9.5-5.2-1.4-10.6-1.7-15.9-.8-4.2.7-8 2.3-11.1 5.2-4.3 4-6.9 8.9-8 14.7-.8 4.6-.6 9.2.4 13.8a25.47 25.47 0 0 0 2.4 6.7c1.9 3.5 4.6 6.1 8.4 7.5l2.7.9c3.3.9 6.6 1.1 10.6 1.2zM894.2 220c0 .4.1.8.1.8 0 .3.1.5.2.8.4.1.6.1.9.1h17.7c.4 0 .7-.2 1.1-.2.2-1.7.4-34 .2-37 0-.3-.1-.6-.2-.9l-19.6.4-.4 36zm-201.7 1.5c.1-.4.2-.7.2-1v-36.2c0-.2-.2-.4-.2-.6l-7.4.1h-10.3c-.5 0-1.1.1-1.7.3v2.7 17.5 15.1c0 .7-.2 1.4.4 2 1.9.2 13.1.3 18 .2.2 0 .6 0 1-.1zM894.2 106c.6.1.9.2 1.2.2h17.7c.4 0 .7-.2 1-.2.1-.3.2-.5.2-.6V89.9c0-.3-.2-.6-.3-.9-.6 0-1-.1-1.5-.1l-17.7.1c-.1 0-.2 0-.2.1-.1 0-.1.1-.4.4V106zM692.5 89c-.5 0-.8-.1-1.1-.1h-17c-.4 0-.9.2-1.3.2-.1.3-.1.5-.1.6v15.5c0 .3.2.6.3.8.3.1.4.1.6.1h18c.3 0 .6-.2.8-.3.2-2.8.1-14.8-.2-16.8zm-172.1 36.1c.1.1.2.1.4.2.2-.3.5-.6.7-.9l12.2-19.2c1-1.6 2-3.3 2.9-5 1-2 1.8-4.1 2.7-6.1.5-1.2.8-2.6.7-4-1.1-.4-2.1-.2-3.1-.1-2.3.3-4.5 1-6.6 2-2.6 1.3-5.2 2.8-7.9 4.2l-2 28.9zm71.2 36.9c-1.8 2.4-3 4.6-4.4 6.8-.7 1.1-.9 2.2-.5 3.4.8 3 1.5 6 2.4 9 1.1 3.7 1.6 7.5 1.4 11.3-.4 9-4.2 16.3-11.6 21.5-.5.4-1 .7-1.6 1.2.7.5 1.2 1 1.8 1.4 3.1 2.2 5.8 4.8 7.9 7.9 1.4 2 2.6 4.2 3.9 6.3.2.3.3.7.8.6.2-3.1.2-67.1-.1-69.4zM510 199.9c-.5.4-.8.7-1.1 1-1.3 1.3-2.5 2.7-3.9 3.9-3 2.6-6.4 4.4-10.1 5.8-.4.1-.7.4-1.1.7 2.1.9 4 1.6 5.9 2.5 1.8.9 3.7 2 5.3 3.2 1.7 1.3 3.3 2.7 4.9 4.2 1.4 1.5 2.7 3.1 4.1 4.8 1.3-1.5 2.4-2.9 3.7-4.2l4-3.9c-.4-.3-.7-.7-1-.9-3.3-2.3-5.7-5.4-7.2-9.1l-2.5-6c-.4-.5-.7-1.1-1-2zm243.7 43.7V164c0-.5.1-.9.1-1.5.6-.1 1-.1 1.5-.1h7c1.9 0 3.6.4 5.4.9 2.2.6 3.9 1.9 5.2 3.6s2.2 3.7 2.8 5.8c1.1 3.5 1.6 7.2 1.9 10.8.7 9.2.8 18.3 0 27.5-.5 5.7-1.3 11.3-3 16.7-.7 2.4-1.7 4.8-2.7 7.1-.8 1.9-2 3.6-3.4 5.2-2.1 2.4-4.8 3.7-8 3.7-2.2 0-4.3 0-6.8-.1zm.2-114.4c-.3-2.7-.3-59.6 0-61.8.4-.1.8-.2 1.3-.2h6.5c3.9.1 6.7 1.9 8.4 5.3 1.4 2.8 2.2 5.8 2.6 8.9a108.56 108.56 0 0 1 0 27.9c-.5 3.7-1.3 7.4-2.7 10.9-.7 1.9-1.6 3.6-2.9 5.2-1.9 2.4-4.2 3.8-7.4 3.7-1.9.1-3.8.1-5.8.1zm396.6 57.2c-2 .3-28.9.3-31.4.1 0-.4-.1-.9 0-1.3l7.2-34.9c1.2-6.2 2.2-12.4 3.1-18.7 1-6.4 1.8-12.8 2.7-19.2l2.2-18.1c.1-1.1.2-2.2.7-3.7l1.4 12.6c.4 4 .9 7.9 1.4 11.9l1.7 12.1 1.9 11.8 2.1 12c.7 3.9 1.6 7.8 2.4 11.7l2.5 12c.5 3.9 1.5 7.8 2.1 11.7z"/></g><path d="M104.1 281V169H80.5v100c0 3.7-.9 6.5-2.9 8.4-1.7 1.7-4.5 2.9-13 3.2-5.6.2-14.9.4-28.4.4h-5V38c0-3.7.9-6.5 2.9-8.4 1.7-1.7 4.5-2.8 12.9-3.2 5.6-.2 15.2-.4 28.4-.4h5v96.2H104V38c0-3.8 1.1-6.7 3.2-8.6 1.8-1.6 4.6-2.7 12.7-3 5.5-.2 15-.4 28.2-.4h5v243c0 3.7-.9 6.5-2.9 8.4-1.7 1.7-4.5 2.9-13 3.2-5.6.2-14.9.4-28.4.4h-4.7z" class="D"/><path d="M148.3 31v238c0 2.3-.5 4-1.4 4.9s-4.1 1.5-9.6 1.8c-5.5.2-14.9.3-28.2.3V164H75.5v105c0 2.3-.5 4-1.4 4.9s-4.1 1.5-9.6 1.8c-5.5.2-14.9.3-28.2.3V38c0-2.3.5-4 1.4-4.9s4.1-1.5 9.6-1.7 14.9-.3 28.2-.3v96.2h33.6V38c0-2.3.5-4 1.6-4.9s4.3-1.5 9.6-1.7c5.3-.3 14.7-.4 28-.4m10-10h-10l-28.4.4c-8.5.4-12.7 1.5-15.8 4.3-2.3 2-4.9 5.8-4.9 12.4v79.2H85.5V31 21h-10l-28.6.4c-7.7.3-12.8 1.2-16.3 4.7-2.9 2.9-4.3 6.9-4.3 12v238 10h10l28.6-.4c7.7-.3 12.8-1.2 16.3-4.7 2.9-2.9 4.3-6.9 4.3-12v-95h13.6v102 10h10l28.6-.4c7.7-.3 12.8-1.2 16.3-4.7 2.9-2.9 4.3-6.9 4.3-12V31 21h0z" class="E"/><path d="M295.9 281V176.4L252.1 38.7c-1.3-4-.2-8 3-10.2 1.9-1.3 4.9-2.1 14.3-2.3C276 26 287 26 302 26h4l11 49.8c1 4.3 2 9.5 3 15.4l2.1 12.6 2.1-12.8c1.1-6.3 2.1-11.4 3-15.6l8.4-38.7.1-.2c1-3.5 2.8-6 5.2-7.6 1.6-1.1 4.4-2.2 13.1-2.6 5.7-.2 15.3-.4 28.6-.4h6.7l-44.1 147.8V269c0 3.8-1.1 6.7-3.3 8.6-1.7 1.5-4.6 2.7-12.7 3-5.5.2-14.7.4-28.2.4h-5.1z" class="D"/><path d="M382.5 31l-42.4 142v96c0 2.3-.5 4-1.6 4.9-1 .9-4.3 1.5-9.6 1.8-5.4.2-14.7.3-28 .3V175.6L256.8 37.2c-.7-2.1-.1-3.8 1.1-4.6s5-1.3 11.5-1.4c6.6-.2 17.4-.2 32.6-.2l10.1 45.8c.9 4.2 1.9 9.3 3 15.2l3 18.7 2.5 18.5c.7 5.8 1.2 10.7 1.4 14.7l1.8-14.7c.7-5.8 1.5-12 2.5-18.5a469.03 469.03 0 0 1 3-18.9c1-6.1 2-11.2 3-15.4l8.4-38.5c.7-2.3 1.8-4 3.1-4.9 1.4-.9 4.9-1.5 10.5-1.7 5.5-.2 14.9-.3 28.2-.3m13.4-10h-13.4l-28.8.4c-8.1.3-12.4 1.3-15.6 3.4-3.4 2.3-5.8 5.8-7.2 10.4l-.1.4-.1.4-8.4 38.5c-.1.4-.2.7-.2 1.1-.1-.3-.1-.5-.2-.8L311.8 29l-1.8-8h-8l-32.7.2c-9.6.2-13.9 1-17.1 3.2-4.9 3.4-6.8 9.8-4.9 15.9l43.6 136.9V276v10h10l28.4-.4c8.5-.4 12.7-1.5 15.8-4.3 2.2-2 4.9-5.7 4.9-12.4v-94.5l41.9-140.7 4-12.7h0z" class="E"/><path d="M155.6 281V37.2l.2-.7c2.8-9.2 8.6-10.6 11.8-10.6h89v5c0 10.5-.1 18.3-.4 23.3-.3 6-1.1 9.7-2.5 12-1.1 1.7-3.7 4.7-9.2 4.7h-39.8v49.5H247v5c0 15-.3 24.7-.9 29.5-1.3 10.1-7.9 11.2-10.7 11.2h-30.7V236H254v5c0 10.9-.1 19-.4 24-.3 6.2-1.1 9.8-2.7 12-1.3 1.8-4 4-8.9 4h-86.4z" class="D"/><path d="M251.6 31l-.3 23.1c-.2 4.9-.8 8.1-1.8 9.6-.9 1.5-2.6 2.3-4.9 2.3h-44.8v59.5h42.3c0 14.7-.3 24.3-.9 28.9-.6 4.5-2.5 6.8-5.8 6.8h-35.7V241H249l-.3 23.8c-.2 4.9-.8 8-1.8 9.3-.9 1.3-2.6 1.9-4.9 1.9h-81.5V38c1.4-4.7 3.7-7 7-7h84.1m10-10h-10-84c-3.7 0-12.8 1.4-16.6 14.1l-.4 1.4V38v238 10h10 81.5c7.5 0 11.3-3.8 13-6 2.2-3.1 3.3-7.3 3.7-14.7.2-5.1.4-13.3.4-24.3v-10h-10-39.3v-59.8h25.7c6.6 0 14.2-4.1 15.7-15.6.6-5.1 1-14.9 1-30.2v-10h-10H210V76h34.8c7.9 0 11.8-4.4 13.4-7 1.9-3.1 2.9-7.4 3.2-14.4.2-5.1.4-13 .4-23.6V21h-.2z" class="E"/><path d="M476.8 286.2c-10.4 0-18.8-3.2-23.6-9.1-4.2-5.2-6.4-12.4-6.4-21.5 0-8.7 2.4-15.9 7.1-21.5 5-6 12.7-9 22.7-9 11.2 0 19.1 3 23.6 9 4.1 5.5 6.2 12.8 6.2 21.5 0 8-2.6 15-7.7 20.8-5.5 6.4-13.2 9.8-21.9 9.8z" class="D"/><path d="M476.7 229.9c9.6 0 16.1 2.3 19.6 7s5.2 10.8 5.2 18.5c0 6.8-2.2 12.6-6.5 17.5s-10.4 8.2-18.3 8.2c-9.6 0-16.2-3-19.7-7.3s-5.2-10.4-5.2-18.4c0-6.8 1.6-13.2 5.9-18.3 4.4-5.1 11.1-7.2 19-7.2m0-10c-11.6 0-20.5 3.6-26.6 10.8-5.5 6.5-8.3 14.9-8.3 24.8 0 10.3 2.5 18.6 7.5 24.7 5.8 7.1 15.5 11 27.5 11 10.2 0 19.1-4 25.8-11.6 6-6.8 9-14.9 9-24.1 0-9.9-2.4-18.1-7.2-24.5-5.5-7.4-14.8-11.1-27.7-11.1h0z" class="E"/><path d="M550.8 286.2c-10.1 0-18.4-3.4-23.4-9.5-4.2-5.2-6.4-12.4-6.4-21.5 0-8.7 2.3-15.7 6.9-21.2 5.1-6 13.2-9.4 22.9-9.4 11.2 0 19.1 3 23.6 9 4.1 5.5 6.3 12.8 6.3 21.6 0 8-2.6 15-7.7 20.8-5.8 6.5-13.7 10.2-22.2 10.2z" class="D"/><path d="M550.9 229.6c9.6 0 16.1 2.3 19.6 7s5.2 10.9 5.2 18.6c0 6.8-2.2 12.6-6.5 17.5s-10.6 8.5-18.5 8.5c-9.6 0-16-3.3-19.5-7.6s-5.2-10.4-5.2-18.4c0-6.8 1.4-12.8 5.7-18 4.4-5.2 11.3-7.6 19.2-7.6m0-10c-11.2 0-20.7 4-26.8 11.1-5.4 6.5-8.1 14.5-8.1 24.4 0 10.3 2.5 18.6 7.5 24.7 5.9 7.3 15.6 11.3 27.3 11.3 10 0 19.2-4.2 26-11.9 6-6.8 9-14.9 9-24.1 0-9.9-2.4-18.1-7.2-24.5-5.6-7.3-14.8-11-27.7-11h0z" class="E"/><path d="M546.4 205.5c-5.1 0-9.7-.2-13.6-.7l-2.8-.4-1.1-2.6c-2.7-6.1-4.6-11.7-5.7-16.7-1.1-5.1-1.6-10.6-1.5-16.6.1-6.3 1.8-12.7 4.9-18.9 4-8.1 8-15.2 11.8-21.1l9.9-15.7c2.7-4.4 4.9-8.6 6.4-12.7 1.4-3.9 2.1-8.1 2.1-12.6 0-2.5-.3-4.8-.8-6.6-.4-1.5-1.2-2.7-2.3-3.7-1.2-1.1-2.8-1.9-4.8-2.5-2.3-.7-5.4-1-9.1-1-8.1 0-14.8 1.8-21.1 5.7l-5.2 3.2-2.1-5.7c-2.1-5.5-3.9-10.3-5-15.9-1.1-5.4-1.7-11-1.7-16.4 0-3.9 1.8-9.3 10.3-13.1 5.3-2.4 11.8-4.2 19.5-5.5 7.5-1.2 14.7-1.8 21.4-1.8 9 0 17 1.4 23.7 4 6.9 2.7 12.6 6.6 17.1 11.4 4.4 4.8 7.7 10.6 9.8 17.1 2 6.3 3 13.2 3 20.4 0 11.4-1.3 21.4-3.9 29.7-2.6 8.2-5.9 15.6-10 22-3.9 6.1-8 12.1-12.1 17.6-3.9 5.3-7.6 11-11 17.1-1.5 2.9-1.9 6.1-1.2 9.6.9 4.5 1.9 8.6 3 12.3 1.7 5.5 1.1 10-1.5 13.4l-.2.2c-2.2 2.6-5.8 4.3-11.4 5.3-4.7.8-9.6 1.2-14.8 1.2z" class="D"/><path d="M555.8 29c8.4 0 15.7 1.2 21.9 3.7s11.3 5.8 15.2 10.2c4 4.3 6.9 9.4 8.8 15.2s2.8 12.1 2.8 18.9c0 11-1.2 20.4-3.7 28.2-2.4 7.8-5.6 14.8-9.4 20.8-3.9 6.1-7.8 11.8-11.9 17.3s-7.9 11.4-11.4 17.7c-2.1 4-2.7 8.3-1.8 13s2 8.9 3.2 12.8.9 6.8-.7 8.9c-1.4 1.6-4.3 2.9-8.6 3.7s-8.9 1.2-13.8 1.2-9.2-.2-13-.7c-2.6-5.8-4.4-11.1-5.4-15.8s-1.5-9.8-1.4-15.4 1.6-11.2 4.4-16.8c4-7.9 7.8-14.8 11.5-20.7l10-15.8c2.9-4.7 5.2-9.2 6.8-13.7 1.6-4.4 2.5-9.2 2.5-14.3 0-3-.4-5.7-1-8a13.47 13.47 0 0 0-3.7-6c-1.8-1.6-4-2.9-6.8-3.7s-6.3-1.2-10.5-1.2c-7.9 0-15.8 1.5-23.7 6.4-2.1-5.6-3.7-10-4.8-15.2-1-5.1-1.6-10.3-1.6-15.4 0-3.5 2.5-6.4 7.4-8.6s11-3.9 18.2-5.1c7.1-1 14-1.6 20.5-1.6m0-10c-7 0-14.5.6-22.2 1.9-8.1 1.3-15.1 3.3-20.7 5.8-11.5 5.2-13.2 13.3-13.2 17.7 0 5.8.6 11.6 1.8 17.4 1.2 6 3.1 10.9 5.2 16.7l4.3 11.4 10.4-6.4c5.5-3.4 11.2-4.9 18.5-4.9 4 0 6.4.4 7.7.8 1.2.4 2.2.8 2.8 1.4.4.4.7.9.9 1.5.4 1.4.6 3.1.6 5.2 0 3.9-.6 7.6-1.8 10.9-1.4 3.8-3.4 7.7-5.9 11.8l-9.9 15.7c-3.9 6.1-8 13.4-12.1 21.6-3.5 6.9-5.3 14-5.4 21.1-.1 6.4.4 12.3 1.6 17.8 1.2 5.3 3.2 11.2 6 17.6l2.3 5.2 5.6.7c4.1.5 8.9.8 14.2.8 5.5 0 10.8-.5 15.7-1.4 6.8-1.3 11.3-3.5 14.3-7l.2-.2.1-.2c2.6-3.3 5.1-9.1 2.4-18-1.1-3.5-2.1-7.5-2.9-11.8-.5-2.4-.2-4.4.7-6.2 3.3-5.9 6.8-11.4 10.6-16.5 4.2-5.7 8.4-11.7 12.3-17.9 4.3-6.8 7.9-14.6 10.5-23.2 2.7-8.7 4.1-19.2 4.1-31.2 0-7.8-1.1-15.1-3.3-21.9-2.3-7.2-6-13.6-10.9-18.9-5-5.4-11.3-9.7-18.9-12.7-7.4-3.1-15.9-4.6-25.6-4.6h0z" class="E"/><path d="M608.5 282.5V38.8l.2-.7c2.8-9.2 8.6-10.6 11.8-10.6h89v5c0 10.5-.1 18.3-.4 23.3-.3 6-1.1 9.7-2.5 12-1.1 1.7-3.7 4.7-9.2 4.7h-39.8V122H700v5c0 15-.3 24.7-.9 29.5-1.3 10.1-7.9 11.2-10.7 11.2h-30.7v69.8H707v5c0 10.9-.1 19-.4 24-.3 6.2-1.1 9.8-2.7 12-1.3 1.8-4 4-8.9 4h-86.5z" class="D"/><path d="M704.5 32.5l-.3 23.1c-.2 4.9-.8 8.1-1.8 9.6-.9 1.5-2.6 2.3-4.9 2.3h-44.8V127H695c0 14.7-.3 24.3-.9 28.9-.6 4.5-2.5 6.8-5.8 6.8h-35.7v79.8H702l-.3 23.8c-.2 4.9-.8 8-1.8 9.3-.9 1.3-2.6 1.9-4.9 1.9h-81.6v-238c1.4-4.7 3.7-7 7-7h84.1m10-10h-10-84c-3.7 0-12.8 1.4-16.6 14.1l-.4 1.4v1.5 238 10h10H695c7.5 0 11.3-3.8 13-6 2.2-3.1 3.3-7.3 3.7-14.7.2-5.1.4-13.3.4-24.3v-10h-10-39.3v-59.8h25.7c6.6 0 14.2-4.1 15.7-15.5.6-5.1 1-14.9 1-30.2v-10h-10-32.3V77.5h34.8c7.9 0 11.8-4.4 13.4-7 1.9-3.1 2.9-7.4 3.2-14.4.2-5.1.4-13 .4-23.6v-10h-.2z" class="E"/><path d="M709.5 282.5v-243c0-4.8 2.1-7.6 3.9-9.1 2.4-2 5.9-2.9 10.9-2.9h34.3c7.8 0 15.4.8 22.8 2.4 7.6 1.7 14.6 4.7 20.7 9 6.3 4.5 11.4 10.7 15.1 18.6 3.7 7.8 5.6 17.9 5.6 30 0 12.5-1.8 23.2-5.3 31.8-3.6 8.7-8.1 15.6-13.6 20.4-.9.8-1.8 1.6-2.8 2.2 5 1.8 9.8 4.6 14.1 8.5 4.7 4.1 8.5 9.8 11.3 16.9 2.8 7 4.2 16 4.2 26.9 0 9.6-.8 18.8-2.4 27.3-1.6 8.7-4.1 16.8-7.6 24-3.5 7.4-8.1 13.9-13.6 19.4-5.6 5.6-12.4 10-20.1 13s-16.7 4.5-26.9 4.5h-50.6zm51.9-43.9c1.5 0 2.6-.5 3.8-1.7 1.6-1.6 3-4.1 4.3-7.4 1.4-3.6 2.5-8.1 3.2-13.3.8-5.3 1.2-11.6 1.2-18.5 0-7.6-.3-13.8-1-18.2-.8-5-1.8-7.6-2.5-8.9-.8-1.4-1.7-2.3-2.7-2.7-1.5-.6-3.4-.9-5.5-.9h-2.7v71.5h1.9zm-.4-114.5c.5 0 1.6 0 3.1-2.1 1.6-2.2 2.8-5.5 3.7-9.9 1-4.7 1.5-10.1 1.5-16.3 0-7.7-.5-13.6-1.4-17.3-1.1-4.4-2.3-5.4-2.5-5.6-1-.8-1.9-1.1-2.9-1.1h-3v52.3h1.5z" class="D"/><path d="M758.6 32.5c7.5 0 14.7.8 21.7 2.3a51.79 51.79 0 0 1 18.9 8.2c5.6 4 10.1 9.5 13.5 16.6s5.1 16.4 5.1 27.8c0 11.9-1.6 21.9-4.9 29.9s-7.3 14.2-12.2 18.5-9.9 6.8-15 7.5c4.2.5 8.6 1.5 13.3 3s9 4.1 13.1 7.7 7.4 8.6 10 15 3.8 14.8 3.8 25c0 9.3-.8 18.1-2.3 26.4s-3.9 15.9-7.2 22.8-7.5 12.9-12.6 18-11.3 9.1-18.4 11.9-15.5 4.2-25 4.2h-45.8v-238c0-2.3.7-4.1 2.1-5.2 1.4-1.2 4-1.8 7.7-1.8h34.2m-4.2 96.8h6.6c2.8 0 5.2-1.4 7.2-4.2s3.5-6.7 4.6-11.7c1-5 1.6-10.8 1.6-17.3 0-8.2-.5-14.3-1.6-18.6-1.1-4.2-2.5-7-4.4-8.4s-3.9-2.1-6-2.1h-8v62.3m0 114.5h7c2.8 0 5.2-1 7.3-3.1s3.9-5.1 5.4-9.1 2.7-8.8 3.5-14.3c.8-5.6 1.2-12 1.2-19.2 0-7.9-.4-14.2-1.1-18.9s-1.8-8.2-3.1-10.7c-1.4-2.5-3.2-4.1-5.2-4.9-2.1-.8-4.5-1.2-7.4-1.2h-7.7v81.4m4.3-221.1h-34.3c-6.3 0-10.8 1.3-14.1 4.1-3.7 3.1-5.7 7.7-5.7 12.9v238 10h10 45.8c10.8 0 20.4-1.6 28.7-4.9 8.4-3.3 15.7-8 21.8-14.1 5.9-5.9 10.8-12.9 14.6-20.8 3.6-7.6 6.3-16.1 8-25.2 1.6-8.8 2.4-18.3 2.4-28.2 0-11.6-1.5-21-4.6-28.7-3.1-7.8-7.4-14.2-12.6-18.8-2.7-2.4-5.5-4.4-8.4-6.1 4.7-5 8.7-11.5 11.9-19.4 3.7-9.2 5.6-20.6 5.6-33.7 0-12.9-2-23.7-6-32.1C817.6 46.9 812 40 805 35c-6.7-4.7-14.3-8-22.6-9.8-7.7-1.8-15.7-2.7-23.8-2.7h0zm5.8 206.3v-56.6l1.2.3c.1.1.2.3.4.6.4.6 1.2 2.6 1.9 7.2.6 4.2.9 10 .9 17.4 0 6.7-.4 12.7-1.1 17.8-.7 4.9-1.7 9-2.9 12.2-.1.5-.3.8-.4 1.1h0z" class="E"/><path d="M829.8 282.5V38.8l.2-.7c2.8-9.2 8.6-10.6 11.8-10.6h89v5c0 10.5-.1 18.3-.4 23.3-.3 6-1.1 9.7-2.5 12-1.1 1.7-3.7 4.7-9.2 4.7H879V122h42.3v5c0 15-.3 24.7-.9 29.5-1.3 10.1-7.9 11.2-10.7 11.2H879v69.8h49.3v5c0 10.9-.1 19-.4 24-.3 6.2-1.1 9.8-2.7 12-1.3 1.8-4 4-8.9 4h-86.5z" class="D"/><path d="M925.8 32.5l-.3 23.1c-.2 4.9-.8 8.1-1.8 9.6-.9 1.5-2.6 2.3-4.9 2.3H874V127h42.3c0 14.7-.3 24.3-.9 28.9-.6 4.5-2.5 6.8-5.8 6.8H874v79.8h49.3l-.3 23.8c-.2 4.9-.8 8-1.8 9.3-.9 1.3-2.6 1.9-4.9 1.9h-81.5v-238c1.4-4.7 3.7-7 7-7h84m10-10h-10-84c-3.7 0-12.8 1.4-16.6 14.1l-.4 1.4v1.5 238 10h10 81.5c7.5 0 11.3-3.8 13-6 2.2-3.1 3.3-7.3 3.7-14.7.2-5.1.4-13.3.4-24.3v-10h-10H884v-59.8h25.7c6.6 0 14.2-4.1 15.7-15.5.6-5.1 1-14.9 1-30.2v-10h-10H884V77.5h34.8c7.9 0 11.8-4.4 13.4-7 1.9-3.1 2.9-7.4 3.2-14.4.2-5.1.4-13 .4-23.6v-10h0z" class="E"/><path d="M1037.6 283.2c-4.4 0-9.1-.1-13.9-.4l-14.3-.7-4.8-.2v-4.8c0-10.5-.3-21-.9-31.2-.6-10-1.6-19.8-3.1-28.9-1.5-8.9-3.7-17.2-6.7-24.7-2.9-7.3-6.7-13.5-11.2-18.7-.6-.7-1.1-1.3-1.7-1.9v98.7c0 3.8-1.1 6.7-3.3 8.6-1.7 1.5-4.6 2.7-13.1 3-5.7.2-15 .4-28.6.4h-5v-243c0-3.9 1.2-6.9 3.6-8.8 1.8-1.5 4.7-2.5 12.9-2.8 5.6-.2 15.1-.4 28.4-.4h5v78.7l29.4-75.5 2.5-.6c4.9-1.2 9.8-2 14.5-2.4 4.5-.4 8.6-.5 11.9-.5 11.1 0 17.7 2.1 20.7 6.5 1.4 2 2.6 5.4.7 10.1l-38.6 92.2c12.2 12.4 21.4 29.9 27.4 52.1 6.3 23.2 9.4 50.8 9.4 82.2 0 6.1-3 9.1-5.4 10.6-1.8 1.1-5.3 2.4-15.8 2.4z" class="D"/><path d="M1039.3 32.2c13.8 0 19.4 3.3 16.8 9.8l-39.9 95.2c12.8 11.9 22.3 29.3 28.5 52.1 6.2 22.9 9.3 49.8 9.3 80.9 0 3-1 5.1-3 6.3s-6.5 1.8-13.5 1.8c-4.4 0-9-.1-13.6-.3l-14.4-.7c0-10.7-.3-21.2-.9-31.5s-1.6-20.1-3.1-29.4-3.9-17.9-7-25.7c-3.2-7.8-7.2-14.5-12.1-20.1-2.6-3-5.5-5.4-8.9-7.2-.5-.3-1.1-.5-1.6-.8v108c0 2.3-.5 4-1.6 4.9-1 .9-4.4 1.5-10 1.8-5.6.2-15.1.3-28.4.3v-238c0-2.3.6-4 1.8-4.9s4.5-1.5 10-1.8c5.5-.2 14.9-.3 28.2-.3v100.3l38.1-97.8c4.7-1.2 9.2-1.9 13.7-2.3s8.3-.6 11.6-.6m0-10c-3.5 0-7.7.2-12.3.6a93.73 93.73 0 0 0-15.3 2.5l-5 1.3-1.9 4.8L986 79.6V32.5v-10h-10l-28.6.4c-8.4.4-12.7 1.4-15.8 3.9-2.5 2-5.5 5.8-5.5 12.7v238 10h10l28.8-.4c8.7-.4 13.1-1.5 16.2-4.3 2.2-2 4.9-5.8 4.9-12.4v-83.3c1.2 2.2 2.3 4.6 3.3 7.1 2.9 7.1 5 15 6.4 23.6 1.5 8.9 2.5 18.5 3 28.4.6 10.1.9 20.5.9 30.9v9.5l9.5.5 14.3.7 14.2.4c9.4 0 14.8-.9 18.5-3.1 3-1.7 7.9-6 7.9-14.9 0-31.8-3.2-59.8-9.6-83.5-5.8-21.6-14.7-39-26.4-51.8l37.3-89.1v-.1-.1c2.8-7.2.4-12.3-1.2-14.8-5.2-7.6-16-8.6-24.8-8.6h0z" class="E"/><path d="M1193 283.2c-2.6 0-5.7-.1-9.6-.2l-13.4-.5-3.9-.2-11.5-55.5h-38.5l-9.3 45c-.7 3.5-2.5 6.4-5.3 8.4-2.1 1.5-5.6 2.9-17.5 2.9-2.6 0-6.3-.1-11.1-.4-4.8-.2-9.6-.6-14.3-1.1l-5.7-.6 59.8-243.1c1.9-9.3 12.2-11.3 20.6-11.3 3.3 0 6.8.1 10.3.4 3.6.2 6.7.6 9.2 1.1l3.1.6 59.2 241.2v.1c.9 4.5-.9 8.4-4.9 10.6-1.8 1.4-5.5 2.6-17.2 2.6zm-47.8-101.7l-5.5-26.6c-1.2-6.2-2.3-13.2-3.5-20.6-.3-1.7-.5-3.4-.8-5.1-.2 1.7-.5 3.3-.7 5-1.1 7.4-2.3 14.5-3.7 20.9l-5.5 26.5h19.7z" class="D"/><path d="M1133.5 31.8c3.3 0 6.6.1 10 .4 3.4.2 6.2.6 8.6 1l58.5 238c.5 2.3-.4 4.1-2.5 5.2-2.1 1.2-7.1 1.8-15 1.8-2.6 0-5.7-.1-9.5-.2l-13.3-.5-11.5-55.7h-46.6l-10.1 49c-.5 2.3-1.6 4.1-3.3 5.4-1.8 1.3-6.6 1.9-14.5 1.9-2.6 0-6.2-.1-10.8-.3-4.7-.2-9.3-.6-14-1.1L1118 39.1c.6-4.8 5.9-7.3 15.5-7.3m-14.1 154.7h32l-6.7-32.6c-1.2-6.3-2.3-13.1-3.5-20.5-1.2-7.3-2.2-15-3.1-22.9l-2.5-22.8c-.7 7.2-1.6 14.8-2.6 22.8l-3.2 22.9c-1 7.3-2.3 14.2-3.7 20.5l-6.7 32.6m14.1-164.7c-6.3 0-11.3.9-15.3 2.8-5.4 2.5-9 6.9-10.2 12.4l-58.4 237.4-2.8 11.2 11.5 1.2c4.7.5 9.6.8 14.5 1.1l11.4.4c10.9 0 16.6-1.1 20.4-3.9s6.3-6.7 7.2-11.5l8.5-41h30.3l9.9 47.7 1.6 7.6 7.8.3 13.4.5 9.8.2c10.3 0 16.1-.9 19.9-3 5.9-3.3 8.7-9.4 7.4-15.9v-.2l-.1-.2-58.5-238-1.5-6.2-6.2-1.2c-2.8-.6-6-1-9.8-1.2-3.8-.3-7.4-.5-10.8-.5h0zm-1.8 154.7l3.7-18 3.7 18h-7.4 0z" class="E"/><path d="M1288.2 282.5v-112h-23.6v100c0 3.7-1 6.5-2.9 8.4-1.7 1.7-4.5 2.9-13 3.2-5.6.2-14.9.4-28.4.4h-5v-243c0-3.7.9-6.5 2.9-8.4 1.7-1.7 4.5-2.8 12.9-3.2 5.6-.2 15.1-.4 28.4-.4h5v96.2h23.6V39.5c0-3.8 1.1-6.7 3.2-8.6 1.8-1.6 4.6-2.7 12.7-3 5.5-.2 15-.4 28.2-.4h5v243c0 3.7-1 6.5-2.9 8.4-1.7 1.7-4.5 2.9-13 3.2-5.6.2-14.9.4-28.4.4h-4.7z" class="D"/><path d="M1332.4 32.5v238c0 2.3-.5 4-1.4 4.9s-4.1 1.5-9.6 1.8c-5.5.2-14.9.3-28.2.3v-112h-33.6v105c0 2.3-.5 4-1.4 4.9s-4.1 1.5-9.6 1.8c-5.5.2-14.9.3-28.2.3v-238c0-2.3.5-4 1.4-4.9s4.1-1.5 9.6-1.8c5.5-.2 14.9-.3 28.2-.3v96.2h33.6V39.5c0-2.3.5-4 1.6-4.9s4.3-1.5 9.6-1.8l28-.3m10-10h-10l-28.4.4c-8.4.4-12.7 1.5-15.8 4.3-2.3 2-4.9 5.8-4.9 12.4v79.2h-13.6V32.5v-10h-10l-28.6.4c-7.7.3-12.8 1.2-16.3 4.7-2.9 2.9-4.3 6.9-4.3 12v238 10h10l28.6-.4c7.7-.3 12.8-1.2 16.3-4.7 2.9-2.9 4.3-6.9 4.3-12v-95h13.6v102 10h10l28.6-.4c7.7-.3 12.8-1.2 16.3-4.7 2.9-2.9 4.3-6.9 4.3-12v-238-9.9h-.1z" class="E"/><path d="M453.1 198.2l-7.6-156.1V42c0-6.9 3.3-10.4 6-12.1 3.2-2 8.9-3.2 17.9-3.7 8-.5 20.2-.7 36.3-.7h5.3l-9 149.7c-.3 7.1-2 12.2-5.1 15.7-3.2 3.5-8.2 5.6-14.9 6.3-5.7.6-13.6.9-24.2.9h-4.7z" class="D"/><path d="M505.8 30.4L497 175c-.2 5.8-1.5 10-3.9 12.6-2.3 2.6-6.2 4.1-11.7 4.7s-13.4.9-23.6.9L450.5 42c0-3.7 1.2-6.4 3.7-7.9 2.4-1.5 7.6-2.5 15.6-3 7.9-.4 19.9-.7 36-.7m10.6-10h-10.6c-16.2 0-28.5.2-36.6.7-10.1.6-16.2 1.9-20.2 4.5-3.2 2-8.4 6.7-8.4 16.4v.2.2l7.4 151.2.5 9.5h9.5c10.7 0 18.8-.3 24.7-.9 8-.8 14-3.5 18.1-7.9 4-4.4 6.1-10.5 6.4-18.8L515.8 31l.6-10.6h0zm618.7 94.7c2.1 23.8 6.5 47.2 12.2 70.5-.5.1-.9.2-1.2.2h-22.8c-.3 0-.6-.1-1-.1.2-.9.3-1.8.5-2.6l5.7-26c.9-4.1 1.5-8.1 2.1-12.2l2.1-14 1.7-13.4.3-2.3c.2 0 .3 0 .4-.1zm-359.2 97.7c-.7 4.5-1.8 8.3-3.1 11.4-1.3 3.2-2.9 5.6-4.8 7.3s-4 2.5-6.5 2.5h-6.2v-65h6.8c2.5 0 4.6.3 6.5 1s3.4 2 4.6 3.9c1.2 2 2.2 4.8 2.8 8.5s.9 8.7.9 15.1c.1 5.7-.3 10.8-1 15.3z" class="E"/><path d="M593.1 42.8c-4-4.3-9-7.7-15.2-10.2-6.2-2.4-13.5-3.7-21.9-3.7-6.5 0-13.4.6-20.7 1.8-7.2 1.2-13.3 2.9-18.2 5.1s-7.4 5.1-7.4 8.6c0 5.1.5 10.3 1.6 15.4 1 5.1 2.6 10.5 4.7 16.1 7.9-4.9 15.9-7.4 23.8-7.4 4.2 0 7.7.4 10.5 1.2s5.1 2 6.8 3.7c1.8 1.6 3 3.6 3.7 6 .7 2.3 1 5 1 8 0 5.1-.8 9.9-2.5 14.3-1.6 4.4-3.9 9-6.8 13.7l-10 15.7c-3.7 5.8-7.6 12.7-11.5 20.7-2.8 5.6-4.3 11.2-4.4 16.8s.3 10.7 1.4 15.4c1 4.7 2.9 9.9 5.4 15.8 3.7.5 8.1.7 13 .7s9.5-.4 13.8-1.2 7.2-2 8.6-3.7c1.6-2.1 1.9-5.1.7-8.9s-2.2-8.1-3.2-12.8c-.9-4.7-.3-9 1.8-13 3.5-6.3 7.3-12.2 11.4-17.7s8-11.3 11.9-17.3c3.8-6.1 7-13 9.4-20.8 2.5-7.8 3.7-17.2 3.7-28.2 0-6.8-.9-13.1-2.8-18.9-1.7-5.8-4.6-10.9-8.6-15.2zM382.4 30.5l-28.4.3c-5.6.2-9.1.8-10.5 1.8-1.4.9-2.5 2.6-3.1 4.9L332 76c-.9 4.2-1.9 9.3-3 15.4s-2 12.4-3 18.9l-2.5 18.5-1.8 14.7c-.2-4-.7-8.9-1.4-14.7l-2.5-18.5c-.9-6.5-1.9-12.8-3-18.7-1.1-6-2-11-3-15.2l-10.1-45.8-32.6.2c-6.5.1-10.4.6-11.5 1.4-1.2.8-1.8 2.5-1.1 4.6l44.1 138.4v100.4l28-.3c5.4-.2 8.6-.8 9.6-1.8 1.1-.9 1.6-2.6 1.6-4.9v-96l42.6-142.1z" class="D"/></svg>