<svg id="Layer_1" xmlns="http://www.w3.org/2000/svg" viewBox="0 0 1366 333"><style>.st0{fill:#050505}.st1{fill:#040b29}.st2{fill:#f34dc3}.st3{fill:#fff}</style><path class="st0" d="M465.6 317.7c-4.2-1-9.4-2.3-15.1-6.1-9.6-6.5-13.4-15.7-14.6-19-1.7-4.7-2.6-9.5-3-14.5-.5-5.6-.2-11.2 1.1-16.6 3.1-12.3 9.7-22.1 20.6-28.9.5-.3.9-.6 1.5-1.1-.9-.3 3.2-6.6 2.5-6.8-9.8-2.8-16.7-5.7-17-13-.2-4.7-.8-9.3-1-14-.4-8.5-1.6-16.5-2-25-.2-3.6.2-8.4 0-12-.4-8.8-.6-16.2-1-25-.2-4.3-.8-9.7-1-14-.4-8-.6-15-1-23-1-19.9-.5-19.9-1-26-.1-1 .1-4.1 0-9s-1.3-6.9-1-9c.3-2.1-.8-8.3 4-14.3 4-4.9 8.6-7.2 10.6-8.2 2.7-1.3 5.5-2 8.4-2.7 5.4-1.2 10.9-1.6 16.4-1.8 11.5-.5 23-.6 34.5-.6 3.8 0 7.3 1 10.5 2.8.6.3 1.1.6 1.6.9.4-.1.7-.2 1-.3 9.4-2.5 18.9-4 28.6-4.5.6 0 1.2-.3 1.8-.4h12c.7.1 1.4.4 2.1.4 2.8.1 5.6.5 8.3 1 9.6 1.6 18.5 5.1 26.5 10.5.5.3 1.1.7 1.6 1 .4-.3.7-.6.9-.9 5.5-5.8 12.3-8.5 20.2-8.5h82.8c2.5 0 5 .3 7.3 1.1.9.3 1.8.4 2.8.1 3.7-1 7.6-1.3 11.4-1.3h32.4c9 0 17.9.8 26.7 2.7 11 2.4 21.1 6.9 29.9 13.9.5.4 1 .8 1.5 1.1.8-.6 1-1.5 1.4-2.3 3.8-7.1 9.3-12.1 17.1-14.4 2.8-.8 5.6-1.1 8.5-1.1H926c3.1 0 6.1.3 8.9 1.5.9.4 1.7.4 2.6.2.6-.1 1.2-.3 1.9-.4 4.3-.7 8.6-.9 12.9-1 3 0 5.9-.1 8.9-.1 5.4-.1 10.9-.1 16.3-.1 1.6 0 3.2.2 4.8.6 6.2 1.5 10.8 5 13.8 10.6.3.6.7 1.2 1 1.8.2-.1.3-.1.4-.1l.5-.5c3.4-5.2 8.1-8.2 14.1-9.5 8.6-2 17.3-2.9 26.2-3 5.4-.1 10.9 0 16.2 1.1 4.8 1 9.5 2.5 13.5 5.4 8.6 6.2 12.4 14.6 11.1 25.1-.3 2.9-1.2 5.6-2.4 8.3-11 26.3-22.1 52.6-33.1 78.9-.4.9-.8 1.9-1.1 2.8.4.6.7 1 1.1 1.5 5.1 6.6 9.3 13.8 12.9 21.3 2.8 5.8 5.1 11.7 7.1 17.8.1.4.1 1 .8.9.1-.2.1-.4.2-.7 2.5-10 4.9-20 7.4-30l13.2-53.7 13.8-55.8c2.1-8.6 7.3-14.8 15.1-18.9 5.4-2.8 11.1-4 17.1-4.2 8.4-.3 16.8 0 25.1 1.4 9.3 1.6 15.4 6.9 17.8 16.2 1.9 7.5 3.7 15 5.6 22.5 6.8 27.5 13.5 55 20.3 82.6.1.6.2 1.2.8 1.9.3-1.2.2-2.1.2-3V73.1 58.5c0-3 .2-6.1 1-9 2.2-8.3 7-14.2 15.1-17.3 1.9-.7 4-1.2 6-1.6 4.3-.8 8.6-1 12.9-1 3 0 5.9-.1 8.9-.1 5.4-.1 10.9-.2 16.3-.1 7.3.1 13.1 3.1 17.4 9.1.3.4.6.7.9 1.2.4-.4.8-.7 1.1-1 3.7-4 8.3-6.4 13.6-7.6 3.8-.8 7.7-1.2 11.7-1.3 7.3-.2 14.6-.3 21.8-.4 3.1 0 6.2-.2 9.3.3 8.3 1.1 15.1 7.1 17.2 15.3.1.2.2.4.4.6v248.8c-.1.3-.4.6-.4.9-.5 3.6-2 6.7-4.1 9.6-3.7 5.3-9 8.3-15.2 9.7-4.2 1-8.6 1.2-12.9 1.3-8.8.2-17.6.2-26.4.3-1.7 0-3.4-.1-5-.4-5.3-1.1-9.6-3.9-12.8-8.2l-1.2-1.5c-.3.3-.5.4-.7.6-3.8 4.4-8.7 6.9-14.4 8.1-4.3.9-8.7 1.2-13.1 1.3-8.5.2-17 .2-25.4.3-2.6 0-5.1-.2-7.6-1-.7-.2-1.4-.2-2.1-.1-5 1.4-10.1 1.7-15.2 1.8-9.5.2-19-.3-28.5-.8-3.3-.2-6.2-1.3-9-3.1-5.3-3.4-8.3-8.2-9.5-14.3-2.4-11.9-4.9-23.8-7.3-35.7-.2-.8-.2-1.6-.8-2.2-2.6-.3-10.2-.2-12.1.1-.2.8-.4 1.6-.6 2.5-2.1 9.9-4.1 19.8-6.2 29.8-2 9.7-9.5 20.9-24.9 22.9-5.6.7-11.2 1-16.8.8-8.4-.3-16.8-.6-25.1-1.7-.6-.1-1.3.1-1.9.2-2.1.3-4.2.8-6.4 1-4.9.5-9.7.6-14.6.4-7.8-.3-15.7-.6-23.5-1-1.5-.1-3-.3-4.5-.6-4.9-1.1-8.9-3.8-12-7.8-.4-.5-.9-1.1-1.4-1.7-.4.3-.6.5-.8.7-4 4.5-9 7-14.8 8.2-4.3.9-8.7 1.1-13.1 1.2-7.9.2-15.8.2-23.8.3-3.8 0-7.5-.1-11.1-1.6-.6-.2-1.1-.2-1.6 0-4.1 1.5-8.3 1.6-12.5 1.6h-76.6c-1.3 0-2.6 0-3.8-.1-3.2-.1-6.1-1-8.9-2.6-5.3-3-8.6-7.5-10.1-13.4-.1-.5 0-1.2-.9-1.4-.6.4-1.2.9-1.8 1.4-9.9 7.5-21 12.3-33.3 14.6-6.1 1.1-12.2 1.5-18.4 1.5h-44.6c-2.9 0-5.8-.3-8.5-1.4-.8-.3-1.5-.4-2.3-.1-3.4 1.2-6.9 1.5-10.4 1.5H616c-1.6 0-3.2 0-4.8-.3-10.8-2-17.2-11.3-17.2-20.2 0-.5.2-1.1-.2-1.5h-.2c-.3.5-.7 1.1-1 1.6-6.6 11.7-16.4 19.3-29.7 21.9-8.9 1.7-17.8 1.3-26.6-.9-8.5-2.2-15.6-6.6-20.8-13.7-.2-.3-.5-.6-.9-.9-.6.6-1 1.1-1.5 1.7-5.5 6.5-12.4 10.9-20.6 13.3-2.4.7-4.5 1.5-7.1 1.9-.2 0-1.7.3-3.6.4-8.1 0-16.2-1.9-16.2-1.9zm323.7-156.5c.1-.3.2-.4.2-.4.3-.1.6-.3.9-.4 3-.8 5.8-2.3 8.4-4 4-2.8 7.3-6.2 10-10.2 3.8-5.7 6.5-11.9 8.2-18.5 1.9-7.4 2.5-14.9 2.5-22.6 0-6.5-.5-12.9-2-19.2-2.1-8.3-6-15.6-12.2-21.6-5-4.9-11-8.1-17.7-10.3-7.9-2.6-16.1-3.5-24.3-3.7-7-.2-14.1-.1-21.1-.1h-15.8c-1.7 0-3.5.2-5.2.5-3 .6-4.7 2.6-4.9 5.7-.1.9 0 1.8 0 2.6v234.4c0 .5.1.9.2 1.5.9 0 1.7.1 2.5.1h42.5c5.1 0 10.2-.4 15.3-1.3 7.8-1.4 15-4.3 21.6-8.8 6.8-4.6 12.1-10.6 16.4-17.6 5.4-8.8 8.7-18.5 10.6-28.6 1.1-5.7 1.7-11.4 2.1-17.1.5-8 .5-16-.7-23.9-1-6.6-3.1-12.7-6.5-18.4-4.5-7.3-10.8-12.3-18.9-15.2-3.9-1.3-7.9-2.2-12.1-2.9zm148.6 133.7c1.1 0 1.9.1 2.7.1 5.4 0 10.9-.1 16.3-.2 3.3 0 6.6-.1 9.8-.2 2.6-.1 5.1-.3 7.6-.9 1.7-.4 2.8-1.4 3.2-3.2.1-.7.3-1.4.3-2.1.1-.8 0-1.6 0-2.4V183.4v-3c.6.2 1.1.3 1.5.5 3.2 1.6 5.9 3.8 8.3 6.4 2.8 3.2 5.3 6.6 7.5 10.2 4.8 8.1 7.8 16.8 10 25.8 2.6 10.7 3.9 21.7 4.8 32.7.6 7.5.8 15 1.1 22.5.2 4.7.2 9.4.3 14.1 0 .6.1 1.2.2 1.9.8.1 1.4.1 2 .1 4.7.3 9.4.6 14.1.7 5.6.1 11.2.2 16.8.1 2.1 0 4.3-.4 6.4-.9 3-.7 4.4-2.4 4.8-5.5.1-.8.1-1.6.1-2.4 0-2.1-.1-4.2-.1-6.2-.1-11.3-.8-22.7-2-34-1.1-10.3-2.7-20.4-4.9-30.5-2.3-10.3-5.3-20.4-9.5-30.1-5-11.4-11.4-21.8-20.4-30.4-.3-.3-.5-.6-.8-.9.3-.7.5-1.3.8-1.8l38.4-91.5c.3-.7.6-1.5.9-2.2 1-3.1.1-5.3-2.7-6.9-1.4-.8-2.9-1.2-4.5-1.6-2.6-.6-5.2-.7-7.9-.8-6.9-.1-13.8.3-20.6 1.4-2.3.4-4.6.6-6.7 1.6-.3.8-.6 1.5-.9 2.3-8.5 21.9-17.1 43.7-25.6 65.6-3.5 8.9-7 17.8-10.5 26.8-.2.5-.2 1.1-.9 1.2 0-.1-.1-.2-.1-.3V51.7c0-.3 0-.6-.1-1v-.2c0-.1-.1-.1-.4-.3-.3 0-.9-.1-1.4-.1-9.5 0-19 0-28.5.5-2 .1-4 .5-5.9.8-2.2.4-3.3 1.9-3.5 4-.1 1.2-.1 2.4-.1 3.6v232.5c.1 1.1.1 2.1.1 3.4zm357.3-.1c.7.1 1.3.2 1.9.2 2.2 0 4.3 0 6.5-.1 6.7-.1 13.4-.2 20.1-.4 2.3-.1 4.6-.5 6.9-.8 2.1-.3 3.2-1.7 3.4-3.7.1-1.2.1-2.4.1-3.6v-233-1.9c0-.4-.2-.9-.2-1.3-.5 0-.8-.1-1.1-.1-9.8 0-19.5 0-29.3.5-1.7.1-3.5.5-5.2.8-2 .4-3 1.7-3.2 3.7-.2 1.2-.2 2.4-.2 3.6V144.8c0 .5-.2.9-.3 1.5-1 0-1.8.1-2.7.1h-28.8c-.5 0-1-.2-1.7-.3v-3-88.9-2.4c0-.5-.1-.9-.2-1.5-.9 0-1.7-.1-2.5-.1h-11.8c-5.4.1-10.9.2-16.3.5-1.9.1-3.8.5-5.7.9-1.3.2-2.1 1.1-2.4 2.4-.2.8-.4 1.6-.4 2.3-.1 1.1-.1 2.2-.1 3.4v233.9c0 .4.2.9.3 1.4.9 0 1.7.1 2.5.1 2.4 0 4.8 0 7.2-.1 6.3-.1 12.6-.2 18.9-.4 2.3-.1 4.6-.5 6.9-.8 1.9-.3 3-1.5 3.2-3.3.2-1.3.3-2.7.3-4v-89.4-11.3c0-.8.1-1.6.1-2.4.6-.1 1.1-.2 1.5-.2h30.2c.5 0 .9.1 1.4.2.4 1.1.2 2.2.2 3.2V293.7c.3.3.4.6.5 1.1zm-123.2 0c.7.1 1.2.2 1.8.3 5.8.2 11.5.4 17.3.5 4.7.1 9.4.2 14.1-.5 1.5-.2 3-.5 4.4-1.1 2.4-1 3.3-2.9 2.8-5.4-.1-.5-.2-1.1-.4-1.6-3.9-16-7.9-32.1-11.8-48.1-7.4-30.2-14.8-60.3-22.2-90.5-7.5-30.5-15-61.1-22.5-91.6-.5-1.9-1-3.8-1.5-5.8-.6-.1-1-.3-1.5-.4-1.8-.2-3.6-.5-5.5-.6-5.3-.5-10.5-.6-15.8-.3-2.2.1-4.4.6-6.5 1.5-2.8 1.1-4.5 3.1-5.2 6.1-7.3 29.8-14.7 59.7-22 89.5-8.1 32.9-16.2 65.7-24.3 98.6-3.8 15.6-7.7 31.2-11.5 46.7-.2.7-.4 1.4-.2 2.2 1.1.1 2.2.3 3.3.4 3.5.2 7 .4 10.5.7 5.4.4 10.7.4 16.1.2 2.1-.1 4.3-.4 6.4-.8 3.2-.5 5-2.6 5.9-5.6.2-.5.3-1.1.4-1.6 1.2-5.6 2.3-11.3 3.5-16.9 2.1-9.9 4.1-19.9 6.2-29.8.1-.4.3-.9.4-1.4h43.8c.9 0 1.8-.2 2.7.3 3.6 18.2 7.4 36.6 11.3 55zm-295.9-34.9c-.2-.5-.3-.8-.3-1v-77.7c0-.2.1-.4.2-.7.8-.4 1.7-.2 2.6-.2h32.7c3.2 0 4.6-1.8 5.4-3.9.3-1 .6-2 .7-3 .2-1.6.4-3.2.4-4.8.2-7.4.3-14.9.5-22.3 0-.5-.1-1.1-.2-1.7h-41.7c-.7-1-.4-1.9-.4-2.7V88v-1.2c.1-.5.2-.9.3-1.5H920.7c3.5-.1 5.1-1.4 5.9-4.8.1-.2.1-.5.1-.7.3-2.5.7-5.1.8-7.6.2-6.6.2-13.3.3-19.9 0-.6-.1-1.2-.2-1.9-1-.3-2-.2-2.9-.2h-80.4c-2.8-.1-4.7 1.2-6.1 3.5-1.1 1.8-1.5 3.8-1.5 5.9V293.5c0 .5.1.9.2 1.4.4.1.8.1 1.1.1h78.2c1.3 0 2.6-.1 3.8-.2 2.1-.3 3.5-1.5 4-3.6.3-1.5.6-3 .7-4.5.7-8.4.4-16.8.5-25.1 0-.5-.1-.9-.2-1.6-16.3-.1-32.5-.1-48.9-.1zM654.8 85.2H699.4c3.5-.1 5.1-1.4 5.9-4.8.1-.2.1-.5.1-.7.3-2.5.7-5.1.8-7.6.2-6.8.2-13.6.2-20.4 0-.5-.1-.9-.2-1.5-1.1 0-2-.1-3-.1H622.9c-2.7-.1-4.6 1.2-5.9 3.4-1.2 1.9-1.6 3.9-1.6 6.2v233.9c0 .4.2.9.3 1.4.9 0 1.7.1 2.5.1H695c1.3 0 2.6-.1 3.8-.3 2-.3 3.4-1.4 3.8-3.4.4-1.5.7-3.1.8-4.7.7-8.4.4-16.8.6-25.1 0-.5-.1-.9-.2-1.5-1 0-2-.1-2.9-.1h-44.7c-.5 0-.9-.1-1.4-.2-.3-1-.2-2-.2-2.9v-73.1-1.7c0-.5.1-.9.2-1.4 1-.4 1.8-.3 2.7-.3h32.9c2.5 0 4.1-1.3 4.9-3.5.5-1.3.8-2.8.9-4.2.3-3.3.4-6.7.5-10 .2-5.3.2-10.5.3-15.8 0-.7.2-1.4-.5-2.2H655c-.2-.4-.3-.6-.3-.8V86.6c-.2-.5 0-.8.1-1.4zm-137 8.2c.8-.4 1.5-.8 2.2-1.1 8.5-4.8 17.6-6.9 27.4-5.7 3 .4 5.8 1 8.5 2.5 3.2 1.8 5.5 4.4 6.6 7.9.3 1 .5 2 .7 3 1 6.8.2 13.4-2.2 19.8-1.7 4.7-4 9-6.7 13.2-3.4 5.3-6.7 10.7-10.1 16-4.3 6.7-8.1 13.8-11.7 20.9-2 4-3.4 8.3-3.8 12.8-.5 5.6-.3 11.2.7 16.7 1.1 5.8 3.1 11.4 5.4 16.8.2.4.4.7.6 1 .4.1.8.1 1.2.2 4.8.6 9.6.5 14.4.5 3.6 0 7.2-.5 10.7-1.1 2.1-.4 4.2-.9 6.2-1.8 3.2-1.5 4.6-3.9 4.2-7.3-.1-1.3-.5-2.7-.8-4-1-4-2-7.9-2.9-11.9-1.2-5.2-.4-10.1 2.3-14.7 3.4-5.8 7-11.4 11-16.8 4.1-5.4 7.9-11 11.5-16.8 5.1-8 8.7-16.7 10.8-26 1.9-8.4 2.5-16.9 2.3-25.5-.1-5.2-.9-10.3-2.4-15.3-3.7-12.4-11.5-21.2-23.5-26.1-5.9-2.4-12.1-3.6-18.4-3.9-10-.4-19.8.5-29.6 2.5-4.6.9-9.2 2.2-13.5 4.2-1.5.7-3 1.6-4.3 2.6-2.2 1.7-3.4 4-3.2 6.8.2 2.7.2 5.4.5 8.1.8 7.2 2.7 14.1 5.2 20.9.2.5.4 1 .7 1.6zM507.5 48h-2.7c-2.7 0-5.4.1-8.2.1-8.4 0-16.8.1-25.2.6-3 .2-6.1.5-9.1 1-1.8.3-3.6.8-5.3 1.4-2.3.9-3.8 2.6-4.4 5-.3 1.1-.4 2.2-.5 3.3-.1 1.1 0 2.2.1 3.4.4 7.8.8 15.6 1.2 23.5.5 9.9 1 19.8 1.4 29.7.5 9.8 1 19.6 1.4 29.4.5 9.9 1 19.8 1.4 29.7.5 11.2 1.1 22.3 1.6 33.5 0 .6.1 1.2.2 2 .6.1 1 .2 1.5.2h4.6c6.1-.1 12.2-.3 18.2-.9 2.5-.3 4.9-.8 7.2-1.9 3-1.3 5.1-3.6 6.2-6.6.8-2.2 1.3-4.5 1.4-6.8.5-7.7 1-15.5 1.4-23.2.4-6.6.7-13.2 1.2-19.9.6-9 1.1-18 1.7-27 .6-9.3 1.1-18.7 1.6-28 .2-3 .4-5.9.5-8.9.4-6.8.8-13.6 1.3-20.3.3-4.3.5-8.6.8-12.9.4-2.1.6-4 .5-6.4zm46 198.9c-1.6.1-3.2.1-4.8.3-5.9.7-10.9 3.1-14.6 7.7-2.8 3.5-4.8 7.3-5.7 11.7-.9 4.2-.7 8.4-.1 12.6.3 2.3.9 4.5 1.8 6.7 2.2 5.3 6 8.7 11.6 10.2 5.5 1.4 11 1.7 16.6.8 4.4-.7 8.4-2.5 11.7-5.7 3.7-3.6 6.1-8 7.1-13.1 1.1-5.8.7-11.6-1.1-17.3-.7-2.1-1.7-4.1-2.9-6-1.5-2.3-3.5-4.1-6.1-5.3-1.4-.6-2.8-1.1-4.3-1.5-2.9-.8-6-1-9.2-1.1zm-75 50.8c.9 0 2.5-.1 4.2-.2 4.9-.6 9.3-2.3 12.9-5.7 3.6-3.4 5.9-7.5 7.1-12.3 1.1-4.5.9-9 .2-13.5-.4-2.8-1.3-5.4-2.5-8-2.3-4.9-6.1-8.1-11.4-9.5-5.2-1.4-10.6-1.7-15.9-.8-4.2.7-8 2.3-11.1 5.2-4.3 4-6.9 8.9-8 14.7-.8 4.6-.6 9.2.4 13.8.5 2.4 1.3 4.6 2.4 6.7 1.9 3.5 4.6 6.1 8.4 7.5l2.7.9c3.2.9 6.5 1.1 10.6 1.2zm418.1-104c-.4 1 .1 9.5.1 10.4V237.4c0 .5.2 1 .3 1.5.4.1.6.1.9.1h17.7c.4 0 3.7-.2 4-.3.2-1.7 2.2-34 2-37 0-.3-1.9-6.7-2-7-6.5.6-16.3-1.4-23-1zM695 238.8c.1-.4 2.6-.9 2.6-1.2 0-12.1 1-23.9 1-36 0-.2-.9-7.8-1-8h-10c-3.4 0-7.6 1-11 1-.5 0-.5 6.7-1.2 6.8v35.3c0 .7-.2 1.4.4 2 1.9.2 13.1.3 18 .2.4 0 .8 0 1.2-.1zm201.8-115.5c.6.1.9.2 1.2.2h17.7c.4 0 4.7.2 5 .1.1-.3-3.8-.8-3.8-1 0-5.2 5.8-9.8 5.8-15 0-.3-2.9-7.7-3-8-.6 0-4.5-1-5-1-5.9 0-13.1 1-19 1-.1 0 1.6 6.6 1.5 6.7-.1 0-.1.1-.4.4v16.6zm-198.2-16.6c-.5 0-1.7-7-2-7-5.7 0-14.3-9.5-20 0-.4 0-.6 6.7-1 6.8-.1.3-.1.5-.1.6v15.5c0 .3.2.6.3.8.3.1.4.1.6.1h18c.3 0 2.1.2 2.3.1.2-2.9 2.3-15 1.9-16.9zm-175.7 35.7c.1.1.2.1.4.2.2-.3.5-.6.7-.9 4.1-6.4 8.1-12.8 12.2-19.2 1-1.6 2-3.3 2.9-5 1-2 1.8-4.1 2.7-6.1.5-1.2 5.1-6.3 5-7.7-1.1-.4-4-3.1-5-3-2.3.3-6.9.9-9 2-2.6 1.3-5.3 1.5-8 3-.7 9.5-1.3 27.1-1.9 36.7zm73.7 26.3c-1.8 2.4-8.6 14.9-10 17-.7 1.1 2.2 2.6 2.5 3.8.8 3 1.5 6 2.4 9 1.1 3.7-.7 6.3-.9 10.2-.4 9-2.6 11.7-10 17-.5.4-.4 3.5-1 4 .7.5 1.4 3.9 2 4.3 3.1 2.2 5.8 4.8 7.9 7.9 1.4 2 2.6 4.2 3.9 6.3.2.3 3.7.5 4.3.4.2-3.3-.8-77.7-1.1-79.9zm-83 43c-.5.4-4.7 3.7-5 4-1.3 1.3-6.6 2.8-8 4-3 2.6-3.3 4.6-7 6-.4.1 3 2.7 2.6 3 2.1.9 4 1.6 5.9 2.5 1.8.9 3.7 2 5.3 3.2 1.7 1.3 3.3 2.7 4.9 4.2 1.4 1.5 2.7 3.1 4.1 4.8 1.3-1.5 2.4-2.9 3.7-4.2 1.3-1.3 8.2-7.2 9.6-8.6-.4-.3-3.6-.7-4-1-3.3-2.3-3.4-1.3-5-5-.8-2-2.2-3-3-5-.3-.6-3.7-7.1-4.1-7.9z"/><path class="st0" d="M756.2 260.9v-79.6c0-.5.1-.9.1-1.5.6-.1 1-.1 1.5-.1h7c1.9 0 3.6.4 5.4.9 2.2.6 3.9 1.9 5.2 3.6 1.3 1.7 2.2 3.7 2.8 5.8 1.1 3.5 1.6 7.2 1.9 10.8.7 9.2.8 18.3 0 27.5-.5 5.7-1.3 11.3-3 16.7-.7 2.4-1.7 4.8-2.7 7.1-.8 1.9-2 3.6-3.4 5.2-2.1 2.4-4.8 3.7-8 3.7-2.2 0-4.3 0-6.8-.1zm.3-114.4c-.3-2.7-.3-59.6 0-61.8.4-.1.8-.2 1.3-.2h6.5c3.9.1 6.7 1.9 8.4 5.3 1.4 2.8 2.2 5.8 2.6 8.9 1.2 9.3 1.2 18.6 0 27.9-.5 3.7-1.3 7.4-2.7 10.9-.7 1.9-1.6 3.6-2.9 5.2-1.9 2.4-4.2 3.8-7.4 3.7-1.9.1-3.8.1-5.8.1zm396.5 57.2c-2 .3-28.9.3-31.4.1 0-.4-.1-.9 0-1.3 2.4-11.6 4.9-23.3 7.2-34.9 1.2-6.2 2.2-12.4 3.2-18.7 1-6.4 1.8-12.8 2.7-19.2.8-6 1.5-12 2.2-18.1.1-1.1.2-2.2.7-3.7.5 4.5.9 8.6 1.4 12.6.4 4 .9 7.9 1.4 11.9.5 4 1.1 8.1 1.7 12.1.6 3.9 1.2 7.9 1.9 11.8.7 4 1.3 8 2.1 12 .7 3.9 1.6 7.8 2.4 11.7.8 4 1.6 8 2.5 12 .5 3.9 1.4 7.8 2 11.7zM316.9 317.2H302c-.3-.1-.7-.2-1-.3-3.8-.6-7.3-1.9-10.3-4.3-5.4-4.3-8.1-9.9-8.1-16.7 0-31.9 3.1-63.4 3-95.3 0-.7-.8-10.3-1-11-5.3-16.9-7.7-27.1-13-44-.1-.3-5.9-11.7-6-12-.2.5.1 13.9.1 14.3 0 8.6-3.5 15.1-4.1 23.7-.2 3-2.2 7.1-3 10-3.9 13.7-10.1 9.3-21 9-4.2-.1-8.6 2-12.8 2-.4 0-.9 9.6-1.3 9.6-.3 1.4-.2 36.8.1 37.8H250.7c1.6 0 3.1.1 4.7.3 10 1.6 17.4 10.4 17.4 20.5 0 7.6-.1 15.3-.3 22.9-.1 4.3-.4 8.6-1.4 12.7-2.8 11-9.6 17.8-20.8 20l-3.6.6h-85l-.9-.3c-2.1-.3-4.1-.8-6-1.7-.7-.3-1.3-.3-2-.1-2.8.8-5.7 1.2-8.6 1.3-5.1.2-10.3.4-15.4.5-1.2 0-2.4.1-3.6.2h-15.1c-.6-.1-1.2-.3-1.8-.4-6-1.1-10.6-4.1-14.1-9.1-.2-.3-.4-.6-.7-.9-.3.3-.5.6-.8.8-2.5 2.9-5.5 5-9 6.4-3.8 1.6-7.8 2.3-11.9 2.5-5.3.3-10.5.4-15.8.6-1.2 0-2.4.1-3.6.2H37.3c-.7-.2-1.3-.3-2-.4-9-1.5-15.9-8.6-17.3-17.6-.1-.5-.3-1.1-.4-1.6V56.1c.1-.6.3-1.2.4-1.9.3-1.5.4-2.9.8-4.4 1.9-7 5.8-12.4 12.3-15.8 3.6-1.9 7.5-2.8 11.5-3.2 4-.3 8.1-.6 12.1-.7 7.5-.1 15-.1 22.6-.2 1.2 0 2.4 0 3.6.2 6.3 1 11.3 4.1 14.8 9.4.2.3.3.5.5.7h.2c.2-.3.5-.5.7-.8 2.9-3.3 6.4-5.6 10.6-7 3.3-1.1 6.7-1.7 10.1-1.9 4.9-.3 9.7-.4 14.6-.5 5.6-.1 11.2-.1 16.8-.1 3.5 0 6.9.3 10.1 1.8.4.2.8.2 1.3 0 3.4-1.3 6.9-1.8 10.5-1.8h82.3c1.5 0 3.1 0 4.5.4 2.2.6 4.3.3 6.5.1.7-.1 1.4-.1 2.2-.1l17.3-.3c6-.1 11.9-.1 17.9-.1 1.9 0 3.9-.1 5.7.2 8.8 1.5 14.6 6.5 17.4 15.1.1.3.2.6.4 1 .3-.5.5-.8.7-1.1 3.9-6.8 9.6-11.3 17.2-13.2 3.9-1 8-1.5 12-1.5 9.9-.2 19.8-.3 29.6-.4 4.2-.1 8.1.9 11.6 3.2 4.8 3.1 7.9 7.4 9.2 12.9.2.6.3 1.3.4 1.9 0 1.9-3.3 2.4-3.3 4.4-.1.2 0 1.8 0 2-.2.9.2 2.2 0 3-1.7 5.8-4.3 11.2-6 17-12 40.1-23 76.9-35 117-.2.8 1 6.1 1 7 0 30.3 2 56.7 2 87 0 2.6-1 8-1.6 10.6-2.2 9-7.5 15.2-16.3 18.3-3.4 1.2-7 1.8-10.6 1.9-5.1.3-10.3.4-15.5.6-1.3.3-2.5.3-3.8.4zM78.1 51.1H64.2c-5.7.1-11.4.2-17 .5-1.8.1-3.6.4-5.3.8-1.5.3-2.4 1.3-2.7 2.7-.2 1.2-.4 2.5-.4 3.7V295c0 .3.1.6.1.9.3 0 .5.1.7.1l26.6-.3c2.8 0 5.6-.3 8.3-.8 2-.4 3-1.6 3.3-3.6.1-1.1.2-2.1.2-3.2V186v-1.1c0-.3.1-.5.1-.8 2.7-.3 32.5-.1 33.5.2V296c.4 0 .8.1 1.2.1 6.3 0 12.6-.1 18.8-.1 3.5 0 7-.1 10.4-.4 1.9-.1 3.7-.4 5.6-.8 1.6-.3 2.6-1.4 2.9-3 .2-1.1.3-2.1.3-3.2V52.8v-.7c0-.3-.1-.6-.1-.9h-.9c-5.2 0-10.5 0-15.7.1-4.6.1-9.1.2-13.7.4-1.8.1-3.6.4-5.3.7-1.8.3-2.9 1.5-3.2 3.3-.2.9-.2 1.9-.2 2.9v88.8H78.2c-.1-32.1-.1-64.1-.1-96.3zm173.6 210h-49.2v-79.7H238.4c2-.1 3.5-1 4.3-2.8.5-1 .9-2 1-3.1.3-2.4.6-4.8.7-7.3.2-7.1.3-14.2.4-21.3 0-.4 0-.8-.1-1.3h-42.2V86.2h45.2c2.8-.1 4.5-1.3 5.2-4.1.5-2 .9-4 .9-6 .2-8 .3-16 .5-24 0-.3-.1-.6-.1-1h-83.8c-2.1 0-3.7.8-4.9 2.5-1.4 1.9-2.2 3.9-2.2 6.3v235.2c0 .3.1.6.1 1H245.9c2.7-.3 4.2-1.4 4.8-4.1.4-2 .8-4 .8-6 .2-7.9.3-15.8.4-23.7-.1-.4-.1-.7-.2-1.2zm73-98.8h-.2c0-.2-.1-.3-.1-.5-.8-6.9-1.4-13.8-2.3-20.7-.9-7-1.9-13.9-3-20.9-1.2-7.2-2.5-14.5-4-21.7-2.9-13.7-6-27.3-9-41-.5-2.1-1-4.3-1.5-6.5h-1.5c-9.6 0-19.3.1-28.9.2-3 0-5.9.2-8.9.4-1.3.1-2.5.3-3.8.6-1.7.4-2.4 1.6-2.2 3.3.1.7.3 1.3.5 2 14.3 45.4 28.7 90.9 43 136.3.4 1.2.6 2.5.6 3.8V296c.5 0 .8.1 1.2.1 6.3 0 12.6-.1 18.8-.1 3.5 0 7-.2 10.4-.4 1.7-.1 3.5-.4 5.2-.7 2.1-.4 3.1-1.8 3.4-3.8.1-1 .2-2 .2-3v-93.7c0-.8.1-1.6.3-2.4 10.4-35 20.9-70 31.3-104.9 3.4-11.6 6.9-23.1 10.3-34.7.1-.4.2-.8.3-1.3h-13.5c-5.9.1-11.8.2-17.7.5-2 .1-4 .5-5.9.9-1.6.3-2.7 1.3-3.6 2.6-.8 1.2-1.2 2.6-1.5 4-2.1 9.7-4.3 19.4-6.3 29.2-1.5 6.8-3 13.7-4.2 20.5-1.5 8.2-2.7 16.5-3.9 24.7-1.1 8-2.1 16.1-3.1 24.1 0 1.7-.2 3.2-.4 4.7zm-63.4-29.5c.1-.1.2-.2.3-.2-2.7-8.7-.2-23.2-3-31.9-3.3.7-11.8-4-15-4-6.2 0-13.8 3-20 3-.5 0 .3 7.5-.1 7.5-.3 2.1-.2 16.5.1 17.4h3.1c6.2 0 12.3-.1 18.5 0 6.2.1 11.4 2.6 15.6 7.4.2.2.3.5.5.8z"/><g><path class="st1" d="M317.7 310.3h-14.9c-.3-.1-.7-.2-1-.3-3.8-.6-7.3-1.9-10.3-4.3-5.4-4.3-8.1-9.9-8.1-16.7v-95.6c0-.7 0-1.5-.3-2.1-5.3-16.9-10.7-33.8-16-50.7-.1-.3-.2-.6-.3-.8-.2.5-.2.9-.2 1.3 0 8.6-.1 17.1-.7 25.6-.2 3-.6 6-1.4 8.9-3.9 13.7-15.3 20.1-26.2 19.8-4.2-.1-8.4 0-12.6 0h-1.3c-.3 1.4-.2 36.8.1 37.8H251.6c1.6 0 3.1.1 4.7.3 10 1.6 17.4 10.4 17.4 20.5 0 7.6-.1 15.3-.3 22.9-.1 4.3-.4 8.6-1.4 12.7-2.8 11-9.6 17.8-20.8 20l-3.6.6h-85l-.9-.3c-2.1-.3-4.1-.8-6-1.7-.7-.3-1.3-.3-2-.1-2.8.8-5.7 1.2-8.6 1.3-5.1.2-10.3.4-15.4.5-1.2 0-2.4.1-3.6.2H111c-.6-.1-1.2-.3-1.8-.4-6-1.1-10.6-4.1-14.1-9.1-.2-.3-.4-.6-.7-.9-.3.3-.5.6-.8.8-2.5 2.9-5.5 5-9 6.4-3.8 1.6-7.8 2.3-11.9 2.5-5.3.3-10.5.4-15.8.6-1.2 0-2.4.1-3.6.2H38.2c-.7-.2-1.3-.3-2-.4-9-1.5-15.9-8.6-17.3-17.6-.1-.5-.3-1.1-.4-1.6V49.3c.1-.6.3-1.2.4-1.9.3-1.5.4-2.9.8-4.4 1.9-7 5.8-12.4 12.3-15.8 3.6-1.9 7.5-2.8 11.5-3.2 4-.3 8.1-.6 12.1-.7 7.5-.1 15-.1 22.6-.2 1.2 0 2.4 0 3.6.2 6.3 1 11.3 4.1 14.8 9.4.2.3.3.5.5.7h.2c.2-.3.5-.5.7-.8 2.9-3.3 6.4-5.6 10.6-7 3.3-1.1 6.7-1.7 10.1-1.9 4.9-.3 9.7-.4 14.6-.5 5.6-.1 11.2-.1 16.8-.1 3.5 0 6.9.3 10.1 1.8.4.2.8.2 1.3 0 3.4-1.3 6.9-1.8 10.5-1.8h82.3c1.5 0 3.1 0 4.5.4 2.2.6 4.3.3 6.5.1.7-.1 1.4-.1 2.2-.1l17.3-.3c6-.1 11.9-.1 17.9-.1 1.9 0 3.9-.1 5.7.2 8.8 1.5 14.6 6.5 17.4 15.1.1.3.2.6.4 1 .3-.5.5-.8.7-1.1 3.9-6.8 9.6-11.3 17.2-13.2 3.9-1 8-1.5 12-1.5 9.9-.2 19.8-.3 29.6-.4 4.2-.1 8.1.9 11.6 3.2 4.8 3.1 7.9 7.4 9.2 12.9.2.6.3 1.3.4 1.9V47c-.1.2-.2.4-.2.7-.2.9-.3 1.7-.5 2.6-1.7 5.8-3.5 11.6-5.2 17.3-12 40.1-23.9 80.3-35.9 120.4-.2.8-.4 1.7-.4 2.6v90.9c0 2.6-.1 5.2-.8 7.7-2.2 9-7.5 15.2-16.3 18.3-3.4 1.2-7 1.8-10.6 1.9-5.1.3-10.3.4-15.5.6-1.3.1-2.5.2-3.8.3zM78.9 44.2H65c-5.7.1-11.4.2-17 .5-1.8.1-3.6.4-5.3.8-1.5.3-2.4 1.3-2.7 2.7-.2 1.2-.4 2.5-.4 3.7V288.1c0 .3.1.6.1.9.3 0 .5.1.7.1l26.6-.3c2.8 0 5.6-.3 8.3-.8 2-.4 3-1.6 3.3-3.6.1-1.1.2-2.1.2-3.2V179.1 178c0-.3.1-.5.1-.8 2.7-.3 32.5-.1 33.5.2v111.7c.4 0 .8.1 1.2.1 6.3 0 12.6-.1 18.8-.1 3.5 0 7-.1 10.4-.4 1.9-.1 3.7-.4 5.6-.8 1.6-.3 2.6-1.4 2.9-3 .2-1.1.3-2.1.3-3.2V45.9v-.7c0-.3-.1-.6-.1-.9h-.9c-5.2 0-10.5 0-15.7.1-4.6.1-9.1.2-13.7.4-1.8.1-3.6.4-5.3.7-1.8.3-2.9 1.5-3.2 3.3-.2.9-.2 1.9-.2 2.9v88.8H79c-.1-32.2-.1-64.2-.1-96.3zm173.6 209.9h-49.2v-79.7H239.2c2-.1 3.5-1 4.3-2.8.5-1 .9-2 1-3.1.3-2.4.6-4.8.7-7.3.2-7.1.3-14.2.4-21.3 0-.4 0-.8-.1-1.3h-42.2V79.2h45.2c2.8-.1 4.5-1.3 5.2-4.1.5-2 .9-4 .9-6 .2-8 .3-16 .5-24 0-.3-.1-.6-.1-1h-83.8c-2.1 0-3.7.8-4.9 2.5-1.4 1.9-2.2 3.9-2.2 6.3v235.2c0 .3.1.6.1 1H246.7c2.7-.3 4.2-1.4 4.8-4.1.4-2 .8-4 .8-6 .2-7.9.3-15.8.4-23.7-.1-.4-.1-.7-.2-1.2zm73-98.7h-.2c0-.2-.1-.3-.1-.5-.8-6.9-1.4-13.8-2.3-20.7-.9-7-1.9-13.9-3-20.9-1.2-7.2-2.5-14.5-4-21.7-2.9-13.7-6-27.3-9-41-.5-2.1-1-4.3-1.5-6.5h-1.5c-9.6 0-19.3.1-28.9.2-3 0-5.9.2-8.9.4-1.3.1-2.5.3-3.8.6-1.7.4-2.4 1.6-2.2 3.3.1.7.3 1.3.5 2 14.3 45.4 28.7 90.9 43 136.3.4 1.2.6 2.5.6 3.8V289.1c.5 0 .8.1 1.2.1 6.3 0 12.6-.1 18.8-.1 3.5 0 7-.2 10.4-.4 1.7-.1 3.5-.4 5.2-.7 2.1-.4 3.1-1.8 3.4-3.8.1-1 .2-2 .2-3v-93.7c0-.8.1-1.6.3-2.4 10.4-35 20.9-70 31.3-104.9 3.4-11.6 6.9-23.1 10.3-34.7.1-.4.2-.8.3-1.3h-13.5c-5.9.1-11.8.2-17.7.5-2 .1-4 .5-5.9.9-1.6.3-2.7 1.3-3.6 2.6-.8 1.2-1.2 2.6-1.5 4-2.1 9.7-4.3 19.4-6.3 29.2-1.5 6.8-3 13.7-4.2 20.5-1.5 8.2-2.7 16.5-3.9 24.7-1.1 8-2.1 16.1-3.1 24.1 0 1.6-.2 3.1-.4 4.7zm-63.4-29.6c.1-.1.2-.2.3-.2-2.7-8.7-5.5-17.3-8.2-26-3.3.7-6.6.6-9.8.6h-18.7c-.5 0-.9 0-1.4.1-.3 2.1-.2 16.5.1 17.4h3.1c6.2 0 12.3-.1 18.5 0 6.2.1 11.4 2.6 15.6 7.4.1.2.3.5.5.7z"/><path class="st2" d="M372.5 34.1h14.4c.2.1.4.2.7.2 4 .7 6.6 3 8 6.7.2.5.3 1.1.5 1.7v2.6c-.4 1.5-.8 2.9-1.2 4.4-13.6 45.5-27.1 91-40.7 136.5-.3.9-.4 1.9-.4 2.8v92.7c0 1.6-.1 3.2-.5 4.8-1.2 5.5-4.4 9.2-9.9 10.8-2.2.7-4.5 1-6.8 1.1-4.7.2-9.3.4-14 .6-.3 0-.6.1-.9.2h-18.2c-.5-.2-.9-.3-1.4-.4-4.5-1.2-7.5-5.1-7.5-9.8v-97.4c0-.7-.1-1.5-.3-2.2-11-34.9-22-69.9-33-104.8l-.4-1.2c-.4.4-.6.8-.9 1-2 2.1-4.3 3.5-7.1 4.1-1.5.3-3.1.5-4.6.5h-33.1c-.5 0-1 0-1.5.1v39.4h32.1c1.5 0 3 .2 4.3.9 3.9 1.9 5.8 5.1 5.9 9.4v6.8c-.1 3.9 0 7.8-.2 11.7-.2 4-.5 8-.8 12-.2 2.2-.8 4.2-1.8 6.2-2.8 5.6-7.4 8.6-13.7 8.7-8.1.1-16.2 0-24.2 0h-1.4c-.3 1.7-.2 58.8.1 59.8H252.7c2 0 3.8.4 5.5 1.4 3.3 2 4.9 5 4.9 8.8 0 4.2 0 8.3-.1 12.5-.1 4.3-.1 8.6-.4 12.8-.1 2.4-.4 4.9-.9 7.2-1.4 6.7-5.5 10.7-12.3 12-.5.1-1.1.3-1.6.4h-84.5c-.2-.1-.3-.2-.5-.2-2.4-.5-4.5-1.7-6.1-3.6 0-.1-.1-.1-.3-.1-1.5 1-3.1 1.8-4.8 2.2-2.1.4-4.2.9-6.3 1-4.8.3-9.6.4-14.4.6-.3 0-.7.1-1 .2h-18.2c-.5-.2-1-.3-1.4-.5-3-.9-5.2-2.8-6.5-5.8-.7-1.5-.8-3.1-.8-4.7V192v-4c0-.3-.1-.6-.1-.9H89.4V281.8c0 1.6-.1 3.2-.5 4.8-1.2 5.7-4.6 9.5-10.3 10.9a29 29 0 0 1-5.9.9c-4.8.3-9.6.4-14.4.6-.3 0-.7.1-1 .2H39.1c-.5-.2-1-.3-1.5-.5-4-1.2-6.4-3.8-7.2-7.9-.1-.6-.3-1.1-.4-1.7v-238c.2-1 .3-1.9.5-2.9.6-5 3.1-11 11.2-12.6 2.6-.5 5.3-.8 7.9-1 5.1-.2 10.1-.2 15.2-.3.4 0 .8-.1 1.2-.2h14.4c.2.1.4.2.5.2 3.9.6 6.6 2.9 8 6.6.5 1.3.6 2.6.6 4v85.4h13.6v-1.7-76.4c0-1.1 0-2.2.1-3.2.5-5.5 3.4-11.4 11-13.2 2.8-.7 5.6-1 8.4-1.1 5-.2 10-.2 15-.3.4 0 .8-.1 1.1-.2h14.4c.2.1.4.2.6.2 2.6.3 4.6 1.5 6.3 3.5.2.2.4.5.6.7.1 0 .1 0 .2-.1.2-.1.4-.3.6-.4 2.1-1.8 4.5-3 7.2-3.5.6-.1 1.2-.2 1.8-.4h86.1c1.3.4 2.6.9 3.9 1.3.2.1.5.1.7 0 3.6-.8 7.3-1 11.1-1 3.9-.1 7.8-.1 11.7-.1.5 0 .9-.1 1.4-.2h21.6c.1.1.3.2.4.2 4.5.7 7.5 3.6 8.5 8 3.1 14.2 6.3 28.3 9.4 42.5.2 1.1.5 2.2.8 3.2.2-.2.3-.4.4-.6 2.6-11.8 5.2-23.6 7.7-35.5.5-2.2.9-4.5 1.9-6.5 2.5-5.4 6.5-8.9 12.4-9.9 2.6-.5 5.3-.8 8-.9 5.1-.2 10.3-.2 15.5-.3-.1-.1.2-.2.6-.3zM79.2 44.2h-.9l-26.6.3c-2.8 0-5.6.3-8.3.9-1.8.4-2.8 1.5-3.1 3.2-.3 1.2-.3 2.5-.3 3.7v235.8c0 .3.1.6.1 1h12.8c5.8-.1 11.7-.2 17.5-.5 1.9-.1 3.7-.4 5.6-.8 1.7-.3 2.7-1.4 2.9-3.1.2-1 .3-2.1.3-3.1V178.7v-1.5c1.5-.3 32.7-.2 33.5 0V288.6s0 .1.1.1l.1.1h1c5.8 0 11.7-.1 17.5-.1 3.8-.1 7.5-.1 11.3-.3 2-.1 4-.5 6-.8 1.5-.3 2.5-1.3 2.8-2.8.2-1.3.4-2.6.4-3.9V45.8v-1c0-.3-.1-.5-.1-.8h-.9c-5 0-10 0-15 .1-4.9.1-9.8.2-14.6.5-1.7.1-3.4.4-5.1.7-1.9.3-3 1.6-3.3 3.5-.2 1-.2 2-.2 3V140.2H79.2v-96zm176 0h-84.1c-1.6 0-2.9.5-4 1.7-1.8 1.9-2.9 4.1-2.9 6.8v236.4H246.6c2.9-.2 4.3-1.4 5-4.3.6-2.7.8-5.4.9-8.1l.3-21.5c0-.3 0-.7-.1-1.2h-49.1c-.3-1.8-.2-78.7.1-79.7h34.5c.6 0 1.2 0 1.8-.1 1.5-.1 2.7-.9 3.4-2.1.5-1 1-2 1.2-3.1.4-1.9.6-3.9.7-5.8.2-7.8.4-15.7.5-23.5 0-.3 0-.6-.1-1.1h-42.2V79.2h45.4c2.6-.2 3.7-1.5 4.9-3.9.1-.3.2-.5.2-.8.6-2.5.8-5.1.9-7.7l.3-21.2v-1.4zm49.4 244.9h13.3c5.6-.1 11.3-.2 16.9-.5 1.9-.1 3.9-.5 5.8-.8 1.7-.3 2.6-1.5 3-3.1.2-1 .3-2 .3-3v-94.3c0-.7.1-1.5.3-2.2 5.4-18.3 10.9-36.6 16.4-54.9 8.4-28.2 16.8-56.5 25.3-84.7.1-.4.2-.8.3-1.3-.4 0-.7-.1-1-.1l-26.5.3c-2.9 0-5.7.3-8.6.8-2.7.5-4.4 2-5.3 4.5-.3.7-.5 1.4-.6 2.1-2.5 11.6-5.1 23.2-7.6 34.8-2 9.1-3.7 18.3-5.1 27.6-.8 5.6-1.7 11.1-2.4 16.7-.8 6.2-1.6 12.4-2.4 18.7-.3 2.1-.5 4.2-.8 6.3-.2-.3-.2-.5-.2-.8-.8-7.1-1.5-14.3-2.4-21.4-.9-7-1.9-14-3.1-21-1.2-7.2-2.5-14.3-4-21.4-3-14-6.1-27.9-9.2-41.9-.4-1.7-.8-3.3-1.1-5.1h-1.3c-9.5 0-19 0-28.4.1-3.2 0-6.5.2-9.7.4-1.2.1-2.3.3-3.4.5-1.8.4-2.5 1.4-2.3 3.3.1.8.3 1.6.6 2.3 14.4 45.6 28.8 91.2 43.1 136.8.3.9.4 1.7.4 2.6v97.1c-.3.4-.3.9-.3 1.6z"/><path class="st1" d="M467.6 313.7c-7.7-1.6-13.2-5.1-15.8-6.9-1.7-1.2-10.3-7.3-14.6-19-1.7-4.7-2.6-9.5-3-14.5-.5-5.6-.2-11.2 1.1-16.6 3.1-12.3 9.7-22.1 20.6-28.9.5-.3.9-.6 1.5-1.1-.9-.3-1.6-.5-2.3-.7-9.8-2.8-14.8-11.4-15.1-18.7-.2-4.7-.5-9.4-.7-14.1-.4-8.5-.8-16.9-1.2-25.4-.2-3.6-.3-7.2-.5-10.8-.4-8.8-.9-17.5-1.3-26.3l-.6-12.9c-.4-8-.8-15.9-1.2-23.9-1-19.9-.7-18.8-1.2-24.9-.1-1-.4-4.7-.5-9.6-.1-4.9-.2-7.4.1-9.4.3-2.1 1.2-8.5 6-14.5 4-4.9 8.6-7.2 10.6-8.2 2.7-1.3 5.5-2 8.4-2.7 5.4-1.2 10.9-1.6 16.4-1.8 11.5-.5 23-.6 34.5-.6 3.8 0 7.3 1 10.5 2.8.6.3 1.1.6 1.6.9.4-.1.7-.2 1-.3 9.4-2.5 18.9-4 28.6-4.5.6 0 1.2-.3 1.8-.4h12c.7.1 1.4.4 2.1.4 2.8.1 5.6.5 8.3 1 9.6 1.6 18.5 5.1 26.5 10.5.5.3 1.1.7 1.6 1 .4-.3.7-.6.9-.9 5.5-5.8 12.3-8.5 20.2-8.5h82.8c2.5 0 5 .3 7.3 1.1.9.3 1.8.4 2.8.1 3.7-1 7.6-1.3 11.4-1.3h32.4c9 0 17.9.8 26.7 2.7 11 2.4 21.1 6.9 29.9 13.9.5.4 1 .8 1.5 1.1.8-.6 1-1.5 1.4-2.3 3.8-7.1 9.3-12.1 17.1-14.4 2.8-.8 5.6-1.1 8.5-1.1h81.6c3.1 0 6.1.3 8.9 1.5.9.4 1.7.4 2.6.2.6-.1 1.2-.3 1.9-.4 4.3-.7 8.6-.9 12.9-1 3 0 5.9-.1 8.9-.1 5.4-.1 10.9-.1 16.3-.1 1.6 0 3.2.2 4.8.6 6.2 1.5 10.8 5 13.8 10.6.3.6.7 1.2 1 1.8.2-.1.3-.1.4-.1l.5-.5c3.4-5.2 8.1-8.2 14.1-9.5 8.6-2 17.3-2.9 26.2-3 5.4-.1 10.9 0 16.2 1.1 4.8 1 9.5 2.5 13.5 5.4 8.6 6.2 12.4 14.6 11.1 25.1-.3 2.9-1.2 5.6-2.4 8.3-11 26.3-22.1 52.6-33.1 78.9-.4.9-.8 1.9-1.1 2.8.4.6.7 1 1.1 1.5 5.1 6.6 9.3 13.8 12.9 21.3 2.8 5.8 5.1 11.7 7.1 17.8.1.4.1 1 .8.9.1-.2.1-.4.2-.7 2.5-10 4.9-20 7.4-30l13.2-53.7 13.8-55.8c2.1-8.6 7.3-14.8 15.1-18.9 5.4-2.8 11.1-4 17.1-4.2 8.4-.3 16.8 0 25.1 1.4 9.3 1.6 15.4 6.9 17.8 16.2 1.9 7.5 3.7 15 5.6 22.5 6.8 27.5 13.5 55 20.3 82.6.1.6.2 1.2.8 1.9.3-1.2.2-2.1.2-3V68.2 53.6c0-3 .2-6.1 1-9 2.2-8.3 7-14.2 15.1-17.3 1.9-.7 4-1.2 6-1.6 4.3-.8 8.6-1 12.9-1 3 0 5.9-.1 8.9-.1 5.4-.1 10.9-.2 16.3-.1 7.3.1 13.1 3.1 17.4 9.1.3.4.6.7.9 1.2.4-.4.8-.7 1.1-1 3.7-4 8.3-6.4 13.6-7.6 3.8-.8 7.7-1.2 11.7-1.3 7.3-.2 14.6-.3 21.8-.4 3.1 0 6.2-.2 9.3.3 8.3 1.1 15.1 7.1 17.2 15.3.1.2.2.4.4.6v248.8c-.1.3-.4.6-.4.9-.5 3.6-2 6.7-4.1 9.6-3.7 5.3-9 8.3-15.2 9.7-4.2 1-8.6 1.2-12.9 1.3-8.8.2-17.6.2-26.4.3-1.7 0-3.4-.1-5-.4-5.3-1.1-9.6-3.9-12.8-8.2l-1.2-1.5c-.3.3-.5.4-.7.6-3.8 4.4-8.7 6.9-14.4 8.1-4.3.9-8.7 1.2-13.1 1.3-8.5.2-17 .2-25.4.3-2.6 0-5.1-.2-7.6-1-.7-.2-1.4-.2-2.1-.1-5 1.4-10.1 1.7-15.2 1.8-9.5.2-19-.3-28.5-.8-3.3-.2-6.2-1.3-9-3.1-5.3-3.4-8.3-8.2-9.5-14.3-2.4-11.9-4.9-23.8-7.3-35.7-.2-.8-.2-1.6-.8-2.2-2.6-.3-10.2-.2-12.1.1-.2.8-.4 1.6-.6 2.5-2.1 9.9-4.1 19.8-6.2 29.8-2 9.7-9.5 20.9-24.9 22.9-5.6.7-11.2 1-16.8.8-8.4-.3-16.8-.6-25.1-1.7-.6-.1-1.3.1-1.9.2-2.1.3-4.2.8-6.4 1-4.9.5-9.7.6-14.6.4-7.8-.3-15.7-.6-23.5-1-1.5-.1-3-.3-4.5-.6-4.9-1.1-8.9-3.8-12-7.8-.4-.5-.9-1.1-1.4-1.7-.4.3-.6.5-.8.7-4 4.5-9 7-14.8 8.2-4.3.9-8.7 1.1-13.1 1.2-7.9.2-15.8.2-23.8.3-3.8 0-7.5-.1-11.1-1.6-.6-.2-1.1-.2-1.6 0-4.1 1.5-8.3 1.6-12.5 1.6H840c-1.3 0-2.6 0-3.8-.1-3.2-.1-6.1-1-8.9-2.6-5.3-3-8.6-7.5-10.1-13.4-.1-.5 0-1.2-.9-1.4-.6.4-1.2.9-1.8 1.4-9.9 7.5-21 12.3-33.3 14.6-6.1 1.1-12.2 1.5-18.4 1.5h-44.6c-2.9 0-5.8-.3-8.5-1.4-.8-.3-1.5-.4-2.3-.1-3.4 1.2-6.9 1.5-10.4 1.5h-79.7c-1.6 0-3.2 0-4.8-.3-10.8-2-17.2-11.3-17.2-20.2 0-.5.2-1.1-.2-1.5h-.2c-.3.5-.7 1.1-1 1.6-6.6 11.7-16.4 19.3-29.7 21.9-8.9 1.7-17.8 1.3-26.6-.9-8.5-2.2-15.6-6.6-20.8-13.7-.2-.3-.5-.6-.9-.9-.6.6-1 1.1-1.5 1.7-2.6 3-5.4 5.6-8.6 7.7-5.1 3.4-9.7 4.9-12.1 5.6-3.4 1-6.1 1.4-8.5 1.7-5.1.2-10.8.9-17.6-.4zm323-157.3c.2-.3.2-.4.2-.4.3-.1.6-.3.9-.4 3-.8 5.8-2.3 8.4-4 4-2.8 7.3-6.2 10-10.2 3.8-5.7 6.5-11.9 8.2-18.5 1.9-7.4 2.5-14.9 2.5-22.6 0-6.5-.5-12.9-2-19.2-2.1-8.3-6-15.6-12.2-21.6-5-4.9-11-8.1-17.7-10.3-7.9-2.6-16.1-3.5-24.3-3.7-7-.2-14.1-.1-21.1-.1h-15.8c-1.7 0-3.5.2-5.2.5-3 .6-4.7 2.6-4.9 5.7-.1.9 0 1.8 0 2.6v234.4c0 .5.1.9.2 1.5.9 0 1.7.1 2.5.1h42.5c5.1 0 10.2-.4 15.3-1.3 7.8-1.4 15-4.3 21.6-8.8 6.8-4.6 12.1-10.6 16.4-17.6 5.4-8.8 8.7-18.5 10.6-28.6 1.1-5.7 1.7-11.4 2.1-17.1.5-8 .5-16-.7-23.9-1-6.6-3.1-12.7-6.5-18.4-4.5-7.3-10.8-12.3-18.9-15.2-3.9-1.3-7.9-2.2-12.1-2.9zm148.6 133.7c1.1 0 1.9.1 2.7.1 5.4 0 10.9-.1 16.3-.2 3.3 0 6.6-.1 9.8-.2 2.6-.1 5.1-.3 7.6-.9 1.7-.4 2.8-1.4 3.2-3.2.1-.7.3-1.4.3-2.1.1-.8 0-1.6 0-2.4V178.6v-3c.6.2 1.1.3 1.5.5 3.2 1.6 5.9 3.8 8.3 6.4 2.8 3.2 5.3 6.6 7.5 10.2 4.8 8.1 7.8 16.8 10 25.8 2.6 10.7 3.9 21.7 4.8 32.7.6 7.5.8 15 1.1 22.5.2 4.7.2 9.4.3 14.1 0 .6.1 1.2.2 1.9.8.1 1.4.1 2 .1 4.7.3 9.4.6 14.1.7 5.6.1 11.2.2 16.8.1 2.1 0 4.3-.4 6.4-.9 3-.7 4.4-2.4 4.8-5.5.1-.8.1-1.6.1-2.4 0-2.1-.1-4.2-.1-6.2-.1-11.4-.8-22.7-2-34-1.1-10.3-2.7-20.4-4.9-30.5-2.3-10.3-5.3-20.4-9.5-30.1-5-11.4-11.4-21.8-20.4-30.4-.3-.3-.5-.6-.8-.9.3-.7.5-1.3.8-1.8l38.4-91.5c.3-.7.6-1.5.9-2.2 1-3.1.1-5.3-2.7-6.9-1.4-.8-2.9-1.2-4.5-1.6-2.6-.6-5.2-.7-7.9-.8-6.9-.1-13.8.3-20.6 1.4-2.3.4-4.6.6-6.7 1.6-.3.8-.6 1.5-.9 2.3-8.5 21.9-17.1 43.7-25.6 65.6-3.5 8.9-7 17.8-10.5 26.8-.2.5-.2 1.1-.9 1.2 0-.1-.1-.2-.1-.3V46.9c0-.3 0-.6-.1-1v-.2c0-.1-.1-.1-.4-.3-.3 0-.9-.1-1.4-.1-9.5 0-19 0-28.5.5-2 .1-4 .5-5.9.8-2.2.4-3.3 1.9-3.5 4-.1 1.2-.1 2.4-.1 3.6v232.5c.1 1.1.1 2.1.1 3.4zm357.3-.1c.7.1 1.3.2 1.9.2 2.2 0 4.3 0 6.5-.1 6.7-.1 13.4-.2 20.1-.4 2.3-.1 4.6-.5 6.9-.8 2.1-.3 3.2-1.7 3.4-3.7.1-1.2.1-2.4.1-3.6v-233-1.9c0-.4-.2-.9-.2-1.3-.5 0-.8-.1-1.1-.1-9.8 0-19.5 0-29.3.5-1.7.1-3.5.5-5.2.8-2 .4-3 1.7-3.2 3.7-.2 1.2-.2 2.4-.2 3.6V140c0 .5-.2.9-.3 1.5-1 0-1.8.1-2.7.1h-28.8c-.5 0-1-.2-1.7-.3v-3-88.9V47c0-.5-.1-.9-.2-1.5-.9 0-1.7-.1-2.5-.1h-11.8c-5.4.1-10.9.2-16.3.5-1.9.1-3.8.5-5.7.9-1.3.2-2.1 1.1-2.4 2.4-.2.8-.4 1.6-.4 2.3-.1 1.1-.1 2.2-.1 3.4v233.9c0 .4.2.9.3 1.4.9 0 1.7.1 2.5.1 2.4 0 4.8 0 7.2-.1 6.3-.1 12.6-.2 18.9-.4 2.3-.1 4.6-.5 6.9-.8 1.9-.3 3-1.5 3.2-3.3.2-1.3.3-2.7.3-4v-89.4V181c0-.8.1-1.6.1-2.4.6-.1 1.1-.2 1.5-.2h30.2c.5 0 .9.1 1.4.2.4 1.1.2 2.2.2 3.2V288.9c.3.3.4.6.5 1.1zm-123.2 0c.7.1 1.2.2 1.8.3 5.8.2 11.5.4 17.3.5 4.7.1 9.4.2 14.1-.5 1.5-.2 3-.5 4.4-1.1 2.4-1 3.3-2.9 2.8-5.4-.1-.5-.2-1.1-.4-1.6-3.9-16-7.9-32.1-11.8-48.1-7.4-30.2-14.8-60.3-22.2-90.5-7.5-30.5-15-61.1-22.5-91.6-.5-1.9-1-3.8-1.5-5.8-.6-.1-1-.3-1.5-.4-1.8-.2-3.6-.5-5.5-.6-5.3-.5-10.5-.6-15.8-.3-2.2.1-4.4.6-6.5 1.5-2.8 1.1-4.5 3.1-5.2 6.1-7.3 29.8-14.7 59.7-22 89.5-8.1 32.9-16.2 65.7-24.3 98.6-3.8 15.6-7.7 31.2-11.5 46.7-.2.7-.4 1.4-.2 2.2 1.1.1 2.2.3 3.3.4 3.5.2 7 .4 10.5.7 5.4.4 10.7.4 16.1.2 2.1-.1 4.3-.4 6.4-.8 3.2-.5 5-2.6 5.9-5.6.2-.5.3-1.1.4-1.6 1.2-5.6 2.3-11.3 3.5-16.9 2.1-9.9 4.1-19.9 6.2-29.8.1-.4.3-.9.4-1.4h43.8c.9 0 1.8-.2 2.7.3 3.6 18.2 7.4 36.6 11.3 55zm-295.9-34.9c-.2-.5-.3-.8-.3-1v-77.7c0-.2.1-.4.2-.7.8-.4 1.7-.2 2.6-.2h32.7c3.2 0 4.6-1.8 5.4-3.9.3-1 .6-2 .7-3 .2-1.6.4-3.2.4-4.8.2-7.4.3-14.9.5-22.3 0-.5-.1-1.1-.2-1.7h-41.7c-.7-1-.4-1.9-.4-2.7V83.2 82c.1-.5.2-.9.3-1.5H922c3.5-.1 5.1-1.4 5.9-4.8.1-.2.1-.5.1-.7.3-2.5.7-5.1.8-7.6.2-6.6.2-13.3.3-19.9 0-.6-.1-1.2-.2-1.9-1-.3-2-.2-2.9-.2h-80.4c-2.8-.1-4.7 1.2-6.1 3.5-1.1 1.8-1.5 3.8-1.5 5.9V288.7c0 .5.1.9.2 1.4.4.1.8.1 1.1.1h78.2c1.3 0 2.6-.1 3.8-.2 2.1-.3 3.5-1.5 4-3.6.3-1.5.6-3 .7-4.5.7-8.4.4-16.8.5-25.1 0-.5-.1-.9-.2-1.6-16.3-.1-32.5-.1-48.9-.1zM656.1 80.4H700.7c3.5-.1 5.1-1.4 5.9-4.8.1-.2.1-.5.1-.7.3-2.5.7-5.1.8-7.6.2-6.8.2-13.6.2-20.4 0-.5-.1-.9-.2-1.5-1.1 0-2-.1-3-.1H624.2c-2.7-.1-4.6 1.2-5.9 3.4-1.2 1.9-1.6 3.9-1.6 6.2v233.9c0 .4.2.9.3 1.4.9 0 1.7.1 2.5.1H696.3c1.3 0 2.6-.1 3.8-.3 2-.3 3.4-1.4 3.8-3.4.4-1.5.7-3.1.8-4.7.7-8.4.4-16.8.6-25.1 0-.5-.1-.9-.2-1.5-1 0-2-.1-2.9-.1h-44.7c-.5 0-.9-.1-1.4-.2-.3-1-.2-2-.2-2.9V179v-1.7c0-.5.1-.9.2-1.4 1-.4 1.8-.3 2.7-.3h32.9c2.5 0 4.1-1.3 4.9-3.5.5-1.3.8-2.8.9-4.2.3-3.3.4-6.7.5-10 .2-5.3.2-10.5.3-15.8 0-.7.2-1.4-.5-2.2h-41.5c-.2-.4-.3-.6-.3-.8V81.8c-.2-.5 0-.8.1-1.4zm-137 8.2c.8-.4 1.5-.8 2.2-1.1 8.5-4.8 17.6-6.9 27.4-5.7 3 .4 5.8 1 8.5 2.5 3.2 1.8 5.5 4.4 6.6 7.9.3 1 .5 2 .7 3 1 6.8.2 13.4-2.2 19.8-1.7 4.7-4 9-6.7 13.2-3.4 5.3-6.7 10.7-10.1 16-4.3 6.7-8.1 13.8-11.7 20.9-2 4-3.4 8.3-3.8 12.8-.5 5.6-.3 11.2.7 16.7 1.1 5.8 3.1 11.4 5.4 16.8.2.4.4.7.6 1 .4.1.8.1 1.2.2 4.8.6 9.6.5 14.4.5 3.6 0 7.2-.5 10.7-1.1 2.1-.4 4.2-.9 6.2-1.8 3.2-1.5 4.6-3.9 4.2-7.3-.1-1.3-.5-2.7-.8-4-1-4-2-7.9-2.9-11.9-1.2-5.2-.4-10.1 2.3-14.7 3.4-5.8 7-11.4 11-16.8 4.1-5.4 7.9-11 11.5-16.8 5.1-8 8.7-16.7 10.8-26 1.9-8.4 2.5-16.9 2.3-25.5-.1-5.2-.9-10.3-2.4-15.3-3.7-12.4-11.5-21.2-23.5-26.1-5.9-2.4-12.1-3.6-18.4-3.9-10-.4-19.8.5-29.6 2.5-4.6.9-9.2 2.2-13.5 4.2-1.5.7-3 1.6-4.3 2.6-2.2 1.7-3.4 4-3.2 6.8.2 2.7.2 5.4.5 8.1.8 7.2 2.7 14.1 5.2 20.9.1.5.4 1 .7 1.6zm-10.3-45.4h-2.7c-2.7 0-5.4.1-8.2.1-8.4 0-16.8.1-25.2.6-3 .2-6.1.5-9.1 1-1.8.3-3.6.8-5.3 1.4-2.3.9-3.8 2.6-4.4 5-.3 1.1-.4 2.2-.5 3.3-.1 1.1 0 2.2.1 3.4.4 7.8.8 15.6 1.2 23.5.5 9.9 1 19.8 1.4 29.7.5 9.8 1 19.6 1.4 29.4.5 9.9 1 19.8 1.4 29.7.5 11.2 1.1 22.3 1.6 33.5 0 .6.1 1.2.2 2 .6.1 1 .2 1.5.2h4.6c6.1-.1 12.2-.3 18.2-.9 2.5-.3 4.9-.8 7.2-1.9 3-1.3 5.1-3.6 6.2-6.6.8-2.2 1.3-4.5 1.4-6.8.5-7.7 1-15.5 1.4-23.2.4-6.6.7-13.2 1.2-19.9.6-9 1.1-18 1.7-27 .6-9.3 1.1-18.7 1.6-28 .2-3 .4-5.9.5-8.9.4-6.8.8-13.6 1.3-20.3.3-4.3.5-8.6.8-12.9.4-2.1.6-4 .5-6.4zm46 198.9c-1.6.1-3.2.1-4.8.3-5.9.7-10.9 3.1-14.6 7.7-2.8 3.5-4.8 7.3-5.7 11.7-.9 4.2-.7 8.4-.1 12.6.3 2.3.9 4.5 1.8 6.7 2.2 5.3 6 8.7 11.6 10.2 5.5 1.4 11 1.7 16.6.8 4.4-.7 8.4-2.5 11.7-5.7 3.7-3.6 6.1-8 7.1-13.1 1.1-5.8.7-11.6-1.1-17.3-.7-2.1-1.7-4.1-2.9-6-1.5-2.3-3.5-4.1-6.1-5.3-1.4-.6-2.8-1.1-4.3-1.5-2.9-.8-6-1-9.2-1.1zm-75 50.8c.9 0 2.5-.1 4.2-.2 4.9-.6 9.3-2.3 12.9-5.7 3.6-3.4 5.9-7.5 7.1-12.3 1.1-4.5.9-9 .2-13.5-.4-2.8-1.3-5.4-2.5-8-2.3-4.9-6.1-8.1-11.4-9.5-5.2-1.4-10.6-1.7-15.9-.8-4.2.7-8 2.3-11.1 5.2-4.3 4-6.9 8.9-8 14.7-.8 4.6-.6 9.2.4 13.8.5 2.4 1.3 4.6 2.4 6.7 1.9 3.5 4.6 6.1 8.4 7.5l2.7.9c3.2.9 6.5 1.1 10.6 1.2zm418.5-96.5c-.4 1-.3 1.9-.3 2.8V232.5c0 .5.2 1 .3 1.5.4.1.6.1.9.1h17.7c.4 0 .7-.2 1.1-.2.2-1.7.4-34 .2-37 0-.3-.1-.6-.2-.9-6.6.7-13 .1-19.7.4zm-202 37.6c.1-.4.2-.7.2-1v-36.2c0-.2-.2-.4-.2-.6-2.5 0-5 .1-7.4.1h-10.3c-.5 0-1.1.1-1.7.3v35.3c0 .7-.2 1.4.4 2 1.9.2 13.1.3 18 .2.2 0 .6 0 1-.1zm201.8-115.5c.6.1.9.2 1.2.2H917c.4 0 .7-.2 1-.2.1-.3.2-.5.2-.6v-15.5c0-.3-.2-.6-.3-.9-.6 0-1-.1-1.5-.1-5.9 0-11.8 0-17.7.1-.1 0-.2 0-.2.1-.1 0-.1.1-.4.4 0 5.2-.1 10.8 0 16.5zm-201.8-17c-.5 0-.8-.1-1.1-.1h-17c-.4 0-.9.2-1.3.2-.1.3-.1.5-.1.6v15.5c0 .3.2.6.3.8.3.1.4.1.6.1h18c.3 0 .6-.2.8-.3.2-2.9.1-14.8-.2-16.8zm-172.1 36.1c.1.1.2.1.4.2.2-.3.5-.6.7-.9 4.1-6.4 8.1-12.8 12.2-19.2 1-1.6 2-3.3 2.9-5 1-2 1.8-4.1 2.7-6.1.5-1.2.8-2.6.7-4-1.1-.4-2.1-.2-3.1-.1-2.3.3-4.5 1-6.6 2-2.6 1.3-5.2 2.8-7.9 4.2-.8 9.6-1.4 19.3-2 28.9zm71.2 36.9c-1.8 2.4-3 4.6-4.4 6.8-.7 1.1-.9 2.2-.5 3.4.8 3 1.5 6 2.4 9 1.1 3.7 1.6 7.5 1.4 11.3-.4 9-4.2 16.3-11.6 21.5-.5.4-1 .7-1.6 1.2.7.5 1.2 1 1.8 1.4 3.1 2.2 5.8 4.8 7.9 7.9 1.4 2 2.6 4.2 3.9 6.3.2.3.3.7.8.6.3-3.2.2-67.1-.1-69.4zm-81.6 37.9c-.5.4-.8.7-1.1 1-1.3 1.3-2.5 2.7-3.9 3.9-3 2.6-6.4 4.4-10.1 5.8-.4.1-.7.4-1.1.7 2.1.9 4 1.6 5.9 2.5 1.8.9 3.7 2 5.3 3.2 1.7 1.3 3.3 2.7 4.9 4.2 1.4 1.5 2.7 3.1 4.1 4.8 1.3-1.5 2.4-2.9 3.7-4.2 1.3-1.3 2.6-2.5 4-3.9-.4-.3-.7-.7-1-.9-3.3-2.3-5.7-5.4-7.2-9.1-.8-2-1.6-4-2.5-6-.4-.5-.7-1.1-1-2z"/><path class="st1" d="M757.5 256.1v-79.6c0-.5.1-.9.1-1.5.6-.1 1-.1 1.5-.1h7c1.9 0 3.6.4 5.4.9 2.2.6 3.9 1.9 5.2 3.6 1.3 1.7 2.2 3.7 2.8 5.8 1.1 3.5 1.6 7.2 1.9 10.8.7 9.2.8 18.3 0 27.5-.5 5.7-1.3 11.3-3 16.7-.7 2.4-1.7 4.8-2.7 7.1-.8 1.9-2 3.6-3.4 5.2-2.1 2.4-4.8 3.7-8 3.7-2.2 0-4.3 0-6.8-.1zm.3-114.4c-.3-2.7-.3-59.6 0-61.8.4-.1.8-.2 1.3-.2h6.5c3.9.1 6.7 1.9 8.4 5.3 1.4 2.8 2.2 5.8 2.6 8.9 1.2 9.3 1.2 18.6 0 27.9-.5 3.7-1.3 7.4-2.7 10.9-.7 1.9-1.6 3.6-2.9 5.2-1.9 2.4-4.2 3.8-7.4 3.7-1.9.1-3.8.1-5.8.1zm396.5 57.2c-2 .3-28.9.3-31.4.1 0-.4-.1-.9 0-1.3 2.4-11.6 4.9-23.3 7.2-34.9 1.2-6.2 2.2-12.4 3.2-18.7 1-6.4 1.8-12.8 2.7-19.2.8-6 1.5-12 2.2-18.1.1-1.1.2-2.2.7-3.7.5 4.5.9 8.6 1.4 12.6.4 4 .9 7.9 1.4 11.9.5 4 1.1 8.1 1.7 12.1.6 3.9 1.2 7.9 1.9 11.8.7 4 1.3 8 2.1 12 .7 3.9 1.6 7.8 2.4 11.7.8 4 1.6 8 2.5 12 .5 3.9 1.4 7.8 2 11.7z"/><g><path class="st2" d="M1040.1 301c-6.3 0-12.6-.3-18.8-.6-2.9-.1-5.8-.3-8.7-.4-3.1-.1-5.6-1.4-7.5-3.9-1.4-1.8-2.1-3.9-2.1-6.5-.1-8.2-.3-16.3-.5-24.2-.1-3.1-.3-6.4-.6-10.3-.6-7.6-1.3-14.3-2.2-20.5-1-6.6-2.1-12.1-3.5-17.1-1.6-5.7-3.5-10.7-5.7-15.2 0-.1-.1-.1-.1-.2-.1-.3-.2-.6-.7-.6v80.1c0 1.7 0 3.5-.3 5.3-1.1 6.2-4.5 10.2-10.3 11.8-.6.2-1.3.3-2.1.5-3 .6-6.3.9-10.3.9-5.2.1-10.3.1-15.5.2l-6.1.1h-4.7c-3.4 0-6.1-1.2-8.2-3.5-.1-.2-.3-.3-.5-.4l-.2-.2-.4.3c-.3.2-.6.4-.9.7-2.2 1.6-4.7 2.6-7.3 2.9-1.4.1-2.9.3-4.3.3h-80c-.2 0-.5-.1-.7-.1-.9-.1-1.8-.2-2.6-.5-3.8-1.2-6.6-4.8-6.9-8.8-.1-.9-.1-1.8-.1-2.7V281v-16.6-.3c.1-.4.1-.7-.4-1l-.2.4c-.2.4-.4.7-.7 1.1-.5.8-1.1 1.7-1.6 2.6-1.2 1.9-2.4 3.9-3.7 5.7-9.2 12.7-21.5 21.1-36.7 25.1-6.4 1.7-13.4 2.5-21.9 2.5h-44.8c-3.1-.1-5.5-1.2-7.4-3.1-.2-.2-.5-.4-.7-.6-.1-.1-.2-.1-.3-.2-1.7 1.4-3.9 2.8-6.4 3.3-1.7.3-3.7.6-5.7.6h-79.4c-1 0-2.1-.1-3.1-.3-4.4-.8-7.8-4.6-8.1-9.1-.1-.8-.1-1.7 0-2.5v-147-1.8-.2c0-.2 0-.4-.3-.5l-.1.1c-.1.1-.2.3-.3.5-4.5 7.8-9.7 15.2-14.2 21.4-.4.5-.7 1-1.1 1.5-1.2 1.6-2.4 3.2-3.5 4.9-1.6 2.4-3.1 4.9-4.6 7.3-.6.9-1.2 1.9-1.7 2.8-1.5 2.4-1.9 4.8-1.3 7.2.1.3.1.6.2.9 0 .3.1.5.2.8l.7 2.7c.6 2.6 1.3 5.3 2 7.9.8 2.9 1.1 5.5.9 8.1-.4 5.8-3.1 10.2-7.8 13.1-1.7 1.1-3.7 1.9-6 2.6-4.6 1.3-9.6 2.1-15.2 2.3-1.5.1-3.1.1-4.9.1-2.4 0-4.7 0-7.1-.1-2.1 0-4.2-.3-6.5-.5-4.3-.5-7.2-2.7-8.9-6.6-.6-1.5-1.2-2.9-1.8-4.4-3.8-9.6-5.7-19-5.6-28.8 0-7.8 1.8-15.3 5.2-22.2 4.1-8.3 8.2-15.6 12.5-22.4l.2-.3c3-4.7 6.1-9.6 9.1-14.5 1.5-2.4 2.9-5 4.4-7.9 1.9-3.7 3-7.3 3.4-10.9.3-2.4.5-5.6-.2-8.8-.3-1.5-1.2-2.5-2.6-3-1-.4-2.1-.7-3.2-.9-1.8-.3-3.6-.4-5.3-.4-4.4 0-8.6.9-12.6 2.7-1.8.8-3.7 1.8-6 3.1-1.9 1.1-3.7 1.6-5.5 1.6-.6 0-1.3-.1-1.9-.2-.3-.1-.6-.1-.9-.1h-.4c0 .1 0 .3-.1.4-.1.3-.1.6-.1.9l-.1 1.1c-.3 4-.5 8-.8 12.1-.3 5.8-.7 11.5-1 17.3l-.6 10.7c-.2 3-.4 6.1-.6 9.1l-.4 6.9c-.3 4.2-.5 8.3-.8 12.5-.2 2.5-.3 5-.4 7.6-.2 4-.4 8-.7 12.1-.1 2.2-.4 4.4-.9 6.4-2 9.4-7.6 15.5-16.7 18.1-2.7.8-5.1 1.2-7.6 1.4l-2.4.2c-3 .2-6.1.4-9.1.5-4.2.2-8.6.2-12.5.2-6.2 0-10-4.7-10.3-9.3 0-.7-.1-1.3-.1-2s-.1-1.4-.1-2.1c-.2-3.2-.3-6.5-.4-9.7-.2-5.1-.5-10.1-.7-15.2-.3-5.5-.6-11-.8-16.6-.3-5.6-.6-11.3-.9-16.9-.3-5.3-.5-10.6-.7-15.9-.1-3.1-.3-6.2-.4-9.3-.2-3.6-.3-7.2-.5-10.8l-.6-11.6c-.3-5.7-.5-9.5-.6-12.6-.2-4.3-.4-8.7-.6-12.9-.2-3.8-.3-7.6-.5-11.2 0-.2 0-.5-.1-.9-.1-1.6-.4-4.3.2-8.3.3-2.3 1.2-5.6 3.9-8.8 2.7-3.2 5.9-4.6 8.1-5.4 3.3-1.2 6.8-1.7 9.4-2 5-.6 10.2-.9 16.5-1 2.1 0 4.3-.1 6.4-.2 2.4-.1 4.7-.1 7.1-.2 3.1 0 6.2-.1 9.2-.1h4.2c3.6 0 6.5 1.5 8.6 4.3.2.2.4.5.6.7l.3.3c.5-.2.9-.3 1.4-.5 1-.4 2.1-.7 3.1-1.1 8.2-2.6 17.4-4.2 28.1-4.9h1c.9 0 1.9 0 2.7-.4h8.7c.2 0 .5.1.7.2.5.1.9.2 1.4.2 2.5.1 5.3.4 8.3 1 13.7 2.6 24.2 8.6 32.1 18.2l.5.5c.1 0 .1.1.2.1l.1-.1.1-.1c0-.1.1-.3.1-.4.6-3.7 2.1-7 4.5-10s5.3-4.8 8.8-5.6c1.4-.3 3-.4 5-.4h82.8c2.3.1 4.3.8 6.1 2.1.3.2.5.4.8.5l.3.2c3.2-1.8 6.8-2.7 11.3-2.8h34c7.8 0 14.6.5 20.9 1.6 6.1 1.1 11 2.4 15.5 4.3 9 3.8 16 8.9 21.3 15.6 4 5 7.1 10.7 9.2 16.8 0 .1 0 .2.1.2.1.3.2.6.6.7v-7-13.7c0-1.4 0-2.6.3-3.8.7-2.8 1.8-5.3 3.5-7.6 2.5-3.5 5.7-5.7 9.5-6.5 1.8-.4 3.8-.5 5.3-.5h80.7c4.1 0 6.9.9 9.2 3l.2.1c3.5-1.4 5.6-2 8.7-2.3 3.4-.3 6.2-.4 9.1-.5 6-.1 12.1-.2 18-.2h3c1.9 0 3.4 0 4.9.1 3.8.2 8.2 3.4 8.9 8.3.1 1 .2 2.2.2 3.4v43c0 .2 0 .4.3.5l.2-.5c.2-.4.4-.8.6-1.3 2.1-5.5 4.3-10.9 6.4-16.4l4.3-10.9c2.2-5.6 4.4-11.3 6.6-16.9 1.4-3.7 4.1-6 7.9-6.8.7-.2 1.5-.3 2.2-.5 2.4-.5 4.8-1 7.2-1.4 5.5-.7 11.1-1.1 16.8-1.1 1.7 0 3.5 0 5.2.1 3.4.1 6.5.6 9.5 1.4 3.1.8 5.4 2 7.4 3.5 4.9 3.8 6.9 8.8 5.9 14.9-.3 1.9-1 3.7-1.8 5.5l-35.7 85.1-.6 1.5-.3.7.4.5c.3.4.6.8.9 1.1 4 4.6 7.6 9.7 10.8 15.2 4.9 8.5 8.9 17.7 12.1 28.1 3.9 12.7 6.8 26.3 8.7 41.5v.2c.1.8.2 1.5.5 2.5l.2-.6c.2-.5.3-1 .4-1.4l7.2-29.2c3.7-15.3 7.5-30.5 11.3-45.8 3.6-14.7 7.2-29.4 10.9-44.1l7.7-31.3c1.8-7.1 8.6-35.1 8.6-35.1 1-4.3 3.5-7.7 7.1-10.3 1.5-1 3.3-1.9 5.4-2.6 3-1 6.3-1.6 10.2-1.8 1.3-.1 2.7-.1 4-.1 5 0 10.3.3 16.1 1.1 1.6.2 3 .5 4.2.9 3 .9 5.1 2.9 6.4 5.9.2.6.4 1.2.5 1.8l21.4 87.1c3.4 13.7 6.7 27.4 10.1 41.1 2.6 10.4 5.1 20.8 7.6 31.2l4.9 20.1c1.2 4.7 2.3 9.4 3.5 14.1 0 .1.1.2.1.3.1.5.2.9.6 1.4V54.8v-.7-1.7c0-.4.1-.7.1-1.1.1-1.2.2-2.5.4-3.7 1.3-5.6 4.6-9.2 10-10.7.7-.2 1.5-.4 2.3-.5 3.3-.6 6.8-.9 11.5-.9 6.6-.1 13.1-.2 19.7-.2h2.7c1.1 0 2.5 0 3.9.1 4.9.5 8.6 4.4 8.9 9.3v84.4c0 .7 0 1.3.2 2.1 1 .1 2 .1 3.3.1H1283.8c1.2 0 2.2-.1 3.1-.3v-.9V54.3c0-1.3 0-2.6.1-3.8.4-7.3 4.5-12.2 11.6-13.9.5-.1.9-.2 1.4-.3 3.3-.6 6.7-.8 11.2-.9 6.6-.1 13.1-.2 19.7-.2h2.8c1.4 0 2.5 0 3.5.1 3.9.4 6.7 2.3 8.2 5.9 0 .1.1.2.3.3l.2.2v246.6c-.1.1-.1.2-.2.3-.1.2-.2.3-.3.5-.9 3.8-3.2 6.6-6.8 8.4-1.5.7-3.1 1.2-4.6 1.5-2.6.4-5.9.8-9.3.9-6.7.2-13.5.3-20 .4h-5c-1.7 0-2.9-.1-4.1-.2-5.5-.6-8.8-5.4-8.8-9.7V289v-97.7-1.7c0-.3-.1-.6-.2-.9 0-.1-.1-.3-.1-.5h-9.9c-.8 0-2 0-3.1.3V282.4c0 1.3 0 2.6-.2 4-.5 4-2.1 7.1-4.8 9.5-1.9 1.7-4.3 2.7-7 3.1-2.7.4-5.8.9-8.8.9-4.9.1-9.9.2-14.7.3-3.8.1-7.7.1-11.5.2h-.6c-3.6 0-6.3-.8-8.6-2.5h-.2c-2.3 1.3-5 2.1-8.4 2.6-2.3.3-4.7.5-7.2.6-1.7.1-3.5.1-5.4.1-5.5 0-11.1-.2-16.5-.5-1.8-.1-3.6-.1-5.4-.2-1.3 0-2.5-.3-3.6-.6-3.6-1.3-5.8-3.9-6.6-7.7l-8.2-39.4c-.4-1.8-.7-3.5-1.1-5.3l-.5-2.3c-.1 0-.2-.1-.3-.1-.2-.1-.3-.1-.4-.1h-28.8c-.1 0-.3.1-.4.1-.1 0-.1.1-.2.1l-.2.6c-.1.5-.3.9-.4 1.4l-6.4 31c-.2.8-.3 1.7-.5 2.5-.4 2.1-.8 4.3-1.4 6.4-2.1 7.4-6.8 11.9-14.1 13.2-2.8.5-5.6.8-8.4.9-1.7.1-3.5.1-5.2.1-7.8 0-15.8-.6-22.6-1.1h-.5c-2-.2-4.1-.3-5.8-1.1-.5.2-1.1.3-1.6.5-1.2.3-2.3.6-3.4.9-3.6.8-7.2.9-10.5.9-1.2-.4-2.1-.4-3-.4zm-26.2-11.2c.4 0 .7.1 1 .1 1.3.1 2.6.1 3.9.2 2.4.1 4.8.2 7.2.4 4.3.3 8.6.4 12.9.4 2.7 0 5.5-.1 8.2-.2 1.7-.1 3.5-.3 5.4-.8 3.2-.8 4.6-2.5 4.9-5.8.1-1.3.1-2.6.1-3.8v-1.4c0-13.9-.9-27.6-2.4-40.9-1.3-10.8-3.1-20.8-5.4-30.4-2.8-11.5-6.2-21.4-10.4-30.3-5.1-10.7-11.2-19.4-18.7-26.5-.2-.1-.3-.3-.4-.5-.1-.1-.3-.4-.3-.4l.3-.8.6-1.5 2.8-6.6c3.5-8.3 7-16.7 10.5-25l25.2-60c.3-.8.7-1.5.9-2.3.7-2.5-.1-4.5-2.3-5.8-1.2-.7-2.4-1.2-3.5-1.5-1.7-.4-3.9-.9-6.1-1-2.1-.1-4.3-.2-6.4-.2-5.4 0-10.9.4-16.3 1.2-2.5.4-5.1.8-7.6 1.7l-.3.8c-.2.6-.5 1.1-.7 1.7l-22.6 58c-3.5 9-13.3 33.9-13.3 33.9 0 .1-.1.2-.1.3-.2.5-.4 1-1.1 1.5l-.2.1v-85-5.7-2.4c0-1.9 0-3.8-.1-5.9H975.4c-1.8 0-3.7 0-5.5.1l-4.6.1c-4.7.1-9.6.1-14.4.3-1.9.1-3.9.4-5.7.6l-1.1.2c-2.5.4-3.8 1.9-4 4.7v237.3c0 .3.1.6.1.9 0 .1 0 .3.1.4h1.5c8.8 0 18.9 0 28.8-.5 1.4-.1 2.9-.3 4.3-.5.5-.1.9-.2 1.4-.2 2-.3 3.1-1.5 3.4-3.6.2-1.1.2-2.3.2-3.8V178.5v-1.9c0-.2 0-.4.1-.6l.1-.3h.1c.1 0 .1-.1.2-.1s.1-.1.2-.1h.1l.2.1.9.3c3.1 1.6 6 3.9 8.5 6.7 4.2 4.8 7.8 10.3 10.7 16.5 3.1 6.6 5.4 13.6 7.2 21.6 2 9 3.4 18.7 4.3 30.6.5 6.6.8 13.4 1 19.9l.1 1.9c.1 3.2.2 6.5.2 9.7 0 1.8.1 3.6.1 5.4 0 .4.1.7.1 1.1 0 .1 0 .3.1.4l-.2.1zm50-.3c.5.1 1.1.1 1.6.2 1.7.1 3.4.2 5.1.4 1.5.1 3 .2 4.4.3 3.9.3 7.8.4 11.7.4 2.5 0 5-.1 7.4-.2 1.7-.1 3.4-.4 5.2-.7 2.8-.5 4.7-2.3 5.7-5.4.2-.6.3-1.1.4-1.7l8.4-40.7c.3-1.6.7-3.3 1.1-5l.5-2.4s.5 0 .7-.1c.4 0 .8-.1 1.1-.1h43.2c.4 0 .7.1 1.1.1.2 0 .4.1.6.1h.1l11.4 55.2c.1 0 .3 0 .4.1.3 0 .5.1.8.1 6.2.3 13.6.6 20.9.6h3.4c2.7 0 5.5-.1 8.2-.6 1.3-.2 2.7-.5 3.9-1.1 2-.9 2.9-2.7 2.5-5-.1-.5-.2-1.1-.3-1.6l-2.4-9.9c-3-12.3-6-24.6-9.1-36.9l-8.3-33.7c-4-16.4-8.1-32.9-12.1-49.3-4.9-20.1-9.9-40.2-14.8-60.3l-9.9-40.2c-.3-1.3-.7-2.6-1-3.9l-.5-1.9c-.2 0-.4-.1-.6-.2l-1.2-.3c-4.9-.7-9.9-1-15.3-1-1.5 0-3 0-4.5.1-2.7.1-5.2.6-7.4 1.5-2.8 1.2-4.5 3.1-5.2 6-1.6 6.6-3.2 13.3-4.8 19.8l-1.8 7.5-15.1 61.4c-4.7 19-9.4 38-14 57l-19.7 79.9c-.8 3.1-1.5 6.1-2.3 9.2 0 .1-.1.3-.1.4-.2.6-.3 1.2-.1 1.9h.7zm-319.6.7h19.4c5.4 0 10.4-.5 15.2-1.4 8.5-1.6 16.1-5 22.8-10 6.9-5.2 12.4-11.8 16.8-20.3 4.2-8 7-16.9 8.7-27.2.8-4.8 1.3-9.9 1.7-15.5.5-8.8.3-16.1-.8-22.9-.9-5.9-2.7-11.5-5.5-16.5-4.7-8.6-11.9-14.4-21.4-17.3-2.4-.7-4.8-1.3-7.3-1.9-1.1-.3-2.3-.5-3.4-.8l-.4-.1.4-.1c.2-.1.3-.1.5-.2.3-.1.7-.3 1-.4 3-.8 5.9-2.2 8.9-4.4 4.1-2.9 7.6-6.7 10.4-11.4 4.4-7.2 7.4-15.3 8.6-24.1.8-5.8 1.1-11.9.9-19.3-.1-5.3-.8-10.2-1.9-14.9-2.3-9.4-6.9-17.2-13.7-23.1-5.4-4.8-11.9-8-19.9-10-6.7-1.7-13.8-2.6-20.9-2.7-6.3-.1-12.9-.1-20.9-.1h-16.3c-1.6 0-3.4.2-5.2.7-2.6.7-4 2.5-4.2 5.3V288.9c0 .3.1.6.2.9 0 .1.1.3.1.4h26.2zm174.4 0c.8 0 1.6 0 2.4-.1 2.4-.3 3.9-1.6 4.4-3.9.2-1.2.5-2.8.7-4.5.5-6.8.5-13.7.5-20.4v-4.7c0-.2 0-.5-.1-.8 0-.1 0-.2-.1-.4H879.6c-.4 0-.8-.1-1.3-.1-.2 0-.4 0-.5-.1h-.1v-.1c-.4-2.6-.6-59.9-.2-77.6 0-.4 0-.7.1-1.1 0-.2.1-.6.1-.6h.1c.6-.3 1.2-.3 1.7-.3h33.6c2.6 0 4.3-1.2 5.1-3.7.4-1.3.7-2.7.9-4.2.6-6.3.6-12.6.7-18.8 0-2.4 0-4.9.1-7.3 0-.3-.1-.7-.1-1.1 0-.2-.1-.4-.1-.5h-42.1v-1.3-2-53.5-1.2c0-.3.1-.6.2-1 0-.2.1-.6.1-.6h42.7c1.3 0 2.2 0 3.1-.1 2.2-.2 3.7-1.4 4.2-3.4.5-1.9.8-3.5.9-5.1.6-6.5.6-13 .5-19.4v-5.5c0-.2 0-.5-.1-.8 0-.1-.1-.2-.1-.4h-.8c-.6 0-1.2-.1-1.8-.1H845.4c-2.2.1-3.9 1.1-5.1 2.9-1 1.5-2 3.5-1.9 6V288.9c0 .3.1.6.2.9 0 .1.1.3.1.4h80zm-221 0c.6 0 1.4 0 2.1-.1 2.4-.3 3.9-1.6 4.4-3.9.4-1.9.6-3.5.7-5 .5-6.5.5-13 .5-19.4v-5c0-.3-.1-.6-.1-.9 0-.1-.1-.3-.1-.4H658c-.4 0-.7-.1-1.1-.1-.2 0-.3-.1-.4-.1h-.1v-.1c-.3-2.1-.5-71.4-.2-78.1 0-.3.1-.5.1-.8 0-.1.1-.4.1-.4h.1c.6-.2 1.2-.3 1.6-.3h33.7c2.5 0 4.2-1.2 5-3.5.5-1.4.8-2.9.9-4.4.7-8.3.7-16.9.7-25.1v-1c0-.3-.1-.7-.1-1.1 0-.2-.1-.3-.1-.5H659.7c-1.3 0-2.2-.1-3.2-.2h-.1v-.1c-.3-.7-.3-1.5-.3-2.2v-.6-53.8-1c0-.3.1-.6.1-1l.1-.5h.1c.7-.2 1.3-.2 1.8-.2H699c.9 0 1.9 0 2.9-.1 2.5-.1 4-1.4 4.6-3.6.5-1.9.8-3.6.9-5.2.5-6 .5-12.1.5-18v-6.4c0-.3 0-.6-.1-.9 0-.1 0-.3-.1-.4-.6-.2-1.1-.2-1.6-.2H623.8c-2 .2-3.6 1.1-4.7 2.7-1 1.5-2.1 3.5-2 5.9V289c0 .3.1.6.2.9 0 .1.1.3.1.4-.1-.1 58.5-.1 80.3-.1zm599.8-.1c.4 0 .8.1 1.3.1 9.1 0 18.5 0 27.8-.5 1.8-.1 3.7-.3 5.4-.7 2.4-.5 3.3-1.5 3.6-3.9.1-1.3.1-2.6.1-3.8V48.4v-1.6c0-.2-.1-.5-.1-.8 0-.1 0-.2-.1-.4-.2 0-.4 0-.6-.1-.4 0-.8-.1-1.3-.1-2.9 0-5.8 0-8.7.1l-3.8.1c-4.7.1-9.5.1-14.2.3-1.6.1-3.3.3-4.9.5l-1.8.3c-2.1.3-3.3 1.6-3.5 4-.1 1.2-.2 2.5-.2 3.8V140.1c0 .3-.1.6-.2.9 0 .1-.1.3-.1.4v.1l-.5.1c-.3 0-.5.1-.7.1-10.5 0-21 0-31.4-.1-.1 0-.2-.1-.3-.1-.1 0-.1-.1-.2-.1l-.1-.1c-.3-.8-.3-1.6-.2-2.3v-.8-89.8-1.5c0-.3-.1-.6-.2-.9 0-.1-.1-.3-.1-.4h-2.3l-20.6.3h-1.4c-2.8 0-5.8.1-8.6.5-1.2.2-2.2.4-3 .6-1.1.3-1.9 1-2.2 2.2-.2.8-.4 1.6-.4 2.3-.1.7-.1 1.3 0 2v235.4c0 .3.1.6.1.9l.1.4h10l2.8-.1c5.5-.1 11.2-.2 16.8-.4 1.5-.1 3.1-.3 4.6-.6.4-.1.9-.1 1.3-.2 1.7-.3 2.7-1.3 2.9-3.2.2-1.3.3-2.6.3-3.8V181.8v-2.4c0-.2.1-.4.1-.7 0-.1.1-.5.1-.5s.5 0 .7-.1c.4 0 .8-.1 1.1-.1H1294.6c.4 0 .7.1 1.1.1.2 0 .4.1.6.1h.1V288.7c0 .3.1.5.1.8 0 .1 0 .2.1.3l.9.3zm-379.8-45c3.2 0 7.4 0 11.7.1v-.5c0-.5.1-1 .1-1.4v-74.1-2.2c-.1.8-.2 1.6-.4 2.3-.1.7-.2 1.3-.3 2-.4 2.5-1.2 4.8-2.4 6.8-2.2 3.7-5.4 6.1-9.4 7-1.5.4-3.2.4-4.5.4h-23.6c-.4 0-.9.1-1.4.4v59h.8c.6 0 1.1.1 1.6.1h16.5l11.3.1zm-210.1 0c.4-3.6.5-57.2.2-73 0-.4-.1-.8-.1-1.2v-.4h-.1v.2c0 .3-.1.5-.1.8-.6 2.7-1.3 4.8-2.4 6.5-2.2 3.8-5.4 6.2-9.4 7.1-1.3.3-2.7.4-4.5.4h-23.3c-.5 0-1 0-1.5.4v57.8c0 .3.1.6.2.9 0 .1.1.3.1.4h40.9zm-170.7-32.6c.4.1.8.1 1.2.2.8.1 1.7.2 2.4.3 2.9.1 6.1.3 9.2.3 4 0 7.4-.2 10.6-.7 3.1-.4 6-.9 8.8-2.1 3.2-1.4 4.5-3.6 4.3-7.1-.1-1.3-.4-2.7-.7-4l-.1-.3c-.4-1.6-.8-3.2-1.2-4.7-.6-2.4-1.2-4.9-1.8-7.4-1.1-5-.4-9.7 2.2-14.2 3.7-6.4 7.2-11.8 10.9-16.7 4.1-5.5 8-11.2 11.7-17 5.3-8.3 9-17.4 11.2-27.1 1.3-6 2-12.5 2.1-20.7.1-5.4-.4-10.4-1.4-15.2-1.1-5-2.7-9.3-4.9-13.2-4.9-8.6-12.5-14.7-22.6-18.1-5.5-1.8-11.5-2.8-18.4-2.9h-1.3c-8.6 0-17.5 1-26.5 2.9-4.5 1-8.4 2.2-12.1 3.8-2 .9-3.4 1.8-4.7 2.8-2 1.8-3 3.8-2.8 6.2 0 .7.1 1.4.1 2.1.1 2.1.2 4.3.4 6.5.8 6.4 2.4 13.3 5.2 20.9.1.3.3.6.4.9.1.1.1.2.2.3h.1c.1 0 .2 0 .3-.1.5-.2 1-.5 1.5-.8 7.2-4.1 14.7-6.2 22.4-6.2 1.5 0 2.9.1 4.4.2 3.4.3 6.1 1 8.4 2.1 4 1.8 6.6 4.8 7.8 8.7.3.9.5 1.9.7 3.1.9 6.4.2 13-2.2 19.6-1.6 4.3-3.8 8.8-6.8 13.5-3.4 5.4-6.8 10.8-10.3 16.2-3.8 5.9-7.4 12.5-11.3 20.3-2.7 5.5-4.1 10.8-4.2 16.3-.1 4.1.1 7.7.6 11.2 1.1 7.6 3.8 14.4 6.2 20.1zm-70.1-6.7c1.7 0 3.6 0 5.4-.1 4.3-.2 8.9-.5 13.9-.9 2.2-.2 4.3-.8 6.6-1.8 3-1.3 5.1-3.5 6.1-6.6.4-1.1.9-2.6 1.1-4.1.3-2.9.6-6.1.8-9.8.4-6.3.7-12.5 1.1-18.8l.5-9.2c.1-2.5.3-5 .5-7.5l.5-8.2c.3-4.4.6-8.8.8-13.2.2-3 .4-6.1.5-9.1.2-3.4.4-6.9.6-10.3.3-4.3.5-8.7.8-13 .3-4.7.6-9.3.9-14 .2-3.6.4-7.1.6-10.7.2-3.1.3-6.1.5-9.2.1-1.9.2-3.7.4-5.6.1-1.7.2-3.4.3-5.2.1-1.1.1-2.3.1-3.5l.1-1.7h-4.7c-11.3 0-20.6.2-29 .6-3.3.2-6.7.5-10.5 1-1.7.2-3.6.7-5.8 1.4-2.4.8-4 2.7-4.6 5.2-.2 1-.4 2-.4 2.8 0 1.5.1 3.1.1 4.6v.2c.2 3.4.3 6.8.5 10.2.2 4.7.5 9.3.7 14l.6 12c.2 4.2.4 8.5.6 12.7.3 5.5.6 11 .8 16.5.3 5.7.6 11.3.9 17 .3 5.4.5 10.7.7 16.1l.4 9.1c.1 2.8.3 5.5.4 8.3l.3 5.8c.4 7.7.8 15.4 1.1 23 0 .4.1.8.1 1.3 0 .2 0 .4.1.6.2 0 .4 0 .6.1.4 0 .8.1 1.2.1h1.1l2.7-.1zM814.9 154c.7.5 1.5 1 2.2 1.5.8.6 1.9 1.3 2.9 2.1 1.1.9 2 1.7 2.9 2.5 1 .9 1.8 1.8 2.5 2.6.6.6 1.1 1.3 1.8 2l.8 1v-.5-.7-36.4-.2h-.1c-.2.7-.5 1.3-.7 2-.6 1.6-1.1 3.2-1.8 4.8-1 2.4-2 4.5-3.1 6.5-1.2 2.3-2.5 4.4-3.8 6.4-1 1.4-2 2.7-3.1 4.1-.5.6-.9 1.2-1.4 1.8l.9.5zm73.7-24.3H918c.7 0 1.7 0 2.6.1 3.5.3 6.2 2.1 8 5.2.1.1.1.2.1.3.1.3.3.6.7.7v-5.1-40.7c0-.2 0-.4-.1-.6v-.2h-.3c-.2 0-.4.1-.6.1-1.9.7-4 1.1-6.4 1.1H888.7c-.3 0-.7 0-1.1.3-.2 2.1-.2 35.9.1 38.9l.9-.1zm-191.3 0h1.4c3.6.2 6.4 1.8 8.3 4.7 0 .1.1.1.1.2.1.2.2.4.6.4h.1V98.4v-7.5c0-.3-.1-.7-.1-1 0-.1 0-.3-.1-.4h-.8c-2.4.8-4.8 1-6.8 1H667.4c-.4 0-.8.1-1.3.5v37.7c0 .2 0 .4.1.6v.2c.5.3 1 .3 1.4.3h17.7l12-.1z"/><path class="st2" d="M563.4 31.8c.7.1 1.4.4 2.1.4 2.8.1 5.6.5 8.3 1 12.7 2.4 23.7 8 32.1 18.2.2.3.5.5.8.7.2-.2.3-.2.3-.3.1-.1.1-.3.1-.5.6-3.7 2.1-7 4.5-9.9 2.3-2.8 5.2-4.8 8.7-5.5 1.6-.3 3.3-.4 5-.4h82.8c2.2 0 4.2.7 6 2.1.4.3.8.5 1.2.8 3.5-2.1 7.4-2.7 11.3-2.8h34c7 0 14 .4 20.9 1.6 5.3.9 10.5 2.2 15.4 4.3 8.3 3.5 15.6 8.4 21.3 15.6 4 5 7.1 10.6 9.2 16.7.1.4.1 1 .9 1v-2.4-18.5c0-1.3 0-2.6.3-3.8.7-2.7 1.8-5.3 3.5-7.6 2.4-3.3 5.5-5.6 9.5-6.5 1.7-.4 3.5-.4 5.2-.4H927.5c3.4 0 6.5.6 9 3 .1 0 .1.1.2.1 3.8-1.5 5.8-2 8.8-2.3 3-.2 6.1-.4 9.1-.5 6.5-.1 13-.2 19.4-.2h1.6c1.6 0 3.2 0 4.9.1 4 .2 8.1 3.5 8.8 8.2.2 1.1.2 2.2.2 3.3v43c0 .3-.1.7.5.8.3-.6.6-1.2.8-1.9 2.6-6.8 5.3-13.5 7.9-20.3 3.1-8 6.2-15.9 9.3-23.9 1.4-3.6 4-5.9 7.8-6.7 3.1-.6 6.3-1.4 9.4-1.8 5.6-.8 11.2-1.1 16.8-1.1 1.7 0 3.5 0 5.2.1 3.2.1 6.4.6 9.5 1.4 2.6.7 5.2 1.7 7.3 3.4 4.8 3.8 6.8 8.7 5.8 14.8-.3 1.9-1 3.7-1.8 5.5-11.9 28.4-23.8 56.7-35.7 85.1-.3.7-.6 1.5-.9 2.3.5.6.9 1.1 1.4 1.7 4.1 4.7 7.7 9.8 10.8 15.2 5.2 8.9 9.1 18.3 12.1 28.1 4.2 13.5 6.9 27.4 8.7 41.5.1.9.2 1.8.7 3.1.3-1 .5-1.7.7-2.4 6.1-25 12.3-49.9 18.4-74.9 6.2-25.1 12.4-50.2 18.6-75.4 2.9-11.7 5.8-23.4 8.6-35.1 1.1-4.3 3.5-7.7 7.1-10.2 1.7-1.1 3.5-2 5.4-2.6 3.3-1.1 6.7-1.6 10.1-1.8 1.3-.1 2.7-.1 4-.1 5.4 0 10.7.4 16.1 1.1 1.4.2 2.9.4 4.2.8 3 .9 5.1 2.9 6.3 5.8.3.7.4 1.4.6 2.1 5.3 21.4 10.5 42.8 15.8 64.2 5.2 21.2 10.5 42.5 15.7 63.7 4.1 16.6 8.1 33.2 12.2 49.8 1.3 5.2 2.5 10.4 3.9 15.6.1.6.1 1.3.9 2v-3.4V55.3c0-.8-.1-1.6 0-2.4.1-1.6.2-3.2.5-4.8 1.2-5.4 4.4-9.1 9.9-10.6.8-.2 1.6-.4 2.3-.5 3.8-.7 7.6-.9 11.5-.9 6.6-.1 13.1-.2 19.7-.2h2.6c1.3 0 2.6 0 3.8.1 4.9.4 8.5 4.4 8.8 9.2v83.9c0 .9-.1 1.7.3 2.8 1.1.1 2.2.1 3.3.1H1280.1c1 0 2.1.1 3.1.1 1.1 0 2.1-.1 3.2-.3v-3-73.9c0-1.3 0-2.6.1-3.8.4-7.2 4.5-12.1 11.5-13.8.5-.1.9-.2 1.4-.3 3.7-.6 7.5-.9 11.2-.9 6.6-.1 13.1-.2 19.7-.2h2.8c1.2 0 2.3 0 3.5.1 3.8.3 6.6 2.2 8.1 5.8.1.2.3.3.4.5v246.5c-.1.3-.4.5-.4.8-.9 3.8-3.2 6.6-6.7 8.3-1.4.7-3 1.2-4.5 1.4-3.1.5-6.2.8-9.3.9-7.8.2-15.7.3-23.5.4h-1.5c-1.4 0-2.7 0-4-.2-5.3-.6-8.7-5.2-8.7-9.6v-2.6-95.7-2.4c0-.4-.2-.9-.3-1.5h-10c-1.1 0-2.1.1-3.2.3 0 1-.1 2-.1 2.9v90.9c0 1.4 0 2.7-.2 4.1-.5 3.7-1.9 6.9-4.8 9.4-2 1.7-4.4 2.7-6.9 3.1-2.9.5-5.9.9-8.8.9-8.7.2-17.4.3-26.1.4h-.6c-3.1 0-6-.6-8.5-2.5-.1 0-.2-.1-.3-.1-2.6 1.5-5.4 2.2-8.4 2.6-2.4.3-4.8.5-7.2.6-1.8.1-3.6.1-5.4.1-7.3 0-14.6-.4-21.9-.7-1.2 0-2.4-.2-3.5-.6-3.6-1.3-5.8-3.9-6.5-7.6-2.7-13.1-5.4-26.3-8.2-39.4-.5-2.6-1.1-5.1-1.6-7.7-.4-.1-.6-.3-.8-.3h-28.8c-.2 0-.4.1-.7.2-.2.7-.4 1.3-.5 2-2.1 10.3-4.3 20.6-6.4 31-.6 3-1.1 6-1.9 8.9-2 7.2-6.6 11.8-14 13.1-2.7.5-5.5.8-8.3.9-1.7.1-3.5.1-5.2.1-7.5 0-15-.5-22.6-1.1-2.2-.2-4.5-.3-6.3-1.1-1.9.5-3.5 1-5.1 1.3-3.5.7-7 .9-10.5.9h-2.7c-9.2 0-18.3-.7-27.5-1.1-3-.1-5.5-1.4-7.4-3.8-1.5-1.9-2.1-4.1-2.1-6.5-.1-8.1-.3-16.1-.5-24.2-.1-3.4-.3-6.9-.6-10.3-.5-6.9-1.2-13.7-2.2-20.5-.8-5.8-1.9-11.5-3.5-17.1-1.5-5.2-3.3-10.4-5.7-15.2-.2-.4-.2-.9-1-.9h-.1v80.2c0 1.8-.1 3.5-.3 5.3-1 6-4.3 10-10.2 11.7-.7.2-1.4.3-2.1.5-3.4.6-6.8.9-10.3.9l-19.9.3c-1.9 0-3.9.1-5.8.1h-.7c-3.2 0-6-1-8.1-3.5-.2-.2-.5-.4-.7-.7-.5.3-.9.7-1.4 1-2.2 1.6-4.6 2.6-7.3 2.9-1.4.1-2.9.3-4.3.3h-80c-1.1-.2-2.2-.2-3.3-.6-3.8-1.2-6.5-4.7-6.8-8.7-.1-1-.1-1.9-.1-2.9v-23.7c0-.5.3-1.1-.5-1.5-.3.5-.6 1.1-.9 1.6-1.7 2.8-3.4 5.6-5.3 8.3-9.2 12.7-21.4 21.1-36.6 25-7.2 1.9-14.5 2.5-21.9 2.5h-44.9c-2.8-.1-5.3-1-7.3-3.1-.3-.3-.7-.6-1.1-.9-2 1.6-4 2.9-6.5 3.3-1.9.3-3.8.6-5.7.6h-79.4c-1 0-2.1-.1-3.1-.3-4.4-.8-7.7-4.5-8-9-.1-1 0-2.1 0-3.1V142.3v-2.4c0-.3.1-.7-.4-.8-.1.2-.4.4-.5.7-4.3 7.4-9.2 14.4-14.2 21.4-1.5 2.1-3.2 4.2-4.6 6.4-2.2 3.3-4.2 6.8-6.3 10.2-1.4 2.3-2 4.7-1.3 7.3.1.5.2 1.1.3 1.6.9 3.6 1.8 7.1 2.7 10.7.7 2.7 1.1 5.3.9 8.1-.4 5.6-2.9 10.1-7.8 13-1.9 1.1-3.8 1.9-5.9 2.5-4.9 1.4-10 2.1-15.1 2.3-1.6.1-3.2.1-4.9.1-2.4 0-4.8 0-7.1-.1-2.2 0-4.3-.3-6.5-.5-4.2-.5-7.1-2.6-8.8-6.5-.6-1.5-1.2-2.9-1.8-4.4-3.7-9.2-5.7-18.8-5.6-28.7 0-7.8 1.8-15.2 5.2-22.2 3.8-7.7 7.9-15.2 12.5-22.4 3.1-4.9 6.3-9.8 9.4-14.8 1.6-2.6 3-5.3 4.4-8 1.7-3.4 3-7.1 3.5-10.9.3-2.9.4-5.9-.2-8.8-.3-1.6-1.2-2.6-2.7-3.1-1-.4-2.1-.7-3.2-.9-1.8-.3-3.6-.4-5.4-.4-4.3 0-8.6.9-12.7 2.7-2 .9-4 2-6 3.1-1.8 1-3.6 1.6-5.5 1.6-.6 0-1.2-.1-1.9-.2-.5-.1-.9-.1-1.5-.1-.1.5-.2 1-.2 1.5-.3 4.4-.6 8.8-.8 13.2-.6 9.3-1.1 18.7-1.6 28-.2 3-.4 6.1-.6 9.1-.4 6.5-.8 12.9-1.2 19.4-.4 6.5-.7 13.1-1.2 19.6-.1 2.1-.4 4.3-.9 6.4-1.9 9.3-7.4 15.4-16.6 18-2.5.7-5 1.2-7.5 1.4-3.8.3-7.7.6-11.5.7-4.2.2-8.3.2-12.5.2h-.1c-5.9 0-9.9-4.6-10.1-9.2-.1-1.4-.2-2.7-.3-4.1l-1.2-24.9c-.5-11.2-1.1-22.3-1.7-33.5-.4-8.4-.8-16.8-1.2-25.1-.2-3.6-.3-7.2-.5-10.8-.7-12.9-1-19.4-1.2-24.2-.4-8.1-.7-16.5-1.1-24.2-.1-1.4-.6-4.3.1-9.2.3-2 1.1-5.5 3.9-8.7 2.6-3.1 5.7-4.5 8-5.4 3-1.1 6.2-1.6 9.4-2 5.5-.6 11-.9 16.5-1 4.5-.1 9-.3 13.4-.3 3.1 0 6.2-.1 9.2-.1h4.2c3.5 0 6.4 1.4 8.5 4.2.3.4.6.7.9 1.1 1.6-.5 3.1-1.1 4.6-1.6 9.1-2.9 18.5-4.2 28-4.9 1.3-.1 2.6.1 3.8-.5 3-.1 5.9-.1 8.8-.1m-44 56.8c.2 0 .4 0 .6-.1.5-.3 1-.5 1.5-.8 7-4 14.4-6.2 22.3-6.2 1.5 0 2.9.1 4.4.2 2.9.3 5.7.8 8.3 2 3.8 1.8 6.5 4.6 7.7 8.7.3 1 .5 2 .7 3 1 6.7.1 13.2-2.2 19.6-1.7 4.7-4.1 9.2-6.8 13.5-3.4 5.4-6.8 10.8-10.3 16.2-4.2 6.6-7.9 13.4-11.3 20.3-2.6 5.1-4.1 10.6-4.2 16.3-.1 3.8.1 7.5.6 11.2 1 6.9 3.3 13.5 6.2 20 1.4.2 2.6.4 3.7.4 3.1.2 6.1.3 9.2.3 3.6 0 7.1-.2 10.7-.7 3-.4 6-.9 8.8-2.2 3.3-1.5 4.6-3.6 4.4-7.2-.1-1.4-.5-2.8-.8-4.2-1-4-2.1-8-3-12.1-1.1-5-.4-9.7 2.2-14.1 3.3-5.7 6.9-11.3 10.8-16.7 4.1-5.5 8-11.2 11.7-17 5.3-8.4 9-17.4 11.2-27.1 1.5-6.8 2-13.7 2.1-20.7.1-5.1-.3-10.2-1.4-15.2-1-4.6-2.5-9.1-4.9-13.2-5.2-9-12.9-14.8-22.7-18.1-6-2-12.1-2.8-18.4-2.9h-1.3c-8.9 0-17.8 1-26.5 2.9-4.2.9-8.2 2.1-12.1 3.8-1.7.8-3.3 1.6-4.7 2.9-1.9 1.7-3 3.7-2.9 6.3.1 2.9.2 5.8.5 8.6.8 7.2 2.7 14.1 5.2 20.9l.7 1.4M463.3 206h3.6c1.8 0 3.6 0 5.4-.1 4.6-.2 9.3-.5 13.9-.9 2.3-.2 4.5-.8 6.7-1.8 3-1.3 5.1-3.6 6.2-6.6.5-1.3.9-2.8 1.1-4.2.4-3.2.6-6.5.8-9.8.6-9.3 1.1-18.7 1.6-28 .2-3 .4-6.1.6-9.1.4-6.6.8-13.2 1.2-19.9.4-6.5.7-12.9 1.1-19.4.6-9 1.1-18 1.7-27 .4-6.6.8-13.2 1.1-19.9.2-3.6.5-7.2.7-10.8.1-1.7.1-3.3.2-5.3H504.4c-9.7 0-19.4.1-29.1.6-3.5.2-7 .5-10.5 1-2 .3-3.9.8-5.8 1.5-2.5.9-4.1 2.7-4.7 5.3-.2.9-.4 1.9-.4 2.8 0 1.6.1 3.2.1 4.8.4 8.1.8 16.1 1.2 24.2.4 8.2.7 16.4 1.2 24.7.5 11.2 1.1 22.3 1.7 33.5.4 8.4.8 16.8 1.2 25.1.2 3.4.3 6.9.5 10.3.4 8.9.9 17.9 1.3 26.8 0 .6.1 1.2.2 2 .8.1 1.4.2 2 .2m623.5 84.9c2.5 0 5-.1 7.4-.2 1.7-.1 3.5-.4 5.2-.7 3.1-.6 4.8-2.6 5.8-5.5.2-.7.3-1.4.5-2.1 2.8-13.5 5.5-26.9 8.3-40.4.5-2.4 1-4.8 1.6-7.3.6-.1 1.2-.1 1.7-.1h43.2c.5 0 1.1.1 1.7.2 3.8 18.5 7.6 36.8 11.4 55.2.5.1.9.2 1.3.2 7 .3 14 .6 20.9.6h2.8c3 0 5.9 0 8.8-.6 1.3-.3 2.7-.5 3.9-1.1 2.1-1 3-2.8 2.6-5.1-.1-.6-.2-1.1-.4-1.6-3.8-15.6-7.7-31.2-11.5-46.8l-20.4-83.1c-8.2-33.5-16.4-67-24.7-100.5-.5-1.9-1-3.9-1.5-5.9-.7-.2-1.3-.4-1.9-.5-5.1-.7-10.2-1-15.3-1-1.5 0-3 0-4.5.1-2.6.1-5.1.5-7.5 1.5-2.8 1.1-4.5 3-5.2 6.1-2.1 9.1-4.4 18.2-6.7 27.2-5 20.5-10.1 40.9-15.1 61.4-4.7 19-9.4 38-14 57l-18.6 75.6-3.3 13.5c-.2.7-.6 1.5-.1 2.4.8.1 1.5.2 2.3.2 3.2.2 6.4.4 9.6.7 3.9.5 7.8.6 11.7.6M979.5 144.1v-8.4-8.2-8.2-8.4-8.2-8.2-8.2-8.2-8.2-8.4-8.2c0-2.7.1-5.4-.1-8.4H977c-2.5 0-5 0-7.4.1-6.3.1-12.6.2-18.9.4-2.3.1-4.6.5-6.9.8-3.1.4-4 2.5-4.1 4.8v237.4c0 .5.1.9.2 1.4.6 0 1.1.1 1.5.1 9.6 0 19.2 0 28.8-.5 1.9-.1 3.8-.5 5.7-.8 2.1-.3 3.2-1.7 3.5-3.7.2-1.3.2-2.5.2-3.8V178.7v-2.4c0-.3.1-.6.1-.8.2-.1.2-.1.3-.1.4.1.8.2 1.1.4 3.2 1.7 6 3.9 8.4 6.6 4.4 4.9 7.9 10.5 10.7 16.4 3.2 6.9 5.5 14.1 7.2 21.5 2.3 10.1 3.5 20.3 4.3 30.6.5 7.2.8 14.5 1.1 21.8.2 5 .2 10.1.3 15.1 0 .5.2 1.1.2 1.6.6.1 1.1.1 1.6.1 3.7.2 7.3.3 11 .6 4.3.3 8.6.4 12.9.4 2.7 0 5.5-.1 8.2-.2 1.8-.1 3.7-.4 5.4-.8 3.3-.8 4.7-2.5 5-5.9.1-1.7 0-3.5 0-5.3 0-13.7-.8-27.3-2.4-40.9-1.2-10.2-3-20.4-5.4-30.4-2.5-10.4-5.8-20.6-10.5-30.3-4.7-9.9-10.7-18.9-18.7-26.5-.2-.2-.4-.5-.7-.8.3-.7.6-1.5.9-2.2 4.4-10.5 8.8-21.1 13.2-31.6 8.4-20 16.8-39.9 25.1-59.9.3-.8.7-1.6.9-2.5.7-2.5-.1-4.6-2.3-6-1.1-.7-2.3-1.2-3.5-1.5-2-.5-4.1-.9-6.1-1-2.1-.1-4.3-.2-6.4-.2-5.4 0-10.9.4-16.3 1.2-2.6.4-5.2.8-7.7 1.7-.4.9-.7 1.7-1 2.5-7.6 19.3-15.1 38.7-22.6 58-4.4 11.3-8.8 22.6-13.3 33.9-.2 1.2-.3 1.8-1.1 2.3M704.9 45.4H623.8c-2 .2-3.7 1-4.8 2.7-1.2 1.8-2.2 3.7-2 6V288.9c0 .4.2.9.3 1.4h80.5c.7 0 1.4 0 2.2-.1 2.4-.3 4-1.6 4.5-4 .3-1.6.6-3.3.7-5 .6-8.1.4-16.3.5-24.4 0-.5-.1-.9-.2-1.5-1 0-1.9-.1-2.7-.1h-33.4-11.3c-.5 0-1-.1-1.5-.2-.3-2.2-.5-71.4-.2-78 0-.4.1-.8.2-1.1.5-.2 1.1-.3 1.6-.3H692c2.5 0 4.3-1.2 5.1-3.6.5-1.4.8-2.9 1-4.4.8-8.7.7-17.4.7-26.1 0-.5-.2-1.1-.3-1.7H659.7c-1 0-2.1 0-3.1-.2-.4-.9-.2-1.8-.2-2.7V83.4 82c0-.5.1-.9.2-1.4.6-.2 1.2-.2 1.8-.2H699.2c1 0 1.9 0 2.9-.1 2.4-.1 4.1-1.4 4.7-3.7.4-1.7.7-3.4.9-5.2.7-8.1.5-16.3.5-24.4 0-.5-.1-.9-.2-1.4-.6-.2-1.1-.3-1.7-.3-.6 0-1 .1-1.4.1m133.6 244.9H918.8c.8 0 1.6 0 2.4-.1 2.4-.3 4-1.6 4.5-4 .3-1.5.6-3 .7-4.5.7-8.4.5-16.8.5-25.2 0-.4-.1-.7-.2-1.2-1 0-1.8-.1-2.7-.1h-28.5-15.8c-.6 0-1.2-.1-1.8-.2-.4-2.6-.6-60.2-.2-77.6 0-.5.1-1.1.2-1.6.6-.2 1.1-.3 1.6-.3H913.2c2.6 0 4.4-1.3 5.2-3.7.5-1.3.8-2.8.9-4.2.8-8.7.6-17.4.8-26.1 0-.5-.1-1.1-.2-1.7h-42.1c0-1.3-.1-2.2-.1-3.2v-53-1.7c0-.4.2-.9.3-1.5h42.6c1 0 2.1 0 3.1-.1 2.2-.2 3.8-1.4 4.3-3.5.4-1.7.8-3.4.9-5.2.7-8.3.5-16.6.5-24.9 0-.4-.1-.8-.2-1.3-1 0-1.8-.1-2.7-.1h-81.2c-2.2.1-4 1.1-5.2 3-1.2 1.8-2 3.8-1.9 6.1.1.7 0 1.4 0 2.2V288.9c0 .4.2.9.3 1.4m387.5 0h8.2c6.6-.1 13.1-.2 19.7-.5 2-.1 4-.5 5.9-.8 1.8-.3 2.8-1.5 3-3.3.2-1.3.3-2.5.3-3.8v-99.7-2.6c0-.3.1-.6.2-1 .6 0 1.1-.1 1.7-.1H1294.8c.5 0 1.1.1 1.8.2 0 1.2.1 2.3.1 3.4V289c0 .4.1.8.2 1.2.7 0 1.3.1 1.9.1 9.3 0 18.6 0 27.8-.5 1.8-.1 3.7-.3 5.5-.7 2.5-.5 3.4-1.5 3.7-4.1.1-1.3.1-2.6.1-3.8V48.9v-2.2c0-.4-.1-.8-.2-1.2-.7-.1-1.3-.1-1.9-.1-2.9 0-5.8 0-8.6.1-6 .1-12 .2-18 .4-2.2.1-4.4.5-6.7.8-2.3.3-3.4 1.8-3.7 4.1-.1 1.3-.2 2.6-.2 3.8V140.2c0 .4-.2.9-.3 1.3-.5 0-.8.1-1.1.1-10.5 0-21 0-31.4-.1-.1 0-.1 0-.2-.1-.1 0-.1-.1-.3-.2-.3-.9-.2-2-.2-3V49v-2.2c0-.5-.2-.9-.3-1.5-.8 0-1.5-.1-2.2-.1h-.2l-20.6.3c-3.4.1-6.7 0-10.1.5-1 .2-2 .3-3.1.6-1.2.3-2 1.1-2.3 2.2-.2.8-.4 1.6-.4 2.3-.1.9 0 1.8 0 2.6V288.4c0 .5.1.9.2 1.4.7.4 1.3.5 1.9.5m-507.8 0H763.6c5.1 0 10.2-.4 15.3-1.4 8.4-1.6 16-4.9 22.8-10 7.2-5.4 12.7-12.4 16.8-20.3 4.5-8.6 7.2-17.7 8.7-27.3.8-5.1 1.4-10.3 1.7-15.5.4-7.7.4-15.3-.8-23-.9-5.8-2.7-11.3-5.5-16.5-4.8-8.7-12-14.4-21.4-17.4-3.5-1.1-7.1-1.8-10.8-2.7.5-.2 1-.4 1.5-.5 3.3-.9 6.2-2.5 9-4.4 4.3-3.1 7.7-6.9 10.5-11.4 4.6-7.5 7.4-15.5 8.7-24.2.9-6.4 1.1-12.9 1-19.4-.1-5-.7-10-1.9-14.9-2.2-9.1-6.6-17-13.7-23.1-5.8-5-12.5-8.2-19.9-10-6.9-1.7-13.8-2.6-20.9-2.7-7-.1-13.9-.1-20.9-.1h-16.3c-1.7 0-3.5.3-5.2.7-2.7.7-4.1 2.6-4.3 5.4-.1.9 0 1.8 0 2.6V289c0 .3.1.8.2 1.3M922 90.4H888.7c-.4 0-.8.1-1.2.4-.3 2.2-.3 36.8.1 39.1 1 0 1.8.1 2.7.1h27.6c.9 0 1.8 0 2.6.1 3.5.3 6.1 2.1 7.9 5.1.2.4.3.9 1 1v-46c0-.3-.1-.6-.2-1-.4.1-.7.1-1 .2-1.9.7-4 1-6.2 1m-221.9 0H686.2h-18.5c-.5 0-.9.1-1.4.5v37.7c0 .3.1.6.2.9.5.3 1 .3 1.5.3h30.8c3.5.2 6.3 1.7 8.2 4.7.2.3.3.7.8.7h.2v-2.6-31.9-9.8c0-.5-.1-1-.2-1.5-.4 0-.7 0-.9.1-2.3.7-4.5.9-6.8.9m128 75.6c.1-.9.1-1.2.1-1.5v-36.4c0-.1 0-.2-.1-.2 0 0-.1-.1-.3-.1-.8 2.3-1.6 4.6-2.6 6.9-.9 2.2-1.9 4.4-3.1 6.5-1.2 2.2-2.4 4.3-3.8 6.4-1.4 2-3 3.9-4.6 6 1.1.7 2.2 1.4 3.2 2.1 1 .7 2 1.4 2.9 2.1 1 .8 2 1.6 2.9 2.5.9.8 1.7 1.7 2.5 2.6 1 .8 1.8 1.8 2.9 3.1m73.1 19.5H889c-.5 0-1 .1-1.5.5v59.2c1 0 1.8.1 2.5.1h27.6c3.9 0 7.8 0 11.8.1 0-.7.1-1.4.1-2.1v-74.1c0-1.1-.1-2.2-.1-3.3-.4 1.8-.6 3.7-.9 5.5-.4 2.4-1.1 4.7-2.4 6.7-2.1 3.6-5.2 6-9.3 7-1.5.3-3 .4-4.5.4h-11.1m-220.9 0H668c-.5 0-1.1.1-1.7.5v57.8c0 .5.2.9.3 1.4h41.3c.4-2.5.6-56.8.2-73.1 0-.6-.1-1.2-.1-1.8h-.3c-.1.4-.1.7-.2 1.1-.5 2.3-1.1 4.5-2.3 6.5-2.1 3.6-5.2 6.1-9.3 7-1.5.3-3 .4-4.5.4-3.9.2-7.5.2-11.1.2M563.4 31.6H554.6c-.8.4-1.7.4-2.7.4h-1c-10.7.7-19.9 2.3-28.1 4.9-1 .3-2 .7-3.1 1.1-.4.2-.9.3-1.3.5-.1-.1-.1-.2-.2-.3-.2-.3-.4-.5-.6-.7-2.1-2.9-5-4.3-8.7-4.3h-4.2c-3 0-6.1 0-9.2.1-2.4 0-4.7.1-7.1.2-2.1.1-4.3.1-6.4.2-6.3.1-11.6.4-16.5 1-2.6.3-6.1.8-9.4 2-2.2.8-5.4 2.2-8.1 5.4-2.7 3.2-3.6 6.6-4 8.9-.6 4-.3 6.7-.2 8.3 0 .3.1.6.1.9.2 3.6.3 7.3.5 11.2.2 4.3.4 8.7.6 12.9.2 3.1.4 6.8.6 12.5.2 3.2.4 7 .6 11.7.2 3.6.4 7.2.5 10.8.1 3.1.3 6.1.4 9.2.2 5.3.5 10.6.7 15.9.3 5.6.6 11.3.8 16.9.3 5.5.6 11.1.8 16.6.2 5.1.5 10.1.7 15.2.1 3.2.3 6.5.4 9.7 0 .7.1 1.4.1 2.1 0 .7.1 1.3.1 2 .2 4.6 4.2 9.4 10.3 9.4h.1c3.9 0 8.2 0 12.5-.2 3-.1 6.1-.3 9.1-.5.8-.1 1.6-.1 2.4-.2 2.4-.2 4.9-.6 7.6-1.4 9.1-2.6 14.8-8.8 16.7-18.2.4-2.1.7-4.2.9-6.4.3-4 .5-8.1.7-12.1.1-2.5.3-5 .4-7.6.2-4.1.5-8.3.8-12.4.1-2.3.3-4.6.4-7 .2-3 .4-6.1.6-9.1.2-3.5.4-7.1.6-10.6.3-5.8.7-11.6 1-17.4.2-4 .5-8 .8-11.9l.1-1.2c0-.3.1-.6.1-.9v-.3h.3c.3 0 .6 0 .9.1.6.1 1.3.2 1.9.2 1.8 0 3.7-.5 5.6-1.6 2.3-1.3 4.2-2.3 5.9-3.1 4-1.8 8.2-2.7 12.6-2.7 1.7 0 3.5.1 5.3.4 1.1.2 2.2.5 3.2.9 1.4.5 2.2 1.5 2.5 2.9.7 3.2.5 6.4.2 8.7-.4 3.6-1.5 7.1-3.4 10.8-1.5 3-2.9 5.6-4.4 7.9-3 4.8-6.1 9.7-9.1 14.4l-.2.4c-4.3 6.8-8.4 14.1-12.5 22.4-3.4 7-5.2 14.5-5.2 22.3 0 9.8 1.8 19.2 5.6 28.8.6 1.5 1.2 3 1.8 4.4 1.7 3.9 4.7 6.2 9 6.6 2.3.3 4.4.5 6.5.5 2.4.1 4.8.1 7.1.1 1.8 0 3.4 0 4.9-.1 5.6-.2 10.6-1 15.2-2.3 2.3-.7 4.2-1.5 6-2.6 4.8-2.9 7.5-7.4 7.9-13.2.2-2.6-.1-5.2-.9-8.1-.7-2.6-1.4-5.3-2-7.9-.2-.9-.5-1.8-.7-2.8-.1-.3-.1-.5-.2-.8 0-.3-.1-.6-.2-.9-.6-2.4-.2-4.8 1.2-7.1.6-.9 1.2-1.9 1.7-2.8 1.5-2.4 3-4.9 4.6-7.3 1.1-1.7 2.3-3.3 3.5-4.9.4-.5.7-1 1.1-1.5 4.5-6.2 9.7-13.6 14.2-21.4.1-.2.2-.3.3-.5v-.1c.1.1.1.2.1.3v151.5c.3 4.6 3.7 8.4 8.2 9.2 1 .2 2.1.3 3.1.3h79.4c2 0 4-.3 5.7-.6 2.6-.5 4.7-1.9 6.4-3.2l.2.2c.3.2.5.4.7.6 1.9 2 4.4 3 7.5 3.2h44.8c8.6 0 15.5-.8 21.9-2.5 15.2-4 27.6-12.4 36.8-25.1 1.3-1.8 2.6-3.8 3.7-5.8.5-.9 1-1.7 1.6-2.5.2-.4.4-.7.7-1.1.1-.1.1-.2.2-.3.3.2.3.5.2.8V288.4c0 .9 0 1.8.1 2.6.3 4.1 3.1 7.7 7 8.9.8.3 1.7.4 2.6.5.2 0 .5.1.7.1h79.9c1.5 0 2.9-.1 4.3-.3 2.7-.3 5.2-1.3 7.4-2.9.3-.2.6-.4.9-.7l.3-.2.1.1c.2.1.3.3.4.4 2.1 2.3 4.9 3.5 8.3 3.5h6.5l4-.1c5.3-.1 10.6-.1 15.9-.2 4-.1 7.2-.4 10.3-.9.8-.1 1.5-.3 2.1-.5 5.8-1.6 9.3-5.6 10.4-11.9.3-1.8.3-3.6.3-5.3V204v-2.5c.3.1.4.3.5.5 0 .1.1.2.1.2 2.2 4.5 4.1 9.5 5.7 15.2 1.4 5 2.5 10.5 3.5 17.1.9 6.2 1.6 12.9 2.2 20.5.3 3.9.5 7.2.6 10.3.2 7.9.4 16.1.5 24.2 0 2.7.8 4.8 2.2 6.6 2 2.5 4.5 3.8 7.6 3.9 2.9.1 5.8.3 8.7.4 6.2.3 12.5.6 18.8.6h2.7c3.4-.1 7-.2 10.5-.9 1.1-.2 2.2-.5 3.4-.9.5-.1 1.1-.3 1.6-.5 1.7.8 3.8.9 5.8 1.1h.5c6.8.6 14.7 1.1 22.6 1.1 1.8 0 3.6 0 5.2-.1 2.7-.1 5.5-.4 8.4-.9 7.4-1.3 12.1-5.8 14.2-13.3.6-2.1 1-4.3 1.4-6.4.2-.8.3-1.7.5-2.5 1-5 2.1-10 3.1-15 1.1-5.3 2.2-10.7 3.3-16 .1-.5.2-.9.4-1.4 0-.2.1-.3.1-.5.1 0 .1 0 .2-.1s.3-.1.4-.1h28.8c.1 0 .2.1.4.1.1 0 .1.1.2.1l.5 2.3c.4 1.7.7 3.5 1.1 5.3l3.5 16.9c1.6 7.5 3.1 15 4.7 22.5.8 3.9 3.1 6.5 6.7 7.8 1.1.4 2.3.6 3.6.6 1.8.1 3.6.1 5.4.2 5.4.2 11 .5 16.5.5 1.9 0 3.7 0 5.4-.1 2.4-.1 4.9-.3 7.2-.6 3.3-.4 6.1-1.3 8.4-2.6h.1c2.3 1.7 5 2.6 8.6 2.6h.6c3.8-.1 7.7-.1 11.5-.2 4.8-.1 9.8-.1 14.7-.3 3.1-.1 6.2-.5 8.8-.9 2.7-.4 5.1-1.5 7-3.2 2.7-2.4 4.4-5.6 4.9-9.6.2-1.3.2-2.7.2-4v-.1V191v-1.9-.8c1.1-.2 2.2-.2 3-.2h10c0 .1.1.2.1.4.1.3.1.6.2.9v100.7c0 4.4 3.3 9.2 8.9 9.9 1.2.1 2.4.2 4.1.2h5c6.6-.1 13.4-.2 20-.4 3.4-.1 6.8-.5 9.3-.9 1.5-.2 3.1-.7 4.6-1.5 3.6-1.8 5.9-4.6 6.8-8.4 0-.2.1-.3.2-.5.1-.1.1-.2.2-.3V41.8l-.1-.1-.2-.2c-.1-.1-.2-.2-.2-.3-1.5-3.6-4.3-5.6-8.3-6-1-.1-2.1-.1-3.5-.1h-2.8c-7.1.1-13.5.1-19.7.2-4.5.1-8 .3-11.3.9-.4.1-.9.2-1.4.3-7.1 1.7-11.3 6.7-11.7 14-.1 1.3-.1 2.6-.1 3.8V131c-.9.2-1.8.2-3 .2h-6.8c-1.2 0-2.2 0-3.2-.1-.2-.7-.2-1.3-.2-2v-.6V46.3v-1.8c-.3-5-4-9-9-9.5-1.4-.1-2.8-.1-3.9-.1h-2.7c-6.4 0-13 .1-19.7.2-4.7.1-8.2.3-11.5.9-.9.1-1.6.3-2.4.5-5.4 1.5-8.8 5.1-10.1 10.8-.3 1.2-.4 2.5-.4 3.7 0 .4 0 .7-.1 1.1v186.6c-.2-.3-.3-.7-.4-1 0-.1 0-.2-.1-.4-1.2-4.7-2.3-9.4-3.5-14l-.4-1.6-4.5-18.4c-2.6-10.5-5.1-20.9-7.7-31.4-3.4-13.8-6.8-27.6-10.2-41.3l-5.5-22.4-5.3-21.7c-3.5-14.2-7-28.3-10.5-42.5l-.1-.2c-.2-.6-.3-1.3-.6-1.9-1.3-3-3.4-5-6.5-5.9-1.3-.4-2.7-.7-4.3-.9-5.9-.7-11.1-1.1-16.1-1.1-1.4 0-2.7 0-4 .1-3.9.2-7.2.7-10.2 1.8-2.1.7-3.9 1.6-5.4 2.7-3.7 2.6-6.1 6-7.2 10.3l-3.3 13.6c-1.8 7.2-3.5 14.4-5.3 21.6-2.6 10.4-5.1 20.7-7.7 31.1-3.6 14.8-7.3 29.5-10.9 44.3-3.7 15.1-7.4 30.3-11.2 45.4l-7.3 29.5c-.1.4-.2.9-.4 1.4 0 .1 0 .1-.1.2-.2-.8-.3-1.4-.4-2.1v-.2c-1.9-15.2-4.8-28.8-8.7-41.5-3.3-10.5-7.2-19.7-12.1-28.2-3.2-5.5-6.8-10.7-10.8-15.3-.3-.4-.6-.7-.9-1.1-.1-.1-.2-.3-.4-.4.1-.2.2-.4.2-.6l.6-1.5c11.3-27 22.7-54.1 34-81.1l1.7-3.9c.8-1.8 1.5-3.6 1.8-5.5 1-6.1-1-11.2-5.9-15-2-1.5-4.3-2.6-7.4-3.5-2.9-.8-6.1-1.3-9.5-1.4-1.7-.1-3.5-.1-5.2-.1-5.7 0-11.4.4-16.8 1.1-2.4.3-4.9.8-7.2 1.4-.7.2-1.5.3-2.2.5-3.8.8-6.5 3.1-8 6.9-2.2 5.7-4.4 11.3-6.6 16.9l-2.7 6.9-1.7 4.4c-2.1 5.3-4.1 10.6-6.2 15.9-.2.4-.4.9-.6 1.3-.1.1-.1.2-.2.4-.1-.1-.1-.2-.1-.4v-.1-11.4-31.5c0-1.2-.1-2.3-.2-3.4-.7-5-5.1-8.2-9-8.4-1.4-.1-3-.1-4.9-.1h-3c-5.9 0-12 .1-18 .2-2.9.1-5.7.2-9.1.5-3.1.2-5.2.9-8.8 2.2h-.1c-2.3-2.1-5.1-3-9.2-3h-80.7c-1.5 0-3.4.1-5.3.5-3.8.8-7.1 3.1-9.6 6.6-1.7 2.3-2.8 4.9-3.5 7.7-.3 1.2-.3 2.5-.3 3.9v20.5c-.2-.1-.3-.3-.3-.5 0-.1 0-.2-.1-.2-2.1-6.1-5.2-11.7-9.3-16.8C813 50.1 806 45 797 41.2c-4.5-1.9-9.4-3.3-15.5-4.3-6.3-1.1-13.2-1.6-20.9-1.6h-33.9c-4.5.1-8.1.9-11.3 2.8-.1-.1-.2-.1-.3-.2-.3-.2-.5-.3-.8-.5-1.8-1.3-3.9-2.1-6.2-2.1H625.4c-2 0-3.6.1-5.1.4-3.5.7-6.5 2.6-8.9 5.6-2.4 3-3.9 6.4-4.5 10.1 0 .1-.1.3-.1.4l-.1-.1c-.2-.1-.4-.3-.5-.5-8-9.7-18.5-15.7-32.2-18.3-3.1-.6-5.8-.9-8.4-1-.5 0-.9-.1-1.4-.2-.3 0-.6-.1-.8-.1zm-43.9 56.7c0-.1-.1-.1-.1-.2-.1-.3-.3-.6-.4-.8-2.7-7.6-4.4-14.4-5.2-20.8-.3-2.1-.3-4.4-.4-6.5 0-.7-.1-1.4-.1-2.1-.1-2.3.8-4.3 2.8-6.1 1.2-1.1 2.6-1.9 4.6-2.8 3.6-1.6 7.6-2.9 12-3.8 8.9-1.9 17.9-2.9 26.5-2.9h1.3c6.9.1 12.9 1 18.3 2.9 10.1 3.4 17.7 9.5 22.6 18 2.2 3.9 3.8 8.1 4.9 13.1 1 4.8 1.5 9.8 1.4 15.2-.1 8.1-.8 14.7-2.1 20.7-2.2 9.6-5.9 18.7-11.2 27-3.7 5.8-7.6 11.5-11.7 17-3.6 4.9-7.2 10.3-10.9 16.7-2.6 4.5-3.3 9.3-2.2 14.3.5 2.5 1.2 5 1.8 7.4.4 1.6.8 3.2 1.2 4.7l.1.3c.3 1.3.6 2.6.7 3.9.3 3.5-1 5.5-4.2 7-2.7 1.2-5.7 1.7-8.8 2.1-3.2.5-6.7.7-10.6.7-3.1 0-6.3-.1-9.2-.3-.8 0-1.6-.1-2.4-.3-.4-.1-.7-.1-1.1-.2-2.4-5.6-5.1-12.4-6.1-19.8-.5-3.5-.7-7.1-.6-11.2.1-5.5 1.5-10.8 4.2-16.2 3.8-7.7 7.5-14.4 11.3-20.3 3.4-5.4 6.9-10.8 10.3-16.2 3-4.7 5.2-9.1 6.8-13.5 2.4-6.6 3.2-13.2 2.2-19.7-.2-1.1-.4-2.1-.7-3.1-1.2-4-3.8-7-7.9-8.8-2.3-1.1-5-1.7-8.4-2.1-1.5-.1-3-.2-4.4-.2-7.7 0-15.3 2.1-22.4 6.2-.5.3-1 .5-1.5.8-.1-.1-.2-.1-.4-.1.1 0 .1 0 0 0zm-57.9 117.3c0-.2 0-.3-.1-.5-.1-.4-.1-.9-.1-1.3-.4-8.2-.8-16.4-1.2-24.5l-.1-2.3-.1-2c-.1-2.8-.3-5.5-.4-8.3-.1-3-.3-6-.4-9.1-.2-5.4-.5-10.7-.7-16.1-.3-5.7-.6-11.3-.9-17-.3-5.5-.6-11-.8-16.5-.2-4.2-.4-8.4-.6-12.7l-.6-12c-.2-4.7-.5-9.4-.7-14-.2-3.4-.3-6.7-.5-10.1V59c-.1-1.5-.2-3.1-.1-4.6 0-.8.1-1.7.4-2.8.6-2.5 2.1-4.3 4.5-5.2 2.1-.7 4-1.2 5.7-1.4 3.8-.5 7.2-.8 10.5-1 8.5-.4 17.7-.6 29.1-.6h4.6c0 .5 0 1.1-.1 1.6 0 1.2-.1 2.3-.1 3.5-.1 1.7-.2 3.5-.3 5.2-.1 1.9-.3 3.7-.4 5.6-.2 3.1-.4 6.1-.5 9.2-.2 3.5-.4 7.1-.6 10.6-.3 4.7-.6 9.4-.9 14-.3 4.3-.5 8.7-.8 13-.2 3.4-.4 6.9-.6 10.3-.2 3-.3 6.1-.5 9.1-.3 4.4-.5 8.8-.8 13.2l-.4 6.7-.1 1.6c-.2 2.5-.3 5-.5 7.4-.2 3-.4 6.1-.5 9.1-.4 6.2-.7 12.6-1.1 18.8-.2 3.6-.5 6.8-.8 9.8-.2 1.5-.7 3-1.1 4.1-1.1 3-3.1 5.2-6.1 6.5-2.3 1-4.4 1.6-6.6 1.8-5 .4-9.5.7-13.9.9-1.8.1-3.6.1-5.4.1h-3.4v.2-.2c-.4 0-.8 0-1.2-.1-.5.2-.6.2-.8.2zm601.7 83.8c-.2-.6-.1-1.2.1-1.7 0-.1.1-.3.1-.4.8-3.1 1.5-6.2 2.3-9.3l1-4.2 7-28.3c3.9-15.8 7.8-31.5 11.6-47.3 4.7-19 9.4-38 14-57l9.2-37.5 5.9-23.9c.6-2.5 1.2-5 1.9-7.5 1.6-6.5 3.3-13.1 4.8-19.7.7-2.8 2.3-4.8 5.1-5.9 2.2-.9 4.7-1.4 7.4-1.5 1.5-.1 3-.1 4.5-.1 5.4 0 10.4.3 15.3 1l1.2.3c.2 0 .3.1.5.1.2.6.3 1.2.5 1.8.3 1.3.7 2.6 1 4 3.2 13.1 6.4 26.1 9.6 39.2 5 20.4 10 40.9 15.1 61.3 4.1 16.7 8.2 33.3 12.3 50l8.1 33c3.2 13.2 6.5 26.4 9.7 39.5l1.8 7.2c.2.6.3 1.1.3 1.6.4 2.3-.4 4-2.4 4.9-1.2.5-2.6.8-3.8 1.1-2.7.5-5.5.5-8.2.6h-3.4c-7.3 0-14.7-.3-20.9-.6-.2 0-.5-.1-.8-.1-.1 0-.2 0-.3-.1l-10.8-52.2-.6-2.8v-.2h-.2c-.2 0-.4-.1-.6-.1-.4-.1-.8-.1-1.1-.1h-43.2c-.4 0-.8 0-1.1.1-.2 0-.4 0-.6.1h-.2v.2l-.5 2.4c-.4 1.7-.7 3.3-1.1 4.9-1.6 7.6-3.1 15.3-4.7 22.9l-3.6 17.5-.1.4c-.1.6-.2 1.2-.4 1.7-1 3.1-2.8 4.8-5.6 5.3-1.8.3-3.5.6-5.2.7-2.5.1-5 .2-7.4.2-3.9 0-7.9-.1-11.7-.4l-4.5-.3c-1.7-.1-3.4-.2-5.1-.4-.5 0-1.1-.1-1.6-.2-.2-.2-.4-.2-.6-.2zm-45.5-241.2c2.5-.8 5.1-1.3 7.6-1.6 5.4-.8 10.9-1.2 16.3-1.2 2.1 0 4.3.1 6.4.2 2.2.1 4.4.6 6.1 1 1.1.3 2.3.8 3.4 1.5 2.1 1.3 2.9 3.2 2.2 5.7-.2.8-.5 1.6-.9 2.3v.1l-13.5 32.1c-3.9 9.2-7.8 18.5-11.6 27.7l-11.1 26.4-2.2 5.2-.6 1.5-.3.7-.1.1.1.1c.1.1.2.2.2.3.1.2.3.4.5.5 7.4 7.1 13.5 15.8 18.6 26.4 4.2 8.8 7.7 18.7 10.4 30.2 2.3 9.6 4.1 19.6 5.4 30.4 1.6 13.3 2.4 27 2.4 40.9v1.4c0 1.3 0 2.6-.1 3.8-.3 3.3-1.6 4.9-4.8 5.7-1.9.5-3.7.7-5.4.8-2.7.1-5.5.2-8.2.2-4.3 0-8.6-.1-12.9-.4-2.4-.1-4.8-.3-7.2-.4-1.3-.1-2.6-.1-3.8-.2-.3 0-.6 0-1-.1h-.4c0-.1 0-.2-.1-.3-.1-.4-.1-.7-.1-1 0-1.8-.1-3.6-.1-5.4-.1-3.2-.1-6.5-.2-9.7l-.1-1.8c-.3-6.6-.5-13.3-1-20-.9-11.9-2.2-21.6-4.3-30.6-1.8-8-4.1-15-7.2-21.6-2.9-6.2-6.5-11.7-10.7-16.5-2.5-2.8-5.4-5.1-8.5-6.7-.3-.2-.6-.2-.9-.3l-.2-.1h-.1c-.1 0-.2 0-.3.1 0 0-.1 0-.1.1l-.1.1V176.1c0 .2-.1.4-.1.6v104.8c0 1.5-.1 2.7-.2 3.8-.3 2-1.4 3.2-3.3 3.5-.5.1-.9.1-1.4.2-1.4.2-2.9.5-4.3.5-9.2.5-18.1.5-28.8.5h-1.4v-.3c-.1-.3-.1-.6-.1-.9V53.9v-2.4c.1-2.8 1.4-4.2 3.9-4.6.4-.1.8-.1 1.1-.2 1.9-.3 3.8-.6 5.7-.6 4.8-.2 9.7-.2 14.4-.3 1.5 0 3 0 4.6-.1 1.8 0 3.7 0 5.5-.1H979c.2 2 .1 3.9.1 5.7V145l.4-.3c.8-.5 1-1.1 1.1-1.6 0-.1.1-.2.1-.3l2.1-5.3c3.7-9.5 7.5-19.1 11.2-28.6l11.1-28.5 11.5-29.5c.2-.6.4-1.1.7-1.7l.5-1zm-312.9-2.6h1.2c.4 0 .9 0 1.4.2v.3c0 .3.1.6.1.9v6.4c0 5.9 0 12-.5 18-.1 1.6-.4 3.3-.9 5.1-.5 2.2-2 3.4-4.5 3.5-1 .1-1.9.1-2.9.1H658c-.5 0-1.2 0-1.9.2h-.2v.2c0 .1 0 .3-.1.4-.1.3-.1.6-.1 1v55.5c0 .7-.1 1.4.3 2.2l.1.1h.1c.9.1 1.9.2 3.2.2H698c0 .1.1.3.1.4.1.4.1.7.1 1v1c0 8.2 0 16.7-.7 25.1-.1 1.5-.5 3-.9 4.4-.8 2.3-2.4 3.4-4.9 3.4H658c-.5 0-1.1 0-1.7.3l-.1.1v.1c0 .1 0 .2-.1.4-.1.3-.1.5-.1.8-.3 6.7-.1 76 .2 78.1v.2h.2c.1 0 .3 0 .4.1.4.1.7.1 1.1.1H705c0 .1 0 .2.1.3.1.3.1.6.1.9v5c0 6.4 0 12.9-.5 19.4-.1 1.5-.3 3-.7 4.9-.4 2.2-1.9 3.5-4.2 3.8-.8.1-1.5.1-2.1.1h-80.3c0-.1-.1-.2-.1-.3-.1-.3-.2-.6-.2-.9v-1.5V56.3v-.8-1.6c-.1-2.4 1-4.4 2-5.9 1.1-1.6 2.7-2.5 4.6-2.6H656c16.3.2 32.6.2 48.9.2zm133.8 244.5c0-.1-.1-.2-.1-.3-.1-.3-.2-.6-.2-.9v-1.5V56.7 56v-1.5c-.2-2.4.9-4.4 1.8-5.9 1.2-1.8 2.8-2.8 5-2.9h81.2c.6 0 1.2 0 1.8.1h.7c0 .1 0 .2.1.3.1.3.1.5.1.7v5.5c0 6.4 0 12.9-.5 19.4-.1 1.6-.4 3.3-.9 5.1-.5 2-1.9 3.2-4.1 3.3-.9.1-1.8.1-3.1.1H877.7v.2c0 .2-.1.4-.1.5-.1.4-.2.7-.2 1V139.9h42.1c0 .2.1.3.1.4.1.4.1.7.1 1.1-.1 2.4-.1 4.9-.1 7.3-.1 6.2-.1 12.5-.7 18.8-.1 1.4-.4 2.8-.9 4.1-.8 2.4-2.5 3.6-5 3.6h-33.6c-.5 0-1.1 0-1.7.3l-.1.1v.1c0 .2 0 .4-.1.5 0 .4-.1.8-.1 1.1-.3 17.7-.2 75 .3 77.6v.2h.2c.2 0 .3 0 .5.1.4.1.8.1 1.3.1h46.9c0 .1 0 .2.1.3.1.3.1.5.1.7v4.7c0 6.7 0 13.6-.5 20.4-.1 1.3-.3 2.7-.7 4.5-.4 2.2-1.9 3.5-4.3 3.8-.8.1-1.6.1-2.4.1h-80.2v.3zm385.5-.1v-.3c0-.3-.1-.6-.1-.9V54.1v-.6-2c.1-.7.2-1.5.4-2.3.3-1.1 1-1.8 2.1-2.1.9-.2 1.8-.4 3-.6 2.9-.4 5.8-.5 8.6-.5h1.4l20.6-.3H1262.4c0 .1 0 .2.1.3.1.3.1.6.2.9v92c0 .8-.1 1.6.2 2.3v.1h.1l.1.1c.1.1.1.1.2.1.1.1.2.1.3.1 10.5 0 21 0 31.4.1.2 0 .4 0 .7-.1.1 0 .3 0 .4-.1h.2v-.2c0-.1.1-.3.1-.4.1-.3.2-.6.2-1v-1.8-17-66.8c0-1.3.1-2.6.2-3.8.2-2.3 1.4-3.6 3.4-3.9l1.8-.3c1.6-.2 3.2-.5 4.8-.5 4.7-.2 9.6-.2 14.2-.3 1.3 0 2.5 0 3.8-.1 2.7 0 5.4-.1 8.6-.1.4 0 .8 0 1.3.1h.5v.3c.1.3.1.5.1.8v234.4c0 1.3 0 2.5-.1 3.8-.3 2.4-1.1 3.4-3.5 3.8-1.8.4-3.6.6-5.4.7-9.3.5-18.7.5-27.8.5-.4 0-.8 0-1.3-.1h-.5c0-.1 0-.2-.1-.2-.1-.3-.1-.5-.1-.8v-25.2-81.7-2.3-1.3h-.2c-.2 0-.4-.1-.6-.1-.4-.1-.8-.1-1.1-.1H1264.8c-.4 0-.7 0-1.1.1-.2 0-.4 0-.6.1h-.2v.2c0 .1-.1.3-.1.4-.1.2-.1.5-.1.7V281.8c0 1.2-.1 2.5-.3 3.8-.2 1.8-1.2 2.8-2.8 3.1-.4.1-.8.1-1.3.2-1.5.3-3.1.5-4.6.6-5.6.2-11.3.3-16.8.4l-2.8.1h-8.1v.2-.2h-1.8zm-505.8.1c0-.1 0-.2-.1-.3-.1-.3-.2-.6-.2-.9v-1.5V54.2v-.7-1.9c.2-2.8 1.6-4.5 4.1-5.2 1.8-.5 3.5-.7 5.1-.7h16.3c8 0 14.6 0 20.9.1 7.1.1 14.1 1 20.8 2.7 7.9 2 14.4 5.3 19.8 10 6.7 5.9 11.3 13.6 13.6 23 1.2 4.7 1.8 9.6 1.9 14.9.2 7.4-.1 13.6-.9 19.3-1.3 8.8-4.2 16.9-8.6 24.1-2.8 4.6-6.4 8.4-10.4 11.3-3 2.2-6 3.6-8.9 4.4-.4.1-.7.2-1 .4-.2.1-.3.1-.5.2l-.8.3.8.2c1.2.3 2.3.6 3.4.8 2.5.6 4.9 1.2 7.3 1.9 9.4 2.9 16.6 8.7 21.3 17.2 2.8 5 4.6 10.5 5.5 16.4 1 6.8 1.3 14.1.8 22.9-.3 5.6-.9 10.6-1.7 15.5-1.7 10.3-4.5 19.2-8.7 27.2-4.4 8.5-9.9 15.1-16.8 20.3-6.6 5-14.3 8.4-22.7 10-4.8.9-9.8 1.4-15.2 1.4h-45.1v-.1zM922 90.7c2.4 0 4.5-.3 6.5-1.1.2-.1.4-.1.6-.1h.1v.1c0 .2.1.4.1.6V135.8c-.2-.1-.3-.3-.4-.5 0-.1-.1-.2-.1-.3-1.8-3.1-4.6-4.9-8.1-5.2-1-.1-1.9-.1-2.7-.1h-30.1c-.3-3.5-.3-35.7-.1-38.7.3-.2.5-.2 1-.2H921.2c.3-.1.6-.1.8-.1zm-221.9 0c2.1 0 4.5-.1 6.9-1H707.6c0 .1 0 .2.1.3.1.3.1.7.1 1v44c-.2 0-.3-.1-.4-.4 0-.1-.1-.1-.1-.2-1.9-2.9-4.8-4.6-8.4-4.8H667.7c-.4 0-.8 0-1.3-.3v-.2c0-.2-.1-.4-.1-.6V91c.4-.3.8-.4 1.1-.4H699.7l.4.1zm114.1 62.7c.4-.6.9-1.1 1.3-1.7 1.1-1.4 2.2-2.7 3.1-4.1 1.3-1.9 2.6-4.1 3.8-6.4 1.1-2 2.1-4.1 3.1-6.5.7-1.6 1.2-3.2 1.8-4.8l.6-1.8V165.4c-.2-.3-.4-.5-.6-.7-.6-.8-1.2-1.4-1.8-2-.7-.7-1.6-1.7-2.5-2.6-.9-.8-1.8-1.6-2.9-2.5-1-.8-2.1-1.6-2.9-2.1-.7-.5-1.4-1-2.2-1.5-.3-.3-.5-.5-.8-.6zm87 32.3h11.2c1.4 0 3-.1 4.6-.4 4.1-.9 7.2-3.3 9.5-7.1 1.2-2 2-4.3 2.4-6.8.1-.7.2-1.3.3-2 0-.3.1-.7.1-1V243.3c0 .5 0 .9-.1 1.4v.4c-4.3-.1-8.4-.1-11.5-.1H890c-.5 0-1 0-1.6-.1h-.7V186c.4-.3.9-.4 1.2-.4h10.7l1.6.1zm-220.9 0h10.9c1.2 0 2.9-.1 4.6-.4 4-.9 7.2-3.4 9.4-7.2 1.1-1.8 1.8-3.8 2.4-6.6 0-.1 0-.2.1-.3 0 .3.1.6.1.9.3 15.7.2 68.4-.2 72.9h-40.9c0-.1 0-.2-.1-.3-.1-.3-.1-.6-.2-.9v-1-8.4-45.9-2.4c.5-.3 1-.4 1.4-.4h12.5z"/><path class="st2" d="M469.6 302.7c-2-.5-3.5-1.2-5.5-1.9-1.2-.5-2-.8-3.1-1.4-1.2-.6-2.9-1.5-4.8-3.1-3.3-2.7-5.8-6.2-7.6-10.3-1.4-3.2-2.3-6.5-2.7-9.9-.6-4.4-.8-8.9-.2-13.4 1.3-8.8 5.2-16.2 11.8-22.1 4.3-3.8 9.3-6.2 15-7.1 7.4-1.3 14.8-.9 22 1.3 7.2 2.2 12.6 6.7 16.1 13.4 2.3 4.5 3.7 9.4 4.1 14.4.5 4.9.5 9.9-.8 14.8-1.5 6-4.4 11.3-8.6 15.8-2.4 2.5-4.6 4-5.2 4.4-3.3 2.2-6.1 3.1-9.5 4.2-3 .9-5.5 1.7-9 2-3 .2-5.5 0-7.2-.2-1.6-.3-3-.5-4.8-.9zm11.1-60.1c-1.5.1-3 .1-4.5.3-5.1.6-9.6 2.5-13.2 6.2-3.8 3.9-6.2 8.5-7.2 13.8-.9 4.8-.6 9.5.4 14.3.6 2.7 1.5 5.2 3 7.5 1.7 2.8 4.1 4.9 7.2 6.1 1 .4 1.9.7 2.9 1 5.4 1.4 10.9 1.7 16.4.8 4.6-.7 8.7-2.6 12-6 3.3-3.4 5.6-7.4 6.6-12 1-4.3.9-8.7.2-13.1-.4-2.9-1.3-5.6-2.5-8.2-2.4-5.1-6.3-8.1-11.6-9.5-3.1-.8-6.4-1.1-9.7-1.2zm38.9 26.3c-.2-9.3 2.4-17.2 7.8-24.2 5.1-6.6 11.9-10.5 20.1-11.9 7-1.1 14-.7 20.9 1.3 7.2 2.1 12.6 6.4 16.1 13.1 2.2 4.1 3.5 8.4 4.2 12.9.6 4.4.9 8.9.1 13.4-1.6 9.9-6.3 18-14.7 23.7-4 2.8-8.6 4.3-13.4 4.9-6.3.9-12.6.5-18.8-.9-9.5-2.2-16.1-7.9-19.6-17-.5-1.2-.9-2.4-1.2-3.6-1.1-3.9-1.6-8-1.5-11.7zm9.9 0l.3 4.5c.3 2.8 1 5.5 2.1 8.1 2.1 5 5.8 8.4 11 9.8 5.9 1.6 11.8 1.9 17.8.8 4.3-.8 8-2.6 11.1-5.8 3.1-3.1 5.2-6.8 6.4-11.1 1.1-4.1 1.2-8.2.7-12.4-.4-3.7-1.3-7.2-3-10.5-2.2-4.4-5.7-7.3-10.3-8.6-5.9-1.7-11.8-2-17.8-.8-5.1 1-9.3 3.7-12.5 7.8-4.1 5.4-6 11.5-5.8 18.2zm235.1-12.3h-5c-.3 0-.7 0-1-.1-.1 0-.6-.1-.6-.1v-.2c0-.1-.1-.2-.1-.3-.1-.2-.1-.4-.1-.6v-79.5c0-.2.1-.4.1-.5 0-.1 0-.1.1-.2v-.1l.1-.1c.1 0 .1-.1.1-.1.1-.1.3-.2.4-.2h.9c1.4 0 2.8-.1 4.1-.1 2.2 0 4.1.1 5.8.3 4.6.6 7.8 3 9.8 7.5 1.1 2.6 1.9 5.6 2.5 9.5 1.1 7.8 1.1 15.8 1 22.7-.1 7-.7 13.4-1.9 19.6-.9 4.5-2 8.2-3.4 11.5-1.1 2.5-2.3 4.5-3.6 6.2-2.7 3.3-5.7 4.8-9.2 4.8z"/><path class="st2" d="M763.6 174.8c1.9 0 3.8.1 5.7.3 4.7.6 7.7 3.1 9.6 7.3 1.3 3 2 6.2 2.4 9.5 1.1 7.5 1.1 15.1 1 22.7-.1 6.6-.7 13.1-1.9 19.5-.8 3.9-1.8 7.8-3.4 11.5-1 2.2-2.1 4.3-3.6 6.2-2.3 2.9-5.1 4.5-8.8 4.5h-5c-.5 0-.9-.1-1.4-.1-.1-.4-.2-.6-.2-.8v-79.5c0-.2.1-.4.2-.6.2-.1.3-.3.4-.3 1.6-.1 3.3-.2 5-.2m0-.5c-1.4 0-2.8 0-4.1.1h-.9c-.2 0-.4.1-.6.2l-.1.1-.2.1-.1.2v.1c-.1.2-.1.4-.1.6v79.5c0 .2.1.4.1.6 0 .1.1.2.1.3l.1.3h.3c.1 0 .3 0 .4.1.3 0 .7.1 1 .1H764.7c3.7 0 6.7-1.5 9.2-4.7 1.4-1.7 2.6-3.8 3.7-6.3 1.4-3.4 2.5-7 3.4-11.6 1.2-6.2 1.8-12.6 1.9-19.6.1-6.9.1-15-1-22.8-.6-4-1.3-7-2.5-9.6-2-4.5-5.3-7-10-7.6-1.8 0-3.6-.1-5.8-.1z"/><g><path class="st2" d="M764 142.2h-4.6c-.3 0-.7-.1-1-.1-.1 0-.3-.1-.4-.1h-.2v-.2c-.3-2.2-.4-59.4 0-61.8v-.2h.2c.1 0 .2 0 .3-.1.2-.1.5-.1.8-.1h7c3.7.2 6.4 1.8 8.2 5 1.3 2.4 2 5 2.4 7.1.8 3.9 1 7.9 1.2 11.7.3 7.6 0 14.5-1.2 21.1-.5 2.8-1.3 6.5-2.9 9.9-.8 1.7-1.7 3.2-2.8 4.5-1.7 2.2-4 3.4-6.9 3.4l-.1-.1z"/><path class="st2" d="M763.4 79.7h2.7c3.5.1 6.3 1.7 8 4.9 1.2 2.2 1.9 4.6 2.4 7 .8 3.8 1 7.8 1.2 11.7.3 7 0 14-1.2 21-.6 3.4-1.4 6.7-2.9 9.8-.8 1.6-1.7 3.1-2.7 4.5-1.7 2.2-3.9 3.3-6.7 3.3h-4.8c-.5 0-.9-.1-1.3-.2-.3-2-.3-59.4 0-61.8.3-.1.7-.2 1.1-.2 1.4.1 2.8 0 4.2 0m0-.5h-4.3c-.3 0-.6.1-.9.1-.1 0-.2 0-.3.1l-.4.1-.1.4c-.3 2.5-.3 59.7 0 61.9l.1.4.4.1c.1 0 .3 0 .4.1.3.1.7.1 1 .1h4.8c2.9 0 5.3-1.2 7.1-3.5 1-1.3 2-2.9 2.8-4.6 1.7-3.5 2.5-7.2 2.9-10 1.1-6.6 1.5-13.5 1.2-21.1-.2-3.8-.4-7.8-1.2-11.7-.4-2-1.1-4.7-2.4-7.1-1.8-3.3-4.6-5-8.4-5.1-.8-.1-1.7-.2-2.7-.2z"/></g><g><path class="st2" d="M1139.4 103.6c2.7 32.1 8.3 63.8 15.5 95.4-.7.1-1.1.3-1.5.3h-29c-.4 0-.8-.1-1.3-.2.2-1.3.4-2.4.6-3.6 2.4-11.7 4.9-23.4 7.3-35.2 1.1-5.5 1.9-11 2.7-16.5.9-6.3 1.8-12.7 2.6-19 .8-6 1.5-12.1 2.2-18.1.1-1 .3-2 .4-3 .1-.1.3-.1.5-.1z"/></g></g></g><g><path class="st3" d="M114.5 45.6c-1 .9-1.6 2.6-1.6 4.9v89.2H79.3V43.5c-13.3 0-22.7.1-28.2.3-5.5.2-8.7.8-9.6 1.8-.9.9-1.4 2.6-1.4 4.9v238c13.3 0 22.7-.1 28.2-.3 5.5-.2 8.7-.8 9.6-1.8.9-.9 1.4-2.6 1.4-4.9v-105h33.6v112c13.3 0 22.7-.1 28.2-.3 5.5-.2 8.7-.8 9.6-1.8.9-.9 1.4-2.6 1.4-4.9v-238c-13.3 0-22.6.1-28 .3-5.4.2-8.6.8-9.6 1.8zm49.9 4.9v238H246c2.3 0 4-.6 4.9-1.9.9-1.3 1.5-4.4 1.8-9.3.2-4.9.3-12.8.3-23.8h-49.3v-79.8h35.7c3.3 0 5.2-2.3 5.8-6.8.6-4.5.9-14.2.9-28.9h-42.3V78.5h44.8c2.3 0 4-.8 4.9-2.3.9-1.5 1.5-4.7 1.8-9.6.2-4.9.3-12.6.3-23.1h-84c-3.4 0-5.8 2.3-7.2 7zm221.9-7c-13.3 0-22.8.1-28.4.3-5.6.2-9.1.8-10.5 1.8-1.4.9-2.5 2.6-3.1 4.9L335.9 89c-.9 4.2-1.9 9.3-3 15.4s-2 12.4-3 18.9c-.9 6.5-1.8 12.7-2.5 18.5-.7 5.8-1.3 10.7-1.8 14.7-.2-4-.7-8.9-1.4-14.7-.7-5.8-1.5-12-2.5-18.5-.9-6.5-1.9-12.8-3-18.7-1.1-6-2-11-3-15.2l-10.1-45.8c-15.2 0-26 .1-32.6.2-6.5.1-10.4.6-11.5 1.4-1.2.8-1.8 2.5-1.1 4.6l44.1 138.4v100.4c13.3 0 22.6-.1 28-.3 5.4-.2 8.6-.8 9.6-1.8 1.1-.9 1.6-2.6 1.6-4.9v-96l42.6-142.1z"/></g><g><path class="st3" d="M480.6 242.4c-7.9 0-14.6 2.1-18.9 7.2-4.3 5.1-5.9 11.6-5.9 18.3 0 7.9 1.8 14.1 5.2 18.4s10.1 7.3 19.7 7.3c7.9 0 14-3.3 18.3-8.2 4.3-4.9 6.5-10.7 6.5-17.5 0-7.7-1.8-13.9-5.2-18.5-3.6-4.6-10.2-7-19.7-7zM458 46.6c-2.5 1.5-3.7 4.1-3.7 7.9l7.4 151.2c10.3 0 18.1-.3 23.6-.9 5.5-.6 9.4-2.2 11.7-4.7 2.3-2.6 3.6-6.8 3.9-12.6L509.7 43c-16.1 0-28.1.2-36.1.7-8 .4-13.2 1.4-15.6 2.9zm96.8 195.5c-7.9 0-14.8 2.4-19.1 7.6-4.3 5.1-5.7 11.2-5.7 18 0 7.9 1.8 14.1 5.2 18.4s9.9 7.6 19.5 7.6c7.9 0 14.2-3.6 18.5-8.5 4.3-4.9 6.5-10.7 6.5-17.5 0-7.7-1.8-13.9-5.2-18.6-3.6-4.7-10.2-7-19.7-7zm42-186.7c-4-4.3-9-7.7-15.2-10.2-6.2-2.4-13.5-3.7-21.9-3.7-6.5 0-13.4.6-20.7 1.8-7.2 1.2-13.3 2.9-18.2 5.1-4.9 2.2-7.4 5.1-7.4 8.6 0 5.1.5 10.3 1.6 15.4 1 5.1 2.6 10.5 4.7 16.1 7.9-4.9 15.9-7.4 23.8-7.4 4.2 0 7.7.4 10.5 1.2 2.8.8 5.1 2 6.8 3.7 1.8 1.6 3 3.6 3.7 6 .7 2.3 1 5 1 8 0 5.1-.8 9.9-2.5 14.3-1.6 4.4-3.9 9-6.8 13.7-2.9 4.7-6.2 9.9-10 15.8-3.7 5.8-7.6 12.7-11.5 20.7-2.8 5.6-4.3 11.2-4.4 16.8-.1 5.6.3 10.7 1.4 15.4 1 4.7 2.9 9.9 5.4 15.8 3.7.5 8.1.7 13 .7s9.5-.4 13.8-1.2c4.3-.8 7.2-2 8.6-3.7 1.6-2.1 1.9-5.1.7-8.9-1.2-3.8-2.2-8.1-3.2-12.8-.9-4.7-.3-9 1.8-13 3.5-6.3 7.3-12.2 11.4-17.7 4.1-5.5 8-11.3 11.9-17.3 3.8-6.1 7-13 9.4-20.8 2.5-7.8 3.7-17.2 3.7-28.2 0-6.8-.9-13.1-2.8-18.9-1.8-5.9-4.7-11-8.6-15.3zm20.5-3.4v238h81.6c2.3 0 4-.6 4.9-1.9.9-1.3 1.5-4.4 1.8-9.3.2-4.9.3-12.8.3-23.8h-49.3v-79.8h35.7c3.3 0 5.2-2.3 5.8-6.8.6-4.6.9-14.2.9-28.9h-42.3V80h44.8c2.3 0 4-.8 4.9-2.3.9-1.5 1.5-4.7 1.8-9.6.2-4.9.3-12.6.3-23.1h-84c-3.5 0-5.8 2.4-7.2 7zm198.5 114.7c-4.1-3.6-8.5-6.2-13.1-7.7-4.7-1.5-9.1-2.5-13.3-3 5.1-.7 10.2-3.2 15-7.5 4.9-4.3 9-10.5 12.2-18.5 3.3-8.1 4.9-18 4.9-29.9 0-11.4-1.7-20.7-5.1-27.8-3.4-7.1-7.9-12.7-13.5-16.6-5.6-4-11.9-6.7-18.9-8.2-7-1.5-14.2-2.3-21.7-2.3H728c-3.7 0-6.3.6-7.7 1.8-1.4 1.2-2.1 2.9-2.1 5.2v238H764c9.6 0 17.9-1.4 25-4.2 7.1-2.8 13.2-6.8 18.4-11.9 5.1-5.1 9.3-11.1 12.6-18 3.3-6.9 5.7-14.5 7.2-22.8s2.3-17.1 2.3-26.4c0-10.3-1.3-18.6-3.8-25-2.5-6.6-5.9-11.6-9.9-15.2zm-57.6-87.4h8c2.1 0 4.1.7 6 2.1 1.9 1.4 3.3 4.2 4.4 8.4 1 4.2 1.6 10.4 1.6 18.6 0 6.5-.5 12.3-1.6 17.3s-2.6 8.9-4.6 11.7c-2 2.8-4.4 4.2-7.2 4.2h-6.6V79.3zm23.3 150.2c-.8 5.6-2 10.4-3.5 14.3-1.5 4-3.3 7-5.4 9.1-2.1 2.1-4.5 3.1-7.3 3.1h-7v-81.5h7.7c2.8 0 5.2.4 7.4 1.2 2.1.8 3.8 2.4 5.2 4.9 1.4 2.4 2.5 6 3.1 10.7.7 4.7 1.1 11 1.1 18.9-.1 7.3-.5 13.7-1.3 19.3zM838.6 52v238h81.5c2.3 0 4-.6 4.9-1.9.9-1.3 1.5-4.4 1.8-9.3.2-4.9.3-12.8.3-23.8h-49.3v-79.8h35.7c3.3 0 5.2-2.3 5.8-6.8.6-4.6.9-14.2.9-28.9h-42.3V80h44.8c2.3 0 4-.8 4.9-2.3.9-1.5 1.5-4.7 1.8-9.6.2-4.9.3-12.6.3-23.1h-84c-3.4 0-5.7 2.4-7.1 7zm204.5-7.3c-3.3 0-7.1.2-11.5.5-4.4.4-9 1.1-13.7 2.3l-38.1 97.8V45c-13.3 0-22.7.1-28.2.3-5.5.2-8.8.8-10 1.8-1.2.9-1.8 2.6-1.8 4.9v238c13.3 0 22.8-.1 28.4-.3 5.6-.2 8.9-.8 10-1.8 1-.9 1.6-2.6 1.6-4.9V175c.5.2 1 .5 1.6.8 3.4 1.8 6.4 4.1 8.9 7.2 4.9 5.6 8.9 12.3 12.1 20.1 3.1 7.8 5.5 16.4 7 25.7s2.6 19.1 3.1 29.4c.6 10.3.9 20.8.9 31.5 4.9.2 9.7.5 14.4.7 4.7.2 9.2.3 13.6.3 7 0 11.5-.6 13.5-1.8 2-1.2 3-3.3 3-6.3 0-31-3.1-58-9.3-80.9-6.2-22.9-15.7-40.2-28.5-52.1l39.9-95.2c2.5-6.4-3.1-9.7-16.9-9.7zm112.7 1c-2.3-.5-5.2-.8-8.6-1-3.4-.2-6.7-.4-10-.4-9.6 0-14.8 2.5-15.8 7.4l-58.5 237.6c4.7.5 9.3.8 14 1.1 4.7.2 8.3.3 10.8.3 7.9 0 12.8-.6 14.5-1.9 1.8-1.3 2.9-3.1 3.3-5.4l10.1-49h46.6L1174 290c5.1.2 9.6.4 13.3.5 3.7.1 6.9.2 9.5.2 7.9 0 12.9-.6 15-1.8 2.1-1.2 2.9-2.9 2.5-5.2l-58.5-238zM1123.2 199l6.7-32.6c1.4-6.3 2.6-13.1 3.7-20.5 1.1-7.3 2.1-15 3.2-22.9 1-7.9 1.9-15.5 2.6-22.8.7 7.2 1.5 14.8 2.5 22.8.9 7.9 2 15.6 3.1 22.9 1.2 7.3 2.3 14.2 3.5 20.5l6.7 32.6h-32zm185-153.6c-5.4.2-8.6.8-9.6 1.8-1 .9-1.6 2.6-1.6 4.9v89.2h-33.6V45c-13.3 0-22.7.1-28.2.3-5.5.2-8.7.8-9.6 1.8-.9.9-1.4 2.6-1.4 4.9v238c13.3 0 22.7-.1 28.2-.3 5.5-.2 8.7-.8 9.6-1.8.9-.9 1.4-2.6 1.4-4.9V178h33.6v112c13.3 0 22.7-.1 28.2-.3 5.5-.2 8.7-.8 9.6-1.8.9-.9 1.4-2.6 1.4-4.9V45c-13.3 0-22.7.2-28 .4z"/></g></svg>