<?xml version="1.0" encoding="utf-8"?>
<!-- Generator: Adobe Illustrator 26.3.1, SVG Export Plug-In . SVG Version: 6.00 Build 0)  -->
<svg version="1.1" id="Layer_1" xmlns="http://www.w3.org/2000/svg" xmlns:xlink="http://www.w3.org/1999/xlink" x="0px" y="0px"
	 viewBox="0 0 500 500" style="enable-background:new 0 0 500 500;" xml:space="preserve">
<style type="text/css">
	.st0{fill:#F34DC3;}
</style>
<g>
	<g>
		<g transform="translate(27.605855, 354.103101)">
			<g>
				<path class="st0" d="M184.1-174.4c3.3,0,5.2-1.3,5.2-5.2v-21.6c0-3.3-2-5.2-5.2-5.2c-49.8,0-83.3,17.7-99.7,53.1L78.6-200
					c-1.3-3.3-2.6-5.2-5.2-5.2H58.2c-3.9,0-5.2,2-5.2,5.2v312.7c0,3.9,1.3,5.2,5.2,5.2h19.7c3.3,0,5.2-1.3,5.2-5.2V-65.5
					c0-35.4,9.2-62.3,27.5-80.6C129.1-164.5,154-174.4,184.1-174.4z"/>
			</g>
		</g>
	</g>
	<path 
	 fill='#ffff'
	d="M81.2,29.1c0,0,150.4,0.1,191.4,0.1s121.3,5.7,157.5,69c35.8,62.5,20.8,149.7-41.5,183.2c0,0,55.8,30.3,55.8,113.6v78.3
		H268.7c0,0,0-77.6,0-93.9c0-16.3,0-49.5-44.3-63.8c0.7-24.7,3.9-54.7,43.6-62.5c39.7-7.8,55.3,8.5,85.3-7.8
		c29.9-16.3,33.8-31.2,43-41.7c9.1-10.4,11.1-33.8,0-36.5c-11.1-2.6-23.4-2.6-39.1-2.6c-15.6,0-26.7-11.7-28-21.5
		c-1.3-9.8,7.8-50.8-54-71s-108.7,4.6-114.6,13C115.7,33.8,81.2,29.1,81.2,29.1z"/>
</g>
</svg>

