<?xml version="1.0" standalone="no"?>
<!DOCTYPE svg PUBLIC "-//W3C//DTD SVG 20010904//EN"
 "http://www.w3.org/TR/2001/REC-SVG-20010904/DTD/svg10.dtd">
<svg version="1.0" xmlns="http://www.w3.org/2000/svg"
 width="2048.000000pt" height="2048.000000pt" viewBox="0 0 2048.000000 2048.000000"
 preserveAspectRatio="xMidYMid meet">
<metadata>
Created by potrace 1.14, written by Peter Selinger 2001-2017
</metadata>
<g transform="translate(0.000000,2048.000000) scale(0.100000,-0.100000)"
fill="#000000" stroke="none">
<path d="M0 10240 l0 -10240 10240 0 10240 0 0 10240 0 10240 -10240 0 -10240
0 0 -10240z m12098 7250 c474 -28 829 -113 1187 -284 618 -296 1034 -801 1220
-1483 82 -298 114 -532 122 -893 11 -514 -39 -1025 -143 -1450 -100 -407 -321
-948 -534 -1305 -157 -262 -480 -735 -792 -1160 -191 -261 -459 -680 -592
-926 -108 -200 -151 -417 -127 -633 6 -55 32 -190 56 -300 40 -180 66 -281
153 -591 35 -126 36 -284 2 -370 -76 -193 -312 -291 -865 -357 -228 -27 -1154
-11 -1202 21 -21 13 -145 328 -216 546 -126 383 -166 625 -174 1045 -6 310 4
424 56 636 56 229 134 412 336 794 213 404 355 647 593 1020 255 398 537 848
597 955 294 519 415 925 415 1395 0 254 -30 426 -100 575 -80 171 -191 280
-375 370 -172 85 -316 117 -599 137 -510 35 -993 -92 -1498 -392 l-38 -22 -11
29 c-43 108 -165 500 -203 653 -99 394 -156 829 -144 1111 4 91 8 114 35 170
83 177 297 315 689 442 585 191 1501 304 2152 267z m-3096 -120 c-1 -25 -115
-1906 -252 -4180 -185 -3081 -254 -4167 -269 -4260 -81 -510 -326 -699 -976
-755 -272 -23 -586 -35 -927 -35 l-306 0 -6 48 c-3 26 -99 1978 -213 4337
-202 4185 -207 4292 -191 4371 52 263 199 366 618 433 342 55 1245 90 2240 87
l284 -1 -2 -45z m2873 -11321 c282 -29 521 -115 688 -248 193 -153 355 -484
407 -830 64 -432 2 -837 -173 -1125 -217 -358 -483 -548 -879 -628 -100 -20
-142 -23 -368 -23 -196 0 -281 4 -368 18 -306 48 -498 129 -650 272 -90 84
-145 160 -206 282 -120 239 -174 533 -163 886 8 270 45 425 156 652 76 154
162 276 281 395 300 300 694 408 1275 349z m-4230 -20 c291 -30 537 -120 705
-260 357 -299 521 -1094 343 -1664 -32 -102 -108 -260 -169 -350 -206 -307
-470 -483 -836 -557 -100 -20 -142 -23 -368 -23 -274 0 -392 13 -573 60 -381
99 -603 314 -730 710 -63 196 -81 334 -81 615 0 216 2 257 22 346 96 441 360
812 702 988 260 134 573 177 985 135z"/>
</g>
</svg>
